<ttFont>
    <TTGlyph name=".notdef" xMin="193" yMin="0" xMax="1034" yMax="1462">
      <contour>
        <pt x="193" y="1462" on="1"/>
        <pt x="1034" y="1462" on="1"/>
        <pt x="1034" y="0" on="1"/>
        <pt x="193" y="0" on="1"/>
      </contour>
      <contour>
        <pt x="297" y="104" on="1"/>
        <pt x="930" y="104" on="1"/>
        <pt x="930" y="1358" on="1"/>
        <pt x="297" y="1358" on="1"/>
      </contour>
    </TTGlyph>
    <TTGlyph name="afii301" xMin="-223" yMin="-272" xMax="223" yMax="1413">
      <contour>
        <pt x="43" y="-272" on="1"/>
        <pt x="-43" y="-272" on="1"/>
        <pt x="-43" y="1096" on="1"/>
        <pt x="-170" y="969" on="1"/>
        <pt x="-223" y="1024" on="1"/>
        <pt x="-55" y="1192" on="1"/>
        <pt x="-223" y="1358" on="1"/>
        <pt x="-170" y="1413" on="1"/>
        <pt x="0" y="1243" on="1"/>
        <pt x="170" y="1413" on="1"/>
        <pt x="223" y="1358" on="1"/>
        <pt x="55" y="1192" on="1"/>
        <pt x="223" y="1024" on="1"/>
        <pt x="170" y="969" on="1"/>
        <pt x="43" y="1096" on="1"/>
      </contour>
    </TTGlyph>
    <TTGlyph name="afii61664" xMin="-43" yMin="-272" xMax="43" yMax="1286">
      <contour>
        <pt x="43" y="1286" on="1"/>
        <pt x="43" y="-272" on="1"/>
        <pt x="-43" y="-272" on="1"/>
        <pt x="-43" y="1286" on="1"/>
      </contour>
    </TTGlyph>
    <TTGlyph name="glyph00136" xMin="65" yMin="225" xMax="1397" yMax="1116">
      <contour>
        <pt x="905" y="388" on="1"/>
        <pt x="936" y="370" on="0"/>
        <pt x="995" y="354" on="0"/>
        <pt x="1024" y="354" on="1"/>
        <pt x="1074" y="354" on="0"/>
        <pt x="1153" y="401" on="0"/>
        <pt x="1209" y="486" on="0"/>
        <pt x="1238" y="607" on="0"/>
        <pt x="1238" y="681" on="1"/>
        <pt x="1238" y="827" on="0"/>
        <pt x="1126" y="987" on="0"/>
        <pt x="1025" y="987" on="1"/>
        <pt x="944" y="987" on="0"/>
        <pt x="847" y="865" on="0"/>
        <pt x="839" y="761" on="1"/>
        <pt x="848" y="716" on="0"/>
        <pt x="848" y="662" on="1"/>
        <pt x="848" y="519" on="0"/>
        <pt x="713" y="297" on="0"/>
        <pt x="584" y="228" on="1"/>
        <pt x="530" y="353" on="1"/>
        <pt x="603" y="384" on="0"/>
        <pt x="689" y="544" on="0"/>
        <pt x="689" y="679" on="1"/>
        <pt x="689" y="987" on="0"/>
        <pt x="457" y="987" on="1"/>
        <pt x="224" y="987" on="0"/>
        <pt x="224" y="679" on="1"/>
        <pt x="224" y="544" on="0"/>
        <pt x="310" y="384" on="0"/>
        <pt x="383" y="353" on="1"/>
        <pt x="329" y="228" on="1"/>
        <pt x="195" y="299" on="0"/>
        <pt x="65" y="529" on="0"/>
        <pt x="65" y="673" on="1"/>
        <pt x="65" y="771" on="0"/>
        <pt x="125" y="934" on="0"/>
        <pt x="230" y="1051" on="0"/>
        <pt x="373" y="1116" on="0"/>
        <pt x="457" y="1116" on="1"/>
        <pt x="550" y="1116" on="0"/>
        <pt x="694" y="1046" on="0"/>
        <pt x="753" y="968" on="1"/>
        <pt x="772" y="999" on="0"/>
        <pt x="833" y="1053" on="0"/>
        <pt x="906" y="1093" on="0"/>
        <pt x="985" y="1116" on="0"/>
        <pt x="1022" y="1116" on="1"/>
        <pt x="1106" y="1116" on="0"/>
        <pt x="1244" y="1058" on="0"/>
        <pt x="1343" y="947" on="0"/>
        <pt x="1397" y="787" on="0"/>
        <pt x="1397" y="684" on="1"/>
        <pt x="1397" y="576" on="0"/>
        <pt x="1343" y="406" on="0"/>
        <pt x="1246" y="287" on="0"/>
        <pt x="1111" y="225" on="0"/>
        <pt x="1030" y="225" on="1"/>
        <pt x="928" y="225" on="0"/>
        <pt x="831" y="280" on="1"/>
      </contour>
    </TTGlyph>
    <TTGlyph name="glyph00137" xMin="58" yMin="200" xMax="773" yMax="1116">
      <contour>
        <pt x="630" y="200" on="1"/>
        <pt x="627" y="235" on="0"/>
        <pt x="619" y="295" on="0"/>
        <pt x="614" y="319" on="1"/>
        <pt x="511" y="225" on="0"/>
        <pt x="375" y="225" on="1"/>
        <pt x="308" y="225" on="0"/>
        <pt x="201" y="256" on="0"/>
        <pt x="125" y="312" on="0"/>
        <pt x="84" y="387" on="0"/>
        <pt x="84" y="431" on="1"/>
        <pt x="84" y="480" on="0"/>
        <pt x="123" y="566" on="0"/>
        <pt x="195" y="628" on="0"/>
        <pt x="295" y="664" on="0"/>
        <pt x="356" y="664" on="1"/>
        <pt x="503" y="664" on="0"/>
        <pt x="605" y="583" on="1"/>
        <pt x="614" y="635" on="0"/>
        <pt x="614" y="695" on="1"/>
        <pt x="614" y="836" on="0"/>
        <pt x="490" y="987" on="0"/>
        <pt x="366" y="987" on="1"/>
        <pt x="338" y="987" on="0"/>
        <pt x="283" y="971" on="0"/>
        <pt x="233" y="942" on="0"/>
        <pt x="189" y="901" on="0"/>
        <pt x="173" y="875" on="1"/>
        <pt x="58" y="943" on="1"/>
        <pt x="82" y="982" on="0"/>
        <pt x="152" y="1046" on="0"/>
        <pt x="236" y="1091" on="0"/>
        <pt x="331" y="1116" on="0"/>
        <pt x="381" y="1116" on="1"/>
        <pt x="471" y="1116" on="0"/>
        <pt x="616" y="1056" on="0"/>
        <pt x="718" y="947" on="0"/>
        <pt x="773" y="795" on="0"/>
        <pt x="773" y="703" on="1"/>
        <pt x="773" y="633" on="0"/>
        <pt x="744" y="507" on="0"/>
        <pt x="713" y="447" on="1"/>
        <pt x="735" y="402" on="0"/>
        <pt x="763" y="294" on="0"/>
        <pt x="771" y="227" on="1"/>
      </contour>
      <contour>
        <pt x="374" y="536" on="1"/>
        <pt x="303" y="536" on="0"/>
        <pt x="235" y="484" on="0"/>
        <pt x="235" y="442" on="1"/>
        <pt x="235" y="400" on="0"/>
        <pt x="306" y="354" on="0"/>
        <pt x="382" y="354" on="1"/>
        <pt x="439" y="354" on="0"/>
        <pt x="528" y="401" on="0"/>
        <pt x="556" y="446" on="1"/>
        <pt x="523" y="488" on="0"/>
        <pt x="428" y="536" on="0"/>
      </contour>
    </TTGlyph>
    <TTGlyph name="glyph00138" xMin="62" yMin="200" xMax="773" yMax="1590">
      <contour>
        <pt x="630" y="200" on="1"/>
        <pt x="627" y="235" on="0"/>
        <pt x="619" y="295" on="0"/>
        <pt x="614" y="319" on="1"/>
        <pt x="511" y="225" on="0"/>
        <pt x="375" y="225" on="1"/>
        <pt x="308" y="225" on="0"/>
        <pt x="201" y="256" on="0"/>
        <pt x="125" y="312" on="0"/>
        <pt x="84" y="387" on="0"/>
        <pt x="84" y="431" on="1"/>
        <pt x="84" y="480" on="0"/>
        <pt x="123" y="566" on="0"/>
        <pt x="195" y="628" on="0"/>
        <pt x="295" y="664" on="0"/>
        <pt x="356" y="664" on="1"/>
        <pt x="503" y="664" on="0"/>
        <pt x="605" y="583" on="1"/>
        <pt x="614" y="635" on="0"/>
        <pt x="614" y="695" on="1"/>
        <pt x="614" y="836" on="0"/>
        <pt x="491" y="987" on="0"/>
        <pt x="366" y="987" on="1"/>
        <pt x="314" y="987" on="0"/>
        <pt x="231" y="930" on="0"/>
        <pt x="217" y="881" on="1"/>
        <pt x="62" y="895" on="1"/>
        <pt x="62" y="1590" on="0"/>
        <pt x="450" y="1590" on="1"/>
        <pt x="629" y="1590" on="0"/>
        <pt x="747" y="1442" on="1"/>
        <pt x="625" y="1347" on="1"/>
        <pt x="611" y="1372" on="0"/>
        <pt x="568" y="1414" on="0"/>
        <pt x="516" y="1445" on="0"/>
        <pt x="458" y="1462" on="0"/>
        <pt x="431" y="1462" on="1"/>
        <pt x="372" y="1462" on="0"/>
        <pt x="293" y="1425" on="0"/>
        <pt x="245" y="1335" on="0"/>
        <pt x="223" y="1185" on="0"/>
        <pt x="220" y="1073" on="1"/>
        <pt x="261" y="1096" on="0"/>
        <pt x="349" y="1116" on="0"/>
        <pt x="403" y="1116" on="1"/>
        <pt x="485" y="1116" on="0"/>
        <pt x="621" y="1054" on="0"/>
        <pt x="719" y="945" on="0"/>
        <pt x="773" y="793" on="0"/>
        <pt x="773" y="703" on="1"/>
        <pt x="773" y="633" on="0"/>
        <pt x="744" y="507" on="0"/>
        <pt x="713" y="447" on="1"/>
        <pt x="735" y="402" on="0"/>
        <pt x="763" y="294" on="0"/>
        <pt x="771" y="227" on="1"/>
      </contour>
      <contour>
        <pt x="374" y="536" on="1"/>
        <pt x="303" y="536" on="0"/>
        <pt x="235" y="484" on="0"/>
        <pt x="235" y="442" on="1"/>
        <pt x="235" y="400" on="0"/>
        <pt x="306" y="354" on="0"/>
        <pt x="382" y="354" on="1"/>
        <pt x="439" y="354" on="0"/>
        <pt x="528" y="401" on="0"/>
        <pt x="556" y="446" on="1"/>
        <pt x="523" y="488" on="0"/>
        <pt x="428" y="536" on="0"/>
      </contour>
    </TTGlyph>
    <TTGlyph name="glyph00139" xMin="62" yMin="228" xMax="875" yMax="1116">
      <contour>
        <pt x="326" y="228" on="1"/>
        <pt x="193" y="299" on="0"/>
        <pt x="62" y="529" on="0"/>
        <pt x="62" y="672" on="1"/>
        <pt x="62" y="768" on="0"/>
        <pt x="125" y="931" on="0"/>
        <pt x="235" y="1049" on="0"/>
        <pt x="384" y="1116" on="0"/>
        <pt x="469" y="1116" on="1"/>
        <pt x="552" y="1116" on="0"/>
        <pt x="699" y="1048" on="0"/>
        <pt x="810" y="928" on="0"/>
        <pt x="875" y="761" on="0"/>
        <pt x="875" y="662" on="1"/>
        <pt x="875" y="519" on="0"/>
        <pt x="740" y="297" on="0"/>
        <pt x="611" y="228" on="1"/>
        <pt x="557" y="353" on="1"/>
        <pt x="630" y="384" on="0"/>
        <pt x="716" y="544" on="0"/>
        <pt x="716" y="679" on="1"/>
        <pt x="716" y="827" on="0"/>
        <pt x="590" y="987" on="0"/>
        <pt x="469" y="987" on="1"/>
        <pt x="348" y="987" on="0"/>
        <pt x="221" y="827" on="0"/>
        <pt x="221" y="679" on="1"/>
        <pt x="221" y="544" on="0"/>
        <pt x="307" y="384" on="0"/>
        <pt x="380" y="353" on="1"/>
      </contour>
    </TTGlyph>
    <TTGlyph name="glyph00140" xMin="62" yMin="228" xMax="860" yMax="1590">
      <contour>
        <pt x="334" y="229" on="1"/>
        <pt x="196" y="295" on="0"/>
        <pt x="62" y="555" on="0"/>
        <pt x="62" y="764" on="1"/>
        <pt x="62" y="898" on="1"/>
        <pt x="62" y="1056" on="0"/>
        <pt x="125" y="1312" on="0"/>
        <pt x="242" y="1492" on="0"/>
        <pt x="409" y="1590" on="0"/>
        <pt x="512" y="1590" on="1"/>
        <pt x="690" y="1590" on="0"/>
        <pt x="809" y="1441" on="1"/>
        <pt x="686" y="1347" on="1"/>
        <pt x="672" y="1372" on="0"/>
        <pt x="629" y="1414" on="0"/>
        <pt x="577" y="1445" on="0"/>
        <pt x="519" y="1462" on="0"/>
        <pt x="492" y="1462" on="1"/>
        <pt x="432" y="1462" on="0"/>
        <pt x="341" y="1417" on="0"/>
        <pt x="277" y="1317" on="0"/>
        <pt x="238" y="1157" on="0"/>
        <pt x="229" y="1042" on="1"/>
        <pt x="280" y="1078" on="0"/>
        <pt x="395" y="1116" on="0"/>
        <pt x="458" y="1116" on="1"/>
        <pt x="547" y="1116" on="0"/>
        <pt x="695" y="1052" on="0"/>
        <pt x="801" y="934" on="0"/>
        <pt x="860" y="769" on="0"/>
        <pt x="860" y="669" on="1"/>
        <pt x="860" y="599" on="0"/>
        <pt x="824" y="468" on="0"/>
        <pt x="756" y="354" on="0"/>
        <pt x="658" y="261" on="0"/>
        <pt x="596" y="228" on="1"/>
        <pt x="542" y="358" on="1"/>
        <pt x="616" y="389" on="0"/>
        <pt x="701" y="545" on="0"/>
        <pt x="701" y="679" on="1"/>
        <pt x="701" y="831" on="0"/>
        <pt x="571" y="987" on="0"/>
        <pt x="448" y="987" on="1"/>
        <pt x="399" y="987" on="0"/>
        <pt x="316" y="956" on="0"/>
        <pt x="255" y="905" on="0"/>
        <pt x="221" y="838" on="0"/>
        <pt x="221" y="801" on="1"/>
        <pt x="221" y="740" on="1"/>
        <pt x="221" y="661" on="0"/>
        <pt x="237" y="541" on="0"/>
        <pt x="275" y="449" on="0"/>
        <pt x="338" y="382" on="0"/>
        <pt x="385" y="357" on="1"/>
      </contour>
    </TTGlyph>
    <TTGlyph name="glyph00141" xMin="44" yMin="225" xMax="1580" yMax="1120">
      <contour>
        <pt x="952" y="982" on="1"/>
        <pt x="1005" y="1057" on="0"/>
        <pt x="1141" y="1116" on="0"/>
        <pt x="1224" y="1116" on="1"/>
        <pt x="1301" y="1116" on="0"/>
        <pt x="1431" y="1054" on="0"/>
        <pt x="1526" y="939" on="0"/>
        <pt x="1580" y="774" on="0"/>
        <pt x="1580" y="671" on="1"/>
        <pt x="1580" y="568" on="0"/>
        <pt x="1521" y="403" on="0"/>
        <pt x="1418" y="287" on="0"/>
        <pt x="1276" y="225" on="0"/>
        <pt x="1193" y="225" on="1"/>
        <pt x="1004" y="225" on="0"/>
        <pt x="890" y="336" on="1"/>
        <pt x="858" y="287" on="0"/>
        <pt x="758" y="225" on="0"/>
        <pt x="703" y="225" on="1"/>
        <pt x="642" y="225" on="0"/>
        <pt x="559" y="267" on="0"/>
        <pt x="534" y="315" on="1"/>
        <pt x="508" y="267" on="0"/>
        <pt x="428" y="225" on="0"/>
        <pt x="365" y="225" on="1"/>
        <pt x="309" y="225" on="0"/>
        <pt x="213" y="264" on="0"/>
        <pt x="143" y="333" on="0"/>
        <pt x="103" y="429" on="0"/>
        <pt x="103" y="487" on="1"/>
        <pt x="103" y="536" on="0"/>
        <pt x="164" y="635" on="0"/>
        <pt x="218" y="687" on="1"/>
        <pt x="270" y="736" on="0"/>
        <pt x="324" y="833" on="0"/>
        <pt x="324" y="882" on="1"/>
        <pt x="324" y="994" on="0"/>
        <pt x="230" y="994" on="1"/>
        <pt x="207" y="994" on="0"/>
        <pt x="181" y="975" on="0"/>
        <pt x="181" y="959" on="1"/>
        <pt x="181" y="947" on="0"/>
        <pt x="198" y="923" on="0"/>
        <pt x="210" y="923" on="1"/>
        <pt x="231" y="924" on="1"/>
        <pt x="222" y="803" on="1"/>
        <pt x="189" y="801" on="1"/>
        <pt x="160" y="801" on="0"/>
        <pt x="107" y="826" on="0"/>
        <pt x="67" y="867" on="0"/>
        <pt x="44" y="921" on="0"/>
        <pt x="44" y="950" on="1"/>
        <pt x="44" y="986" on="0"/>
        <pt x="73" y="1047" on="0"/>
        <pt x="124" y="1091" on="0"/>
        <pt x="192" y="1116" on="0"/>
        <pt x="231" y="1116" on="1"/>
        <pt x="288" y="1116" on="0"/>
        <pt x="379" y="1082" on="0"/>
        <pt x="442" y="1022" on="0"/>
        <pt x="476" y="940" on="0"/>
        <pt x="476" y="893" on="1"/>
        <pt x="476" y="833" on="0"/>
        <pt x="421" y="726" on="0"/>
        <pt x="367" y="671" on="1"/>
        <pt x="312" y="615" on="0"/>
        <pt x="262" y="534" on="0"/>
        <pt x="262" y="494" on="1"/>
        <pt x="262" y="461" on="0"/>
        <pt x="281" y="409" on="0"/>
        <pt x="311" y="373" on="0"/>
        <pt x="349" y="354" on="0"/>
        <pt x="368" y="354" on="1"/>
        <pt x="454" y="354" on="0"/>
        <pt x="474" y="561" on="1"/>
        <pt x="595" y="561" on="1"/>
        <pt x="604" y="455" on="0"/>
        <pt x="655" y="354" on="0"/>
        <pt x="700" y="354" on="1"/>
        <pt x="754" y="354" on="0"/>
        <pt x="815" y="516" on="0"/>
        <pt x="815" y="660" on="1"/>
        <pt x="815" y="780" on="0"/>
        <pt x="734" y="947" on="0"/>
        <pt x="644" y="1005" on="1"/>
        <pt x="718" y="1120" on="1"/>
        <pt x="844" y="1054" on="0"/>
        <pt x="974" y="820" on="0"/>
        <pt x="974" y="660" on="1"/>
        <pt x="974" y="558" on="0"/>
        <pt x="953" y="483" on="1"/>
        <pt x="968" y="456" on="0"/>
        <pt x="1022" y="409" on="0"/>
        <pt x="1087" y="374" on="0"/>
        <pt x="1159" y="354" on="0"/>
        <pt x="1192" y="354" on="1"/>
        <pt x="1246" y="354" on="0"/>
        <pt x="1331" y="399" on="0"/>
        <pt x="1390" y="484" on="0"/>
        <pt x="1420" y="606" on="0"/>
        <pt x="1420" y="683" on="1"/>
        <pt x="1420" y="828" on="0"/>
        <pt x="1305" y="987" on="0"/>
        <pt x="1206" y="987" on="1"/>
        <pt x="1165" y="987" on="0"/>
        <pt x="1095" y="944" on="0"/>
        <pt x="1072" y="908" on="1"/>
      </contour>
    </TTGlyph>
    <TTGlyph name="glyph00142" xMin="62" yMin="221" xMax="934" yMax="1116">
      <contour>
        <pt x="605" y="285" on="1"/>
        <pt x="587" y="273" on="0"/>
        <pt x="524" y="251" on="0"/>
        <pt x="453" y="235" on="0"/>
        <pt x="382" y="225" on="0"/>
        <pt x="354" y="225" on="1"/>
        <pt x="288" y="225" on="0"/>
        <pt x="181" y="262" on="0"/>
        <pt x="104" y="329" on="0"/>
        <pt x="62" y="426" on="0"/>
        <pt x="62" y="486" on="1"/>
        <pt x="62" y="512" on="0"/>
        <pt x="83" y="565" on="0"/>
        <pt x="120" y="615" on="0"/>
        <pt x="171" y="659" on="0"/>
        <pt x="201" y="677" on="1"/>
        <pt x="137" y="706" on="0"/>
        <pt x="62" y="804" on="0"/>
        <pt x="62" y="861" on="1"/>
        <pt x="62" y="919" on="0"/>
        <pt x="123" y="1013" on="0"/>
        <pt x="230" y="1080" on="0"/>
        <pt x="373" y="1116" on="0"/>
        <pt x="456" y="1116" on="1"/>
        <pt x="565" y="1116" on="0"/>
        <pt x="742" y="1045" on="0"/>
        <pt x="867" y="917" on="0"/>
        <pt x="934" y="739" on="0"/>
        <pt x="934" y="632" on="1"/>
        <pt x="934" y="579" on="0"/>
        <pt x="922" y="464" on="0"/>
        <pt x="900" y="355" on="0"/>
        <pt x="871" y="257" on="0"/>
        <pt x="855" y="221" on="1"/>
        <pt x="728" y="278" on="1"/>
        <pt x="742" y="329" on="0"/>
        <pt x="760" y="410" on="0"/>
        <pt x="771" y="489" on="0"/>
        <pt x="775" y="574" on="0"/>
        <pt x="775" y="629" on="1"/>
        <pt x="775" y="713" on="0"/>
        <pt x="731" y="846" on="0"/>
        <pt x="648" y="938" on="0"/>
        <pt x="528" y="987" on="0"/>
        <pt x="451" y="987" on="1"/>
        <pt x="397" y="987" on="0"/>
        <pt x="311" y="967" on="0"/>
        <pt x="253" y="932" on="0"/>
        <pt x="222" y="885" on="0"/>
        <pt x="222" y="859" on="1"/>
        <pt x="222" y="806" on="0"/>
        <pt x="334" y="736" on="0"/>
        <pt x="437" y="725" on="1"/>
        <pt x="437" y="630" on="1"/>
        <pt x="334" y="621" on="0"/>
        <pt x="222" y="546" on="0"/>
        <pt x="222" y="486" on="1"/>
        <pt x="222" y="422" on="0"/>
        <pt x="301" y="354" on="0"/>
        <pt x="367" y="354" on="1"/>
        <pt x="386" y="354" on="0"/>
        <pt x="436" y="361" on="0"/>
        <pt x="487" y="373" on="0"/>
        <pt x="534" y="390" on="0"/>
        <pt x="549" y="401" on="1"/>
      </contour>
    </TTGlyph>
    <TTGlyph name="glyph00143" xMin="62" yMin="225" xMax="878" yMax="1116">
      <contour>
        <pt x="878" y="679" on="1"/>
        <pt x="878" y="581" on="0"/>
        <pt x="818" y="415" on="0"/>
        <pt x="707" y="293" on="0"/>
        <pt x="549" y="225" on="0"/>
        <pt x="451" y="225" on="1"/>
        <pt x="265" y="225" on="0"/>
        <pt x="62" y="361" on="0"/>
        <pt x="62" y="486" on="1"/>
        <pt x="62" y="512" on="0"/>
        <pt x="83" y="565" on="0"/>
        <pt x="120" y="615" on="0"/>
        <pt x="171" y="659" on="0"/>
        <pt x="201" y="677" on="1"/>
        <pt x="137" y="706" on="0"/>
        <pt x="62" y="804" on="0"/>
        <pt x="62" y="861" on="1"/>
        <pt x="62" y="921" on="0"/>
        <pt x="119" y="1016" on="0"/>
        <pt x="220" y="1082" on="0"/>
        <pt x="359" y="1116" on="0"/>
        <pt x="441" y="1116" on="1"/>
        <pt x="544" y="1116" on="0"/>
        <pt x="706" y="1051" on="0"/>
        <pt x="819" y="935" on="0"/>
        <pt x="878" y="774" on="0"/>
      </contour>
      <contour>
        <pt x="436" y="630" on="1"/>
        <pt x="333" y="621" on="0"/>
        <pt x="221" y="546" on="0"/>
        <pt x="221" y="486" on="1"/>
        <pt x="221" y="415" on="0"/>
        <pt x="339" y="354" on="0"/>
        <pt x="454" y="354" on="1"/>
        <pt x="515" y="354" on="0"/>
        <pt x="614" y="402" on="0"/>
        <pt x="683" y="488" on="0"/>
        <pt x="720" y="608" on="0"/>
        <pt x="720" y="679" on="1"/>
        <pt x="720" y="752" on="0"/>
        <pt x="681" y="867" on="0"/>
        <pt x="608" y="946" on="0"/>
        <pt x="502" y="987" on="0"/>
        <pt x="436" y="987" on="1"/>
        <pt x="336" y="987" on="0"/>
        <pt x="221" y="921" on="0"/>
        <pt x="221" y="859" on="1"/>
        <pt x="221" y="806" on="0"/>
        <pt x="334" y="736" on="0"/>
        <pt x="436" y="725" on="1"/>
      </contour>
    </TTGlyph>
    <TTGlyph name="glyph00144" xMin="61" yMin="225" xMax="1370" yMax="1116">
      <contour>
        <pt x="737" y="982" on="1"/>
        <pt x="790" y="1057" on="0"/>
        <pt x="926" y="1116" on="0"/>
        <pt x="1008" y="1116" on="1"/>
        <pt x="1086" y="1116" on="0"/>
        <pt x="1219" y="1054" on="0"/>
        <pt x="1316" y="938" on="0"/>
        <pt x="1370" y="773" on="0"/>
        <pt x="1370" y="671" on="1"/>
        <pt x="1370" y="569" on="0"/>
        <pt x="1311" y="405" on="0"/>
        <pt x="1206" y="288" on="0"/>
        <pt x="1062" y="225" on="0"/>
        <pt x="977" y="225" on="1"/>
        <pt x="877" y="225" on="0"/>
        <pt x="716" y="287" on="0"/>
        <pt x="651" y="354" on="1"/>
        <pt x="595" y="287" on="0"/>
        <pt x="461" y="225" on="0"/>
        <pt x="379" y="225" on="1"/>
        <pt x="312" y="225" on="0"/>
        <pt x="204" y="256" on="0"/>
        <pt x="128" y="312" on="0"/>
        <pt x="87" y="387" on="0"/>
        <pt x="87" y="431" on="1"/>
        <pt x="87" y="480" on="0"/>
        <pt x="126" y="566" on="0"/>
        <pt x="198" y="628" on="0"/>
        <pt x="298" y="664" on="0"/>
        <pt x="359" y="664" on="1"/>
        <pt x="435" y="664" on="0"/>
        <pt x="557" y="627" on="0"/>
        <pt x="608" y="584" on="1"/>
        <pt x="617" y="636" on="0"/>
        <pt x="617" y="695" on="1"/>
        <pt x="617" y="836" on="0"/>
        <pt x="494" y="987" on="0"/>
        <pt x="370" y="987" on="1"/>
        <pt x="342" y="987" on="0"/>
        <pt x="287" y="971" on="0"/>
        <pt x="236" y="942" on="0"/>
        <pt x="192" y="901" on="0"/>
        <pt x="176" y="875" on="1"/>
        <pt x="61" y="943" on="1"/>
        <pt x="86" y="982" on="0"/>
        <pt x="156" y="1046" on="0"/>
        <pt x="240" y="1091" on="0"/>
        <pt x="334" y="1116" on="0"/>
        <pt x="384" y="1116" on="1"/>
        <pt x="474" y="1116" on="0"/>
        <pt x="619" y="1056" on="0"/>
        <pt x="721" y="947" on="0"/>
        <pt x="776" y="795" on="0"/>
        <pt x="776" y="703" on="1"/>
        <pt x="776" y="578" on="0"/>
        <pt x="727" y="471" on="1"/>
        <pt x="746" y="446" on="0"/>
        <pt x="802" y="403" on="0"/>
        <pt x="868" y="372" on="0"/>
        <pt x="940" y="354" on="0"/>
        <pt x="977" y="354" on="1"/>
        <pt x="1032" y="354" on="0"/>
        <pt x="1119" y="401" on="0"/>
        <pt x="1179" y="486" on="0"/>
        <pt x="1211" y="608" on="0"/>
        <pt x="1211" y="683" on="1"/>
        <pt x="1211" y="755" on="0"/>
        <pt x="1179" y="868" on="0"/>
        <pt x="1121" y="946" on="0"/>
        <pt x="1039" y="987" on="0"/>
        <pt x="990" y="987" on="1"/>
        <pt x="950" y="987" on="0"/>
        <pt x="880" y="944" on="0"/>
        <pt x="856" y="908" on="1"/>
      </contour>
      <contour>
        <pt x="378" y="536" on="1"/>
        <pt x="307" y="536" on="0"/>
        <pt x="239" y="484" on="0"/>
        <pt x="239" y="442" on="1"/>
        <pt x="239" y="400" on="0"/>
        <pt x="310" y="354" on="0"/>
        <pt x="385" y="354" on="1"/>
        <pt x="442" y="354" on="0"/>
        <pt x="531" y="401" on="0"/>
        <pt x="559" y="446" on="1"/>
        <pt x="525" y="488" on="0"/>
        <pt x="431" y="536" on="0"/>
      </contour>
    </TTGlyph>
    <TTGlyph name="glyph00145" xMin="62" yMin="221" xMax="816" yMax="1116">
      <contour>
        <pt x="489" y="349" on="1"/>
        <pt x="567" y="357" on="0"/>
        <pt x="657" y="434" on="0"/>
        <pt x="657" y="492" on="1"/>
        <pt x="657" y="610" on="0"/>
        <pt x="442" y="630" on="1"/>
        <pt x="442" y="725" on="1"/>
        <pt x="543" y="736" on="0"/>
        <pt x="657" y="806" on="0"/>
        <pt x="657" y="859" on="1"/>
        <pt x="657" y="885" on="0"/>
        <pt x="630" y="931" on="0"/>
        <pt x="579" y="966" on="0"/>
        <pt x="508" y="987" on="0"/>
        <pt x="463" y="987" on="1"/>
        <pt x="338" y="987" on="0"/>
        <pt x="221" y="832" on="0"/>
        <pt x="221" y="659" on="1"/>
        <pt x="221" y="605" on="0"/>
        <pt x="243" y="505" on="0"/>
        <pt x="283" y="422" on="0"/>
        <pt x="342" y="361" on="0"/>
        <pt x="379" y="345" on="1"/>
        <pt x="326" y="221" on="1"/>
        <pt x="261" y="250" on="0"/>
        <pt x="162" y="341" on="0"/>
        <pt x="96" y="457" on="0"/>
        <pt x="62" y="591" on="0"/>
        <pt x="62" y="664" on="1"/>
        <pt x="62" y="763" on="0"/>
        <pt x="117" y="929" on="0"/>
        <pt x="221" y="1049" on="0"/>
        <pt x="372" y="1116" on="0"/>
        <pt x="467" y="1116" on="1"/>
        <pt x="542" y="1116" on="0"/>
        <pt x="670" y="1076" on="0"/>
        <pt x="763" y="1007" on="0"/>
        <pt x="816" y="914" on="0"/>
        <pt x="816" y="861" on="1"/>
        <pt x="816" y="804" on="0"/>
        <pt x="742" y="707" on="0"/>
        <pt x="678" y="678" on="1"/>
        <pt x="744" y="642" on="0"/>
        <pt x="816" y="542" on="0"/>
        <pt x="816" y="493" on="1"/>
        <pt x="816" y="440" on="0"/>
        <pt x="771" y="346" on="0"/>
        <pt x="693" y="274" on="0"/>
        <pt x="588" y="228" on="0"/>
        <pt x="528" y="224" on="1"/>
      </contour>
    </TTGlyph>
    <TTGlyph name="glyph00146" xMin="62" yMin="221" xMax="816" yMax="1590">
      <contour>
        <pt x="489" y="349" on="1"/>
        <pt x="567" y="357" on="0"/>
        <pt x="657" y="434" on="0"/>
        <pt x="657" y="492" on="1"/>
        <pt x="657" y="610" on="0"/>
        <pt x="442" y="630" on="1"/>
        <pt x="442" y="725" on="1"/>
        <pt x="543" y="736" on="0"/>
        <pt x="657" y="806" on="0"/>
        <pt x="657" y="859" on="1"/>
        <pt x="657" y="885" on="0"/>
        <pt x="630" y="931" on="0"/>
        <pt x="579" y="966" on="0"/>
        <pt x="508" y="987" on="0"/>
        <pt x="463" y="987" on="1"/>
        <pt x="338" y="987" on="0"/>
        <pt x="221" y="832" on="0"/>
        <pt x="221" y="659" on="1"/>
        <pt x="221" y="605" on="0"/>
        <pt x="243" y="505" on="0"/>
        <pt x="283" y="422" on="0"/>
        <pt x="342" y="361" on="0"/>
        <pt x="379" y="345" on="1"/>
        <pt x="326" y="221" on="1"/>
        <pt x="205" y="275" on="0"/>
        <pt x="68" y="495" on="0"/>
        <pt x="62" y="645" on="1"/>
        <pt x="62" y="898" on="1"/>
        <pt x="62" y="1056" on="0"/>
        <pt x="125" y="1312" on="0"/>
        <pt x="242" y="1492" on="0"/>
        <pt x="409" y="1590" on="0"/>
        <pt x="512" y="1590" on="1"/>
        <pt x="691" y="1590" on="0"/>
        <pt x="808" y="1441" on="1"/>
        <pt x="686" y="1347" on="1"/>
        <pt x="672" y="1372" on="0"/>
        <pt x="629" y="1414" on="0"/>
        <pt x="577" y="1445" on="0"/>
        <pt x="519" y="1462" on="0"/>
        <pt x="492" y="1462" on="1"/>
        <pt x="432" y="1462" on="0"/>
        <pt x="341" y="1417" on="0"/>
        <pt x="277" y="1317" on="0"/>
        <pt x="238" y="1158" on="0"/>
        <pt x="229" y="1045" on="1"/>
        <pt x="277" y="1080" on="0"/>
        <pt x="396" y="1116" on="0"/>
        <pt x="467" y="1116" on="1"/>
        <pt x="542" y="1116" on="0"/>
        <pt x="670" y="1076" on="0"/>
        <pt x="763" y="1007" on="0"/>
        <pt x="816" y="914" on="0"/>
        <pt x="816" y="861" on="1"/>
        <pt x="816" y="804" on="0"/>
        <pt x="742" y="707" on="0"/>
        <pt x="678" y="678" on="1"/>
        <pt x="744" y="642" on="0"/>
        <pt x="816" y="542" on="0"/>
        <pt x="816" y="493" on="1"/>
        <pt x="816" y="440" on="0"/>
        <pt x="771" y="346" on="0"/>
        <pt x="693" y="274" on="0"/>
        <pt x="588" y="228" on="0"/>
        <pt x="528" y="224" on="1"/>
      </contour>
    </TTGlyph>
    <TTGlyph name="glyph00147" xMin="66" yMin="225" xMax="1481" yMax="1499">
      <contour>
        <pt x="882" y="679" on="1"/>
        <pt x="882" y="589" on="0"/>
        <pt x="849" y="492" on="1"/>
        <pt x="865" y="465" on="0"/>
        <pt x="919" y="415" on="0"/>
        <pt x="985" y="377" on="0"/>
        <pt x="1058" y="354" on="0"/>
        <pt x="1092" y="354" on="1"/>
        <pt x="1147" y="354" on="0"/>
        <pt x="1232" y="401" on="0"/>
        <pt x="1291" y="486" on="0"/>
        <pt x="1322" y="608" on="0"/>
        <pt x="1322" y="683" on="1"/>
        <pt x="1322" y="817" on="0"/>
        <pt x="1219" y="964" on="0"/>
        <pt x="1104" y="987" on="1"/>
        <pt x="1082" y="991" on="0"/>
        <pt x="1038" y="1000" on="0"/>
        <pt x="1015" y="1003" on="1"/>
        <pt x="929" y="1017" on="0"/>
        <pt x="807" y="1064" on="0"/>
        <pt x="729" y="1132" on="0"/>
        <pt x="692" y="1223" on="0"/>
        <pt x="692" y="1281" on="1"/>
        <pt x="692" y="1293" on="0"/>
        <pt x="699" y="1348" on="0"/>
        <pt x="709" y="1412" on="0"/>
        <pt x="723" y="1477" on="0"/>
        <pt x="731" y="1499" on="1"/>
        <pt x="867" y="1445" on="1"/>
        <pt x="844" y="1353" on="0"/>
        <pt x="844" y="1261" on="1"/>
        <pt x="844" y="1230" on="0"/>
        <pt x="862" y="1185" on="0"/>
        <pt x="909" y="1153" on="0"/>
        <pt x="991" y="1132" on="0"/>
        <pt x="1055" y="1125" on="1"/>
        <pt x="1126" y="1116" on="1"/>
        <pt x="1307" y="1087" on="0"/>
        <pt x="1481" y="859" on="0"/>
        <pt x="1481" y="669" on="1"/>
        <pt x="1481" y="566" on="0"/>
        <pt x="1422" y="402" on="0"/>
        <pt x="1319" y="287" on="0"/>
        <pt x="1177" y="225" on="0"/>
        <pt x="1093" y="225" on="1"/>
        <pt x="988" y="225" on="0"/>
        <pt x="820" y="290" on="0"/>
        <pt x="762" y="351" on="1"/>
        <pt x="648" y="225" on="0"/>
        <pt x="455" y="225" on="1"/>
        <pt x="268" y="225" on="0"/>
        <pt x="66" y="361" on="0"/>
        <pt x="66" y="486" on="1"/>
        <pt x="66" y="512" on="0"/>
        <pt x="87" y="565" on="0"/>
        <pt x="123" y="615" on="0"/>
        <pt x="174" y="659" on="0"/>
        <pt x="204" y="677" on="1"/>
        <pt x="140" y="706" on="0"/>
        <pt x="66" y="804" on="0"/>
        <pt x="66" y="861" on="1"/>
        <pt x="66" y="921" on="0"/>
        <pt x="123" y="1016" on="0"/>
        <pt x="224" y="1082" on="0"/>
        <pt x="363" y="1116" on="0"/>
        <pt x="445" y="1116" on="1"/>
        <pt x="548" y="1116" on="0"/>
        <pt x="710" y="1051" on="0"/>
        <pt x="822" y="935" on="0"/>
        <pt x="882" y="774" on="0"/>
      </contour>
      <contour>
        <pt x="440" y="630" on="1"/>
        <pt x="337" y="621" on="0"/>
        <pt x="225" y="546" on="0"/>
        <pt x="225" y="486" on="1"/>
        <pt x="225" y="415" on="0"/>
        <pt x="342" y="354" on="0"/>
        <pt x="457" y="354" on="1"/>
        <pt x="519" y="354" on="0"/>
        <pt x="617" y="402" on="0"/>
        <pt x="686" y="488" on="0"/>
        <pt x="723" y="608" on="0"/>
        <pt x="723" y="679" on="1"/>
        <pt x="723" y="752" on="0"/>
        <pt x="684" y="867" on="0"/>
        <pt x="611" y="946" on="0"/>
        <pt x="506" y="987" on="0"/>
        <pt x="440" y="987" on="1"/>
        <pt x="340" y="987" on="0"/>
        <pt x="225" y="921" on="0"/>
        <pt x="225" y="859" on="1"/>
        <pt x="225" y="806" on="0"/>
        <pt x="337" y="736" on="0"/>
        <pt x="440" y="725" on="1"/>
      </contour>
    </TTGlyph>
    <TTGlyph name="glyph00148" xMin="51" yMin="-209" xMax="1372" yMax="1116">
      <contour>
        <pt x="588" y="-162" on="1"/>
        <pt x="567" y="-173" on="0"/>
        <pt x="513" y="-190" on="0"/>
        <pt x="458" y="-202" on="0"/>
        <pt x="406" y="-209" on="0"/>
        <pt x="386" y="-209" on="1"/>
        <pt x="305" y="-209" on="0"/>
        <pt x="180" y="-124" on="0"/>
        <pt x="95" y="35" on="0"/>
        <pt x="51" y="260" on="0"/>
        <pt x="51" y="400" on="1"/>
        <pt x="51" y="510" on="1"/>
        <pt x="211" y="483" on="1"/>
        <pt x="211" y="468" on="1"/>
        <pt x="221" y="444" on="0"/>
        <pt x="257" y="403" on="0"/>
        <pt x="304" y="372" on="0"/>
        <pt x="357" y="354" on="0"/>
        <pt x="383" y="354" on="1"/>
        <pt x="434" y="354" on="0"/>
        <pt x="518" y="401" on="0"/>
        <pt x="578" y="487" on="0"/>
        <pt x="611" y="604" on="0"/>
        <pt x="611" y="675" on="1"/>
        <pt x="611" y="825" on="0"/>
        <pt x="486" y="987" on="0"/>
        <pt x="375" y="987" on="1"/>
        <pt x="318" y="987" on="0"/>
        <pt x="212" y="927" on="0"/>
        <pt x="180" y="875" on="1"/>
        <pt x="59" y="947" on="1"/>
        <pt x="119" y="1028" on="0"/>
        <pt x="290" y="1116" on="0"/>
        <pt x="381" y="1116" on="1"/>
        <pt x="470" y="1116" on="0"/>
        <pt x="614" y="1058" on="0"/>
        <pt x="715" y="946" on="0"/>
        <pt x="770" y="781" on="0"/>
        <pt x="770" y="673" on="1"/>
        <pt x="770" y="621" on="0"/>
        <pt x="754" y="523" on="0"/>
        <pt x="739" y="484" on="1"/>
        <pt x="751" y="458" on="0"/>
        <pt x="803" y="411" on="0"/>
        <pt x="869" y="375" on="0"/>
        <pt x="943" y="354" on="0"/>
        <pt x="978" y="354" on="1"/>
        <pt x="1033" y="354" on="0"/>
        <pt x="1120" y="401" on="0"/>
        <pt x="1181" y="486" on="0"/>
        <pt x="1213" y="608" on="0"/>
        <pt x="1213" y="683" on="1"/>
        <pt x="1213" y="755" on="0"/>
        <pt x="1181" y="868" on="0"/>
        <pt x="1123" y="946" on="0"/>
        <pt x="1041" y="987" on="0"/>
        <pt x="992" y="987" on="1"/>
        <pt x="951" y="987" on="0"/>
        <pt x="881" y="944" on="0"/>
        <pt x="858" y="908" on="1"/>
        <pt x="738" y="982" on="1"/>
        <pt x="791" y="1057" on="0"/>
        <pt x="928" y="1116" on="0"/>
        <pt x="1010" y="1116" on="1"/>
        <pt x="1087" y="1116" on="0"/>
        <pt x="1220" y="1054" on="0"/>
        <pt x="1317" y="939" on="0"/>
        <pt x="1372" y="776" on="0"/>
        <pt x="1372" y="674" on="1"/>
        <pt x="1372" y="572" on="0"/>
        <pt x="1313" y="406" on="0"/>
        <pt x="1208" y="289" on="0"/>
        <pt x="1064" y="225" on="0"/>
        <pt x="979" y="225" on="1"/>
        <pt x="878" y="225" on="0"/>
        <pt x="713" y="285" on="0"/>
        <pt x="654" y="344" on="1"/>
        <pt x="596" y="283" on="0"/>
        <pt x="459" y="225" on="0"/>
        <pt x="377" y="225" on="1"/>
        <pt x="286" y="225" on="0"/>
        <pt x="212" y="274" on="1"/>
        <pt x="215" y="172" on="0"/>
        <pt x="233" y="36" on="0"/>
        <pt x="268" y="-47" on="0"/>
        <pt x="324" y="-81" on="0"/>
        <pt x="367" y="-81" on="1"/>
        <pt x="420" y="-81" on="0"/>
        <pt x="479" y="-51" on="1"/>
      </contour>
    </TTGlyph>
    <TTGlyph name="glyph00149" xMin="63" yMin="225" xMax="1005" yMax="1120">
      <contour>
        <pt x="490" y="968" on="1"/>
        <pt x="461" y="977" on="0"/>
        <pt x="405" y="987" on="0"/>
        <pt x="378" y="987" on="1"/>
        <pt x="300" y="987" on="0"/>
        <pt x="222" y="933" on="0"/>
        <pt x="222" y="888" on="1"/>
        <pt x="222" y="823" on="0"/>
        <pt x="328" y="756" on="0"/>
        <pt x="449" y="756" on="1"/>
        <pt x="449" y="641" on="1"/>
        <pt x="410" y="642" on="1"/>
        <pt x="321" y="642" on="0"/>
        <pt x="222" y="568" on="0"/>
        <pt x="222" y="502" on="1"/>
        <pt x="222" y="354" on="0"/>
        <pt x="355" y="354" on="1"/>
        <pt x="415" y="354" on="0"/>
        <pt x="478" y="455" on="0"/>
        <pt x="488" y="561" on="1"/>
        <pt x="609" y="561" on="1"/>
        <pt x="628" y="354" on="0"/>
        <pt x="721" y="354" on="1"/>
        <pt x="748" y="354" on="0"/>
        <pt x="794" y="395" on="0"/>
        <pt x="827" y="473" on="0"/>
        <pt x="846" y="587" on="0"/>
        <pt x="846" y="660" on="1"/>
        <pt x="846" y="780" on="0"/>
        <pt x="764" y="947" on="0"/>
        <pt x="674" y="1005" on="1"/>
        <pt x="748" y="1120" on="1"/>
        <pt x="879" y="1051" on="0"/>
        <pt x="1005" y="812" on="0"/>
        <pt x="1005" y="646" on="1"/>
        <pt x="1005" y="552" on="0"/>
        <pt x="958" y="397" on="0"/>
        <pt x="880" y="286" on="0"/>
        <pt x="779" y="225" on="0"/>
        <pt x="725" y="225" on="1"/>
        <pt x="668" y="225" on="0"/>
        <pt x="575" y="267" on="0"/>
        <pt x="547" y="315" on="1"/>
        <pt x="519" y="265" on="0"/>
        <pt x="426" y="225" on="0"/>
        <pt x="354" y="225" on="1"/>
        <pt x="286" y="225" on="0"/>
        <pt x="179" y="265" on="0"/>
        <pt x="103" y="337" on="0"/>
        <pt x="63" y="439" on="0"/>
        <pt x="63" y="501" on="1"/>
        <pt x="63" y="566" on="0"/>
        <pt x="127" y="671" on="0"/>
        <pt x="188" y="706" on="1"/>
        <pt x="116" y="738" on="0"/>
        <pt x="63" y="825" on="0"/>
        <pt x="63" y="888" on="1"/>
        <pt x="63" y="936" on="0"/>
        <pt x="106" y="1020" on="0"/>
        <pt x="186" y="1081" on="0"/>
        <pt x="297" y="1116" on="0"/>
        <pt x="365" y="1116" on="1"/>
        <pt x="405" y="1116" on="0"/>
        <pt x="491" y="1100" on="0"/>
        <pt x="539" y="1084" on="1"/>
      </contour>
    </TTGlyph>
    <TTGlyph name="glyph00150" xMin="63" yMin="-194" xMax="1005" yMax="1120">
      <contour>
        <pt x="418" y="40" on="1"/>
        <pt x="401" y="66" on="0"/>
        <pt x="376" y="66" on="1"/>
        <pt x="350" y="66" on="0"/>
        <pt x="321" y="33" on="0"/>
        <pt x="321" y="4" on="1"/>
        <pt x="321" y="-14" on="0"/>
        <pt x="340" y="-40" on="0"/>
        <pt x="382" y="-57" on="0"/>
        <pt x="451" y="-65" on="0"/>
        <pt x="501" y="-65" on="1"/>
        <pt x="642" y="-65" on="1"/>
        <pt x="700" y="-65" on="0"/>
        <pt x="780" y="-36" on="0"/>
        <pt x="829" y="31" on="0"/>
        <pt x="851" y="138" on="0"/>
        <pt x="851" y="216" on="1"/>
        <pt x="851" y="269" on="1"/>
        <pt x="822" y="246" on="0"/>
        <pt x="760" y="225" on="0"/>
        <pt x="725" y="225" on="1"/>
        <pt x="668" y="225" on="0"/>
        <pt x="575" y="267" on="0"/>
        <pt x="547" y="315" on="1"/>
        <pt x="519" y="265" on="0"/>
        <pt x="426" y="225" on="0"/>
        <pt x="354" y="225" on="1"/>
        <pt x="286" y="225" on="0"/>
        <pt x="179" y="265" on="0"/>
        <pt x="103" y="337" on="0"/>
        <pt x="63" y="439" on="0"/>
        <pt x="63" y="501" on="1"/>
        <pt x="63" y="566" on="0"/>
        <pt x="127" y="671" on="0"/>
        <pt x="188" y="706" on="1"/>
        <pt x="116" y="738" on="0"/>
        <pt x="63" y="825" on="0"/>
        <pt x="63" y="888" on="1"/>
        <pt x="63" y="936" on="0"/>
        <pt x="106" y="1020" on="0"/>
        <pt x="186" y="1081" on="0"/>
        <pt x="297" y="1116" on="0"/>
        <pt x="365" y="1116" on="1"/>
        <pt x="405" y="1116" on="0"/>
        <pt x="491" y="1100" on="0"/>
        <pt x="539" y="1084" on="1"/>
        <pt x="490" y="968" on="1"/>
        <pt x="461" y="977" on="0"/>
        <pt x="405" y="987" on="0"/>
        <pt x="378" y="987" on="1"/>
        <pt x="300" y="987" on="0"/>
        <pt x="222" y="933" on="0"/>
        <pt x="222" y="888" on="1"/>
        <pt x="222" y="823" on="0"/>
        <pt x="328" y="756" on="0"/>
        <pt x="449" y="756" on="1"/>
        <pt x="449" y="641" on="1"/>
        <pt x="410" y="642" on="1"/>
        <pt x="321" y="642" on="0"/>
        <pt x="222" y="568" on="0"/>
        <pt x="222" y="502" on="1"/>
        <pt x="222" y="354" on="0"/>
        <pt x="355" y="354" on="1"/>
        <pt x="415" y="354" on="0"/>
        <pt x="478" y="455" on="0"/>
        <pt x="488" y="561" on="1"/>
        <pt x="609" y="561" on="1"/>
        <pt x="628" y="354" on="0"/>
        <pt x="721" y="354" on="1"/>
        <pt x="748" y="354" on="0"/>
        <pt x="794" y="395" on="0"/>
        <pt x="827" y="473" on="0"/>
        <pt x="846" y="587" on="0"/>
        <pt x="846" y="660" on="1"/>
        <pt x="846" y="780" on="0"/>
        <pt x="764" y="947" on="0"/>
        <pt x="674" y="1005" on="1"/>
        <pt x="748" y="1120" on="1"/>
        <pt x="873" y="1054" on="0"/>
        <pt x="1005" y="820" on="0"/>
        <pt x="1005" y="660" on="1"/>
        <pt x="1005" y="230" on="1"/>
        <pt x="1005" y="132" on="0"/>
        <pt x="956" y="-25" on="0"/>
        <pt x="865" y="-135" on="0"/>
        <pt x="737" y="-194" on="0"/>
        <pt x="658" y="-194" on="1"/>
        <pt x="451" y="-194" on="1"/>
        <pt x="392" y="-194" on="0"/>
        <pt x="295" y="-166" on="0"/>
        <pt x="226" y="-115" on="0"/>
        <pt x="188" y="-41" on="0"/>
        <pt x="188" y="4" on="1"/>
        <pt x="188" y="44" on="0"/>
        <pt x="215" y="112" on="0"/>
        <pt x="264" y="161" on="0"/>
        <pt x="333" y="188" on="0"/>
        <pt x="376" y="188" on="1"/>
        <pt x="417" y="188" on="0"/>
        <pt x="494" y="145" on="0"/>
        <pt x="520" y="109" on="1"/>
      </contour>
    </TTGlyph>
    <TTGlyph name="glyph00151" xMin="42" yMin="-78" xMax="790" yMax="1116">
      <contour>
        <pt x="42" y="297" on="1"/>
        <pt x="165" y="392" on="0"/>
        <pt x="337" y="392" on="1"/>
        <pt x="400" y="392" on="0"/>
        <pt x="501" y="434" on="0"/>
        <pt x="571" y="512" on="0"/>
        <pt x="608" y="622" on="0"/>
        <pt x="608" y="690" on="1"/>
        <pt x="608" y="759" on="0"/>
        <pt x="575" y="870" on="0"/>
        <pt x="514" y="946" on="0"/>
        <pt x="426" y="987" on="0"/>
        <pt x="371" y="987" on="1"/>
        <pt x="315" y="987" on="0"/>
        <pt x="209" y="927" on="0"/>
        <pt x="177" y="875" on="1"/>
        <pt x="56" y="947" on="1"/>
        <pt x="116" y="1028" on="0"/>
        <pt x="287" y="1116" on="0"/>
        <pt x="378" y="1116" on="1"/>
        <pt x="465" y="1116" on="0"/>
        <pt x="608" y="1058" on="0"/>
        <pt x="710" y="949" on="0"/>
        <pt x="767" y="790" on="0"/>
        <pt x="767" y="689" on="1"/>
        <pt x="767" y="574" on="0"/>
        <pt x="667" y="388" on="0"/>
        <pt x="573" y="330" on="1"/>
        <pt x="620" y="301" on="0"/>
        <pt x="696" y="217" on="0"/>
        <pt x="752" y="112" on="0"/>
        <pt x="786" y="-11" on="0"/>
        <pt x="790" y="-78" on="1"/>
        <pt x="641" y="-69" on="1"/>
        <pt x="636" y="5" on="0"/>
        <pt x="589" y="127" on="0"/>
        <pt x="510" y="215" on="0"/>
        <pt x="402" y="263" on="0"/>
        <pt x="335" y="263" on="1"/>
        <pt x="211" y="263" on="0"/>
        <pt x="120" y="203" on="1"/>
      </contour>
    </TTGlyph>
    <TTGlyph name="glyph00152" xMin="40" yMin="225" xMax="970" yMax="1120">
      <contour>
        <pt x="197" y="801" on="1"/>
        <pt x="186" y="801" on="1"/>
        <pt x="156" y="801" on="0"/>
        <pt x="103" y="826" on="0"/>
        <pt x="63" y="867" on="0"/>
        <pt x="40" y="921" on="0"/>
        <pt x="40" y="950" on="1"/>
        <pt x="40" y="986" on="0"/>
        <pt x="69" y="1047" on="0"/>
        <pt x="120" y="1091" on="0"/>
        <pt x="189" y="1116" on="0"/>
        <pt x="228" y="1116" on="1"/>
        <pt x="285" y="1116" on="0"/>
        <pt x="376" y="1082" on="0"/>
        <pt x="439" y="1022" on="0"/>
        <pt x="473" y="940" on="0"/>
        <pt x="473" y="893" on="1"/>
        <pt x="473" y="833" on="0"/>
        <pt x="417" y="726" on="0"/>
        <pt x="363" y="671" on="1"/>
        <pt x="308" y="615" on="0"/>
        <pt x="259" y="534" on="0"/>
        <pt x="259" y="494" on="1"/>
        <pt x="259" y="461" on="0"/>
        <pt x="278" y="409" on="0"/>
        <pt x="308" y="373" on="0"/>
        <pt x="345" y="354" on="0"/>
        <pt x="364" y="354" on="1"/>
        <pt x="450" y="354" on="0"/>
        <pt x="470" y="561" on="1"/>
        <pt x="591" y="561" on="1"/>
        <pt x="601" y="455" on="0"/>
        <pt x="652" y="354" on="0"/>
        <pt x="697" y="354" on="1"/>
        <pt x="751" y="354" on="0"/>
        <pt x="811" y="515" on="0"/>
        <pt x="811" y="660" on="1"/>
        <pt x="811" y="780" on="0"/>
        <pt x="730" y="947" on="0"/>
        <pt x="640" y="1005" on="1"/>
        <pt x="714" y="1120" on="1"/>
        <pt x="845" y="1051" on="0"/>
        <pt x="970" y="813" on="0"/>
        <pt x="970" y="648" on="1"/>
        <pt x="970" y="553" on="0"/>
        <pt x="926" y="398" on="0"/>
        <pt x="852" y="286" on="0"/>
        <pt x="754" y="225" on="0"/>
        <pt x="700" y="225" on="1"/>
        <pt x="638" y="225" on="0"/>
        <pt x="556" y="267" on="0"/>
        <pt x="531" y="315" on="1"/>
        <pt x="504" y="267" on="0"/>
        <pt x="425" y="225" on="0"/>
        <pt x="362" y="225" on="1"/>
        <pt x="306" y="225" on="0"/>
        <pt x="210" y="264" on="0"/>
        <pt x="140" y="333" on="0"/>
        <pt x="100" y="429" on="0"/>
        <pt x="100" y="487" on="1"/>
        <pt x="100" y="536" on="0"/>
        <pt x="160" y="636" on="0"/>
        <pt x="215" y="687" on="1"/>
        <pt x="266" y="737" on="0"/>
        <pt x="320" y="833" on="0"/>
        <pt x="320" y="882" on="1"/>
        <pt x="320" y="994" on="0"/>
        <pt x="227" y="994" on="1"/>
        <pt x="204" y="994" on="0"/>
        <pt x="178" y="975" on="0"/>
        <pt x="178" y="959" on="1"/>
        <pt x="178" y="947" on="0"/>
        <pt x="195" y="923" on="0"/>
        <pt x="206" y="923" on="1"/>
        <pt x="228" y="924" on="1"/>
        <pt x="219" y="805" on="1"/>
      </contour>
    </TTGlyph>
    <TTGlyph name="glyph00153" xMin="67" yMin="225" xMax="1655" yMax="1116">
      <contour>
        <pt x="498" y="230" on="1"/>
        <pt x="429" y="225" on="1"/>
        <pt x="351" y="225" on="0"/>
        <pt x="218" y="288" on="0"/>
        <pt x="121" y="405" on="0"/>
        <pt x="67" y="573" on="0"/>
        <pt x="67" y="678" on="1"/>
        <pt x="67" y="778" on="0"/>
        <pt x="125" y="940" on="0"/>
        <pt x="229" y="1054" on="0"/>
        <pt x="372" y="1116" on="0"/>
        <pt x="457" y="1116" on="1"/>
        <pt x="536" y="1116" on="0"/>
        <pt x="670" y="1051" on="0"/>
        <pt x="768" y="937" on="0"/>
        <pt x="822" y="781" on="0"/>
        <pt x="822" y="691" on="1"/>
        <pt x="822" y="671" on="0"/>
        <pt x="815" y="616" on="0"/>
        <pt x="804" y="556" on="0"/>
        <pt x="792" y="498" on="0"/>
        <pt x="787" y="476" on="1"/>
        <pt x="782" y="456" on="0"/>
        <pt x="777" y="429" on="0"/>
        <pt x="777" y="427" on="1"/>
        <pt x="777" y="354" on="0"/>
        <pt x="861" y="354" on="1"/>
        <pt x="901" y="354" on="0"/>
        <pt x="946" y="394" on="0"/>
        <pt x="946" y="427" on="1"/>
        <pt x="946" y="434" on="0"/>
        <pt x="935" y="484" on="1"/>
        <pt x="930" y="508" on="0"/>
        <pt x="918" y="568" on="0"/>
        <pt x="908" y="628" on="0"/>
        <pt x="901" y="682" on="0"/>
        <pt x="901" y="702" on="1"/>
        <pt x="901" y="792" on="0"/>
        <pt x="958" y="944" on="0"/>
        <pt x="1058" y="1054" on="0"/>
        <pt x="1194" y="1116" on="0"/>
        <pt x="1272" y="1116" on="1"/>
        <pt x="1359" y="1116" on="0"/>
        <pt x="1500" y="1051" on="0"/>
        <pt x="1600" y="933" on="0"/>
        <pt x="1655" y="769" on="0"/>
        <pt x="1655" y="669" on="1"/>
        <pt x="1655" y="567" on="0"/>
        <pt x="1599" y="402" on="0"/>
        <pt x="1502" y="287" on="0"/>
        <pt x="1369" y="225" on="0"/>
        <pt x="1293" y="225" on="1"/>
        <pt x="1225" y="230" on="1"/>
        <pt x="1242" y="355" on="1"/>
        <pt x="1278" y="354" on="1"/>
        <pt x="1388" y="354" on="0"/>
        <pt x="1496" y="519" on="0"/>
        <pt x="1496" y="679" on="1"/>
        <pt x="1496" y="837" on="0"/>
        <pt x="1385" y="987" on="0"/>
        <pt x="1272" y="987" on="1"/>
        <pt x="1164" y="987" on="0"/>
        <pt x="1053" y="837" on="0"/>
        <pt x="1053" y="694" on="1"/>
        <pt x="1053" y="629" on="0"/>
        <pt x="1071" y="537" on="0"/>
        <pt x="1080" y="502" on="1"/>
        <pt x="1086" y="479" on="0"/>
        <pt x="1095" y="439" on="0"/>
        <pt x="1095" y="417" on="1"/>
        <pt x="1095" y="376" on="0"/>
        <pt x="1063" y="305" on="0"/>
        <pt x="1003" y="254" on="0"/>
        <pt x="916" y="225" on="0"/>
        <pt x="860" y="225" on="1"/>
        <pt x="807" y="225" on="0"/>
        <pt x="721" y="253" on="0"/>
        <pt x="660" y="304" on="0"/>
        <pt x="627" y="375" on="0"/>
        <pt x="627" y="417" on="1"/>
        <pt x="627" y="439" on="0"/>
        <pt x="636" y="479" on="0"/>
        <pt x="642" y="502" on="1"/>
        <pt x="652" y="537" on="0"/>
        <pt x="670" y="629" on="0"/>
        <pt x="670" y="694" on="1"/>
        <pt x="670" y="838" on="0"/>
        <pt x="557" y="987" on="0"/>
        <pt x="451" y="987" on="1"/>
        <pt x="337" y="987" on="0"/>
        <pt x="226" y="840" on="0"/>
        <pt x="226" y="679" on="1"/>
        <pt x="226" y="518" on="0"/>
        <pt x="336" y="354" on="0"/>
        <pt x="445" y="354" on="1"/>
        <pt x="480" y="355" on="1"/>
      </contour>
    </TTGlyph>
    <TTGlyph name="glyph00154" xMin="65" yMin="225" xMax="1345" yMax="1116">
      <contour>
        <pt x="851" y="388" on="1"/>
        <pt x="883" y="370" on="0"/>
        <pt x="941" y="354" on="0"/>
        <pt x="970" y="354" on="1"/>
        <pt x="1020" y="354" on="0"/>
        <pt x="1100" y="401" on="0"/>
        <pt x="1156" y="486" on="0"/>
        <pt x="1186" y="607" on="0"/>
        <pt x="1186" y="681" on="1"/>
        <pt x="1186" y="826" on="0"/>
        <pt x="1073" y="987" on="0"/>
        <pt x="973" y="987" on="1"/>
        <pt x="895" y="987" on="0"/>
        <pt x="795" y="876" on="0"/>
        <pt x="783" y="779" on="1"/>
        <pt x="788" y="754" on="0"/>
        <pt x="792" y="699" on="0"/>
        <pt x="792" y="672" on="1"/>
        <pt x="792" y="568" on="0"/>
        <pt x="740" y="403" on="0"/>
        <pt x="642" y="287" on="0"/>
        <pt x="504" y="225" on="0"/>
        <pt x="418" y="225" on="1"/>
        <pt x="339" y="225" on="0"/>
        <pt x="209" y="297" on="0"/>
        <pt x="116" y="420" on="0"/>
        <pt x="65" y="586" on="0"/>
        <pt x="65" y="680" on="1"/>
        <pt x="65" y="777" on="0"/>
        <pt x="118" y="937" on="0"/>
        <pt x="215" y="1052" on="0"/>
        <pt x="349" y="1116" on="0"/>
        <pt x="430" y="1116" on="1"/>
        <pt x="519" y="1116" on="0"/>
        <pt x="655" y="1049" on="0"/>
        <pt x="706" y="978" on="1"/>
        <pt x="751" y="1042" on="0"/>
        <pt x="896" y="1116" on="0"/>
        <pt x="978" y="1116" on="1"/>
        <pt x="1059" y="1116" on="0"/>
        <pt x="1194" y="1057" on="0"/>
        <pt x="1291" y="946" on="0"/>
        <pt x="1345" y="789" on="0"/>
        <pt x="1345" y="690" on="1"/>
        <pt x="1345" y="582" on="0"/>
        <pt x="1292" y="410" on="0"/>
        <pt x="1195" y="290" on="0"/>
        <pt x="1059" y="225" on="0"/>
        <pt x="976" y="225" on="1"/>
        <pt x="872" y="225" on="0"/>
        <pt x="777" y="280" on="1"/>
      </contour>
      <contour>
        <pt x="224" y="672" on="1"/>
        <pt x="224" y="599" on="0"/>
        <pt x="251" y="481" on="0"/>
        <pt x="303" y="399" on="0"/>
        <pt x="379" y="354" on="0"/>
        <pt x="429" y="354" on="1"/>
        <pt x="478" y="354" on="0"/>
        <pt x="554" y="397" on="0"/>
        <pt x="606" y="479" on="0"/>
        <pt x="633" y="597" on="0"/>
        <pt x="633" y="672" on="1"/>
        <pt x="633" y="824" on="0"/>
        <pt x="526" y="987" on="0"/>
        <pt x="426" y="987" on="1"/>
        <pt x="329" y="987" on="0"/>
        <pt x="224" y="822" on="0"/>
      </contour>
    </TTGlyph>
    <TTGlyph name="glyph00155" xMin="63" yMin="222" xMax="1068" yMax="1116">
      <contour>
        <pt x="895" y="222" on="1"/>
        <pt x="904" y="257" on="0"/>
        <pt x="914" y="345" on="0"/>
        <pt x="914" y="400" on="1"/>
        <pt x="914" y="553" on="0"/>
        <pt x="860" y="775" on="0"/>
        <pt x="753" y="919" on="0"/>
        <pt x="596" y="987" on="0"/>
        <pt x="493" y="987" on="1"/>
        <pt x="362" y="987" on="0"/>
        <pt x="221" y="926" on="0"/>
        <pt x="221" y="866" on="1"/>
        <pt x="221" y="807" on="0"/>
        <pt x="343" y="741" on="0"/>
        <pt x="449" y="741" on="1"/>
        <pt x="449" y="626" on="1"/>
        <pt x="408" y="626" on="1"/>
        <pt x="320" y="626" on="0"/>
        <pt x="221" y="554" on="0"/>
        <pt x="221" y="487" on="1"/>
        <pt x="221" y="422" on="0"/>
        <pt x="270" y="354" on="0"/>
        <pt x="317" y="354" on="1"/>
        <pt x="369" y="354" on="0"/>
        <pt x="419" y="428" on="0"/>
        <pt x="432" y="509" on="1"/>
        <pt x="542" y="509" on="1"/>
        <pt x="554" y="427" on="0"/>
        <pt x="599" y="354" on="0"/>
        <pt x="647" y="354" on="1"/>
        <pt x="680" y="354" on="0"/>
        <pt x="729" y="417" on="0"/>
        <pt x="735" y="487" on="1"/>
        <pt x="867" y="453" on="1"/>
        <pt x="828" y="225" on="0"/>
        <pt x="649" y="225" on="1"/>
        <pt x="543" y="225" on="0"/>
        <pt x="486" y="313" on="1"/>
        <pt x="456" y="266" on="0"/>
        <pt x="369" y="225" on="0"/>
        <pt x="309" y="225" on="1"/>
        <pt x="256" y="225" on="0"/>
        <pt x="166" y="269" on="0"/>
        <pt x="100" y="341" on="0"/>
        <pt x="63" y="435" on="0"/>
        <pt x="63" y="486" on="1"/>
        <pt x="63" y="550" on="0"/>
        <pt x="127" y="657" on="0"/>
        <pt x="188" y="692" on="1"/>
        <pt x="123" y="720" on="0"/>
        <pt x="63" y="806" on="0"/>
        <pt x="63" y="866" on="1"/>
        <pt x="63" y="903" on="0"/>
        <pt x="104" y="990" on="0"/>
        <pt x="205" y="1065" on="0"/>
        <pt x="376" y="1116" on="0"/>
        <pt x="507" y="1116" on="1"/>
        <pt x="643" y="1116" on="0"/>
        <pt x="852" y="1018" on="0"/>
        <pt x="994" y="833" on="0"/>
        <pt x="1068" y="568" on="0"/>
        <pt x="1068" y="401" on="1"/>
        <pt x="1068" y="317" on="0"/>
        <pt x="1053" y="244" on="1"/>
      </contour>
    </TTGlyph>
    <TTGlyph name="glyph00156" xMin="63" yMin="225" xMax="959" yMax="1116">
      <contour>
        <pt x="471" y="1078" on="1"/>
        <pt x="568" y="1116" on="0"/>
        <pt x="658" y="1116" on="1"/>
        <pt x="726" y="1116" on="0"/>
        <pt x="837" y="1081" on="0"/>
        <pt x="916" y="1019" on="0"/>
        <pt x="959" y="936" on="0"/>
        <pt x="959" y="888" on="1"/>
        <pt x="959" y="825" on="0"/>
        <pt x="902" y="739" on="0"/>
        <pt x="836" y="707" on="1"/>
        <pt x="900" y="675" on="0"/>
        <pt x="959" y="583" on="0"/>
        <pt x="959" y="519" on="1"/>
        <pt x="959" y="453" on="0"/>
        <pt x="896" y="344" on="0"/>
        <pt x="782" y="267" on="0"/>
        <pt x="623" y="225" on="0"/>
        <pt x="527" y="225" on="1"/>
        <pt x="423" y="225" on="0"/>
        <pt x="252" y="295" on="0"/>
        <pt x="130" y="419" on="0"/>
        <pt x="63" y="590" on="0"/>
        <pt x="63" y="692" on="1"/>
        <pt x="63" y="754" on="0"/>
        <pt x="101" y="879" on="0"/>
        <pt x="170" y="991" on="0"/>
        <pt x="265" y="1083" on="0"/>
        <pt x="322" y="1112" on="1"/>
        <pt x="388" y="1010" on="1"/>
        <pt x="339" y="973" on="0"/>
        <pt x="275" y="900" on="0"/>
        <pt x="237" y="821" on="0"/>
        <pt x="222" y="733" on="0"/>
        <pt x="222" y="681" on="1"/>
        <pt x="222" y="609" on="0"/>
        <pt x="269" y="488" on="0"/>
        <pt x="352" y="402" on="0"/>
        <pt x="463" y="354" on="0"/>
        <pt x="527" y="354" on="1"/>
        <pt x="662" y="354" on="0"/>
        <pt x="801" y="439" on="0"/>
        <pt x="801" y="516" on="1"/>
        <pt x="801" y="570" on="0"/>
        <pt x="705" y="642" on="0"/>
        <pt x="614" y="642" on="1"/>
        <pt x="557" y="640" on="1"/>
        <pt x="557" y="756" on="1"/>
        <pt x="640" y="756" on="0"/>
        <pt x="729" y="774" on="0"/>
        <pt x="753" y="790" on="1"/>
        <pt x="776" y="807" on="0"/>
        <pt x="801" y="855" on="0"/>
        <pt x="801" y="888" on="1"/>
        <pt x="801" y="933" on="0"/>
        <pt x="723" y="987" on="0"/>
        <pt x="643" y="987" on="1"/>
        <pt x="584" y="987" on="0"/>
        <pt x="516" y="962" on="1"/>
      </contour>
    </TTGlyph>
    <TTGlyph name="glyph00157" xMin="62" yMin="225" xMax="943" yMax="1116">
      <contour>
        <pt x="680" y="225" on="1"/>
        <pt x="558" y="225" on="0"/>
        <pt x="505" y="327" on="1"/>
        <pt x="449" y="225" on="0"/>
        <pt x="324" y="225" on="1"/>
        <pt x="267" y="225" on="0"/>
        <pt x="171" y="286" on="0"/>
        <pt x="101" y="399" on="0"/>
        <pt x="62" y="559" on="0"/>
        <pt x="62" y="657" on="1"/>
        <pt x="62" y="753" on="0"/>
        <pt x="125" y="920" on="0"/>
        <pt x="239" y="1044" on="0"/>
        <pt x="398" y="1116" on="0"/>
        <pt x="494" y="1116" on="1"/>
        <pt x="598" y="1116" on="0"/>
        <pt x="765" y="1047" on="0"/>
        <pt x="881" y="919" on="0"/>
        <pt x="943" y="740" on="0"/>
        <pt x="943" y="629" on="1"/>
        <pt x="943" y="539" on="0"/>
        <pt x="900" y="391" on="0"/>
        <pt x="828" y="284" on="0"/>
        <pt x="733" y="225" on="0"/>
      </contour>
      <contour>
        <pt x="562" y="529" on="1"/>
        <pt x="573" y="446" on="0"/>
        <pt x="632" y="354" on="0"/>
        <pt x="677" y="354" on="1"/>
        <pt x="731" y="354" on="0"/>
        <pt x="784" y="507" on="0"/>
        <pt x="784" y="647" on="1"/>
        <pt x="784" y="812" on="0"/>
        <pt x="643" y="987" on="0"/>
        <pt x="505" y="987" on="1"/>
        <pt x="364" y="987" on="0"/>
        <pt x="222" y="815" on="0"/>
        <pt x="222" y="647" on="1"/>
        <pt x="222" y="506" on="0"/>
        <pt x="277" y="354" on="0"/>
        <pt x="330" y="354" on="1"/>
        <pt x="422" y="354" on="0"/>
        <pt x="449" y="529" on="1"/>
      </contour>
    </TTGlyph>
    <TTGlyph name="glyph00158" xMin="62" yMin="-193" xMax="943" yMax="1116">
      <contour>
        <pt x="673" y="875" on="1"/>
        <pt x="636" y="931" on="0"/>
        <pt x="532" y="987" on="0"/>
        <pt x="472" y="987" on="1"/>
        <pt x="414" y="987" on="0"/>
        <pt x="321" y="941" on="0"/>
        <pt x="257" y="858" on="0"/>
        <pt x="222" y="744" on="0"/>
        <pt x="222" y="675" on="1"/>
        <pt x="222" y="615" on="0"/>
        <pt x="253" y="515" on="0"/>
        <pt x="308" y="437" on="0"/>
        <pt x="383" y="386" on="0"/>
        <pt x="427" y="376" on="1"/>
        <pt x="484" y="367" on="1"/>
        <pt x="582" y="350" on="0"/>
        <pt x="721" y="287" on="0"/>
        <pt x="825" y="170" on="0"/>
        <pt x="904" y="-13" on="0"/>
        <pt x="943" y="-150" on="1"/>
        <pt x="793" y="-193" on="1"/>
        <pt x="746" y="8" on="0"/>
        <pt x="596" y="214" on="0"/>
        <pt x="484" y="234" on="1"/>
        <pt x="440" y="240" on="1"/>
        <pt x="340" y="256" on="0"/>
        <pt x="197" y="327" on="0"/>
        <pt x="105" y="437" on="0"/>
        <pt x="62" y="587" on="0"/>
        <pt x="62" y="683" on="1"/>
        <pt x="62" y="776" on="0"/>
        <pt x="124" y="934" on="0"/>
        <pt x="234" y="1050" on="0"/>
        <pt x="384" y="1116" on="0"/>
        <pt x="471" y="1116" on="1"/>
        <pt x="565" y="1116" on="0"/>
        <pt x="734" y="1028" on="0"/>
        <pt x="794" y="947" on="1"/>
      </contour>
    </TTGlyph>
    <TTGlyph name="glyph00159" xMin="62" yMin="225" xMax="875" yMax="1113">
      <contour>
        <pt x="380" y="989" on="1"/>
        <pt x="307" y="958" on="0"/>
        <pt x="221" y="797" on="0"/>
        <pt x="221" y="662" on="1"/>
        <pt x="221" y="513" on="0"/>
        <pt x="348" y="354" on="0"/>
        <pt x="469" y="354" on="1"/>
        <pt x="590" y="354" on="0"/>
        <pt x="716" y="514" on="0"/>
        <pt x="716" y="662" on="1"/>
        <pt x="716" y="797" on="0"/>
        <pt x="630" y="958" on="0"/>
        <pt x="557" y="989" on="1"/>
        <pt x="611" y="1113" on="1"/>
        <pt x="743" y="1041" on="0"/>
        <pt x="875" y="816" on="0"/>
        <pt x="875" y="667" on="1"/>
        <pt x="875" y="577" on="0"/>
        <pt x="812" y="416" on="0"/>
        <pt x="704" y="295" on="0"/>
        <pt x="559" y="225" on="0"/>
        <pt x="477" y="225" on="1"/>
        <pt x="388" y="225" on="0"/>
        <pt x="236" y="291" on="0"/>
        <pt x="125" y="411" on="0"/>
        <pt x="62" y="578" on="0"/>
        <pt x="62" y="679" on="1"/>
        <pt x="62" y="818" on="0"/>
        <pt x="197" y="1044" on="0"/>
        <pt x="326" y="1113" on="1"/>
      </contour>
    </TTGlyph>
    <TTGlyph name="glyph00160" xMin="64" yMin="225" xMax="1156" yMax="1590">
      <contour>
        <pt x="1093" y="1447" on="1"/>
        <pt x="1052" y="1462" on="0"/>
        <pt x="1016" y="1462" on="1"/>
        <pt x="978" y="1462" on="0"/>
        <pt x="928" y="1407" on="0"/>
        <pt x="899" y="1274" on="0"/>
        <pt x="887" y="1048" on="0"/>
        <pt x="887" y="877" on="1"/>
        <pt x="887" y="707" on="0"/>
        <pt x="835" y="461" on="0"/>
        <pt x="728" y="301" on="0"/>
        <pt x="565" y="225" on="0"/>
        <pt x="454" y="225" on="1"/>
        <pt x="374" y="225" on="0"/>
        <pt x="232" y="293" on="0"/>
        <pt x="126" y="411" on="0"/>
        <pt x="64" y="567" on="0"/>
        <pt x="64" y="656" on="1"/>
        <pt x="64" y="729" on="0"/>
        <pt x="100" y="866" on="0"/>
        <pt x="168" y="985" on="0"/>
        <pt x="267" y="1081" on="0"/>
        <pt x="330" y="1113" on="1"/>
        <pt x="380" y="990" on="1"/>
        <pt x="299" y="950" on="0"/>
        <pt x="223" y="791" on="0"/>
        <pt x="223" y="666" on="1"/>
        <pt x="223" y="515" on="0"/>
        <pt x="349" y="354" on="0"/>
        <pt x="466" y="354" on="1"/>
        <pt x="542" y="354" on="0"/>
        <pt x="643" y="405" on="0"/>
        <pt x="703" y="516" on="0"/>
        <pt x="728" y="694" on="0"/>
        <pt x="728" y="820" on="1"/>
        <pt x="728" y="977" on="1"/>
        <pt x="728" y="1118" on="0"/>
        <pt x="776" y="1344" on="0"/>
        <pt x="860" y="1504" on="0"/>
        <pt x="975" y="1590" on="0"/>
        <pt x="1041" y="1590" on="1"/>
        <pt x="1081" y="1590" on="0"/>
        <pt x="1156" y="1564" on="1"/>
      </contour>
    </TTGlyph>
    <TTGlyph name="glyph00161" xMin="63" yMin="225" xMax="1036" yMax="1116">
      <contour>
        <pt x="1028" y="346" on="1"/>
        <pt x="1000" y="346" on="0"/>
        <pt x="950" y="351" on="0"/>
        <pt x="929" y="357" on="1"/>
        <pt x="888" y="294" on="0"/>
        <pt x="783" y="225" on="0"/>
        <pt x="726" y="225" on="1"/>
        <pt x="669" y="225" on="0"/>
        <pt x="575" y="267" on="0"/>
        <pt x="548" y="315" on="1"/>
        <pt x="520" y="265" on="0"/>
        <pt x="426" y="225" on="0"/>
        <pt x="354" y="225" on="1"/>
        <pt x="286" y="225" on="0"/>
        <pt x="179" y="265" on="0"/>
        <pt x="103" y="337" on="0"/>
        <pt x="63" y="439" on="0"/>
        <pt x="63" y="501" on="1"/>
        <pt x="63" y="566" on="0"/>
        <pt x="127" y="671" on="0"/>
        <pt x="188" y="706" on="1"/>
        <pt x="116" y="738" on="0"/>
        <pt x="63" y="825" on="0"/>
        <pt x="63" y="888" on="1"/>
        <pt x="63" y="936" on="0"/>
        <pt x="106" y="1020" on="0"/>
        <pt x="186" y="1081" on="0"/>
        <pt x="297" y="1116" on="0"/>
        <pt x="365" y="1116" on="1"/>
        <pt x="405" y="1116" on="0"/>
        <pt x="491" y="1100" on="0"/>
        <pt x="539" y="1084" on="1"/>
        <pt x="490" y="968" on="1"/>
        <pt x="461" y="977" on="0"/>
        <pt x="405" y="987" on="0"/>
        <pt x="379" y="987" on="1"/>
        <pt x="300" y="987" on="0"/>
        <pt x="222" y="933" on="0"/>
        <pt x="222" y="888" on="1"/>
        <pt x="222" y="823" on="0"/>
        <pt x="328" y="756" on="0"/>
        <pt x="449" y="756" on="1"/>
        <pt x="449" y="641" on="1"/>
        <pt x="410" y="642" on="1"/>
        <pt x="322" y="642" on="0"/>
        <pt x="222" y="568" on="0"/>
        <pt x="222" y="502" on="1"/>
        <pt x="222" y="354" on="0"/>
        <pt x="355" y="354" on="1"/>
        <pt x="415" y="354" on="0"/>
        <pt x="478" y="455" on="0"/>
        <pt x="488" y="561" on="1"/>
        <pt x="609" y="561" on="1"/>
        <pt x="628" y="354" on="0"/>
        <pt x="722" y="354" on="1"/>
        <pt x="746" y="354" on="0"/>
        <pt x="792" y="385" on="0"/>
        <pt x="810" y="412" on="1"/>
        <pt x="766" y="443" on="0"/>
        <pt x="694" y="528" on="0"/>
        <pt x="642" y="628" on="0"/>
        <pt x="614" y="740" on="0"/>
        <pt x="614" y="799" on="1"/>
        <pt x="614" y="862" on="0"/>
        <pt x="645" y="977" on="0"/>
        <pt x="695" y="1064" on="0"/>
        <pt x="760" y="1116" on="0"/>
        <pt x="795" y="1116" on="1"/>
        <pt x="837" y="1116" on="0"/>
        <pt x="918" y="1059" on="0"/>
        <pt x="983" y="956" on="0"/>
        <pt x="1023" y="810" on="0"/>
        <pt x="1023" y="721" on="1"/>
        <pt x="1023" y="594" on="0"/>
        <pt x="986" y="480" on="1"/>
        <pt x="1007" y="477" on="0"/>
        <pt x="1036" y="477" on="1"/>
      </contour>
      <contour>
        <pt x="877" y="712" on="1"/>
        <pt x="877" y="758" on="0"/>
        <pt x="864" y="847" on="0"/>
        <pt x="841" y="921" on="0"/>
        <pt x="808" y="974" on="0"/>
        <pt x="789" y="985" on="1"/>
        <pt x="757" y="922" on="0"/>
        <pt x="757" y="790" on="1"/>
        <pt x="757" y="714" on="0"/>
        <pt x="809" y="583" on="0"/>
        <pt x="859" y="538" on="1"/>
        <pt x="877" y="623" on="0"/>
      </contour>
    </TTGlyph>
    <TTGlyph name="glyph00162" xMin="63" yMin="225" xMax="1022" yMax="1590">
      <contour>
        <pt x="472" y="919" on="1"/>
        <pt x="419" y="934" on="0"/>
        <pt x="379" y="934" on="1"/>
        <pt x="222" y="934" on="0"/>
        <pt x="222" y="842" on="1"/>
        <pt x="222" y="795" on="0"/>
        <pt x="346" y="741" on="0"/>
        <pt x="449" y="741" on="1"/>
        <pt x="449" y="626" on="1"/>
        <pt x="410" y="626" on="1"/>
        <pt x="321" y="626" on="0"/>
        <pt x="222" y="558" on="0"/>
        <pt x="222" y="494" on="1"/>
        <pt x="222" y="422" on="0"/>
        <pt x="284" y="354" on="0"/>
        <pt x="355" y="354" on="1"/>
        <pt x="415" y="354" on="0"/>
        <pt x="478" y="455" on="0"/>
        <pt x="488" y="561" on="1"/>
        <pt x="609" y="561" on="1"/>
        <pt x="619" y="453" on="0"/>
        <pt x="676" y="354" on="0"/>
        <pt x="725" y="354" on="1"/>
        <pt x="758" y="354" on="0"/>
        <pt x="813" y="408" on="0"/>
        <pt x="854" y="504" on="0"/>
        <pt x="877" y="635" on="0"/>
        <pt x="877" y="712" on="1"/>
        <pt x="877" y="788" on="0"/>
        <pt x="850" y="904" on="0"/>
        <pt x="796" y="989" on="0"/>
        <pt x="714" y="1045" on="0"/>
        <pt x="659" y="1063" on="1"/>
        <pt x="575" y="1088" on="1"/>
        <pt x="493" y="1109" on="0"/>
        <pt x="385" y="1158" on="0"/>
        <pt x="321" y="1220" on="0"/>
        <pt x="295" y="1298" on="0"/>
        <pt x="295" y="1348" on="1"/>
        <pt x="295" y="1394" on="0"/>
        <pt x="347" y="1481" on="0"/>
        <pt x="435" y="1549" on="0"/>
        <pt x="554" y="1590" on="0"/>
        <pt x="621" y="1590" on="1"/>
        <pt x="728" y="1590" on="0"/>
        <pt x="902" y="1516" on="0"/>
        <pt x="962" y="1447" on="1"/>
        <pt x="851" y="1361" on="1"/>
        <pt x="828" y="1388" on="0"/>
        <pt x="781" y="1426" on="0"/>
        <pt x="727" y="1450" on="0"/>
        <pt x="663" y="1462" on="0"/>
        <pt x="623" y="1462" on="1"/>
        <pt x="545" y="1462" on="0"/>
        <pt x="453" y="1395" on="0"/>
        <pt x="453" y="1338" on="1"/>
        <pt x="453" y="1287" on="0"/>
        <pt x="527" y="1223" on="0"/>
        <pt x="610" y="1201" on="1"/>
        <pt x="708" y="1174" on="1"/>
        <pt x="795" y="1150" on="0"/>
        <pt x="915" y="1073" on="0"/>
        <pt x="989" y="959" on="0"/>
        <pt x="1022" y="806" on="0"/>
        <pt x="1022" y="707" on="1"/>
        <pt x="1022" y="606" on="0"/>
        <pt x="973" y="431" on="0"/>
        <pt x="891" y="300" on="0"/>
        <pt x="784" y="225" on="0"/>
        <pt x="725" y="225" on="1"/>
        <pt x="668" y="225" on="0"/>
        <pt x="575" y="267" on="0"/>
        <pt x="548" y="315" on="1"/>
        <pt x="519" y="265" on="0"/>
        <pt x="426" y="225" on="0"/>
        <pt x="354" y="225" on="1"/>
        <pt x="286" y="225" on="0"/>
        <pt x="178" y="263" on="0"/>
        <pt x="103" y="334" on="0"/>
        <pt x="63" y="433" on="0"/>
        <pt x="63" y="493" on="1"/>
        <pt x="63" y="556" on="0"/>
        <pt x="127" y="655" on="0"/>
        <pt x="189" y="692" on="1"/>
        <pt x="127" y="721" on="0"/>
        <pt x="63" y="802" on="0"/>
        <pt x="63" y="853" on="1"/>
        <pt x="63" y="899" on="0"/>
        <pt x="104" y="975" on="0"/>
        <pt x="182" y="1031" on="0"/>
        <pt x="294" y="1062" on="0"/>
        <pt x="365" y="1062" on="1"/>
        <pt x="433" y="1062" on="0"/>
        <pt x="514" y="1039" on="1"/>
      </contour>
    </TTGlyph>
    <TTGlyph name="glyph00163" xMin="63" yMin="219" xMax="975" yMax="1116">
      <contour>
        <pt x="302" y="220" on="1"/>
        <pt x="243" y="263" on="0"/>
        <pt x="153" y="375" on="0"/>
        <pt x="93" y="507" on="0"/>
        <pt x="63" y="653" on="0"/>
        <pt x="63" y="730" on="1"/>
        <pt x="63" y="817" on="0"/>
        <pt x="107" y="960" on="0"/>
        <pt x="182" y="1061" on="0"/>
        <pt x="280" y="1116" on="0"/>
        <pt x="335" y="1116" on="1"/>
        <pt x="462" y="1116" on="0"/>
        <pt x="519" y="1012" on="1"/>
        <pt x="548" y="1067" on="0"/>
        <pt x="642" y="1116" on="0"/>
        <pt x="708" y="1116" on="1"/>
        <pt x="764" y="1116" on="0"/>
        <pt x="862" y="1058" on="0"/>
        <pt x="934" y="954" on="0"/>
        <pt x="975" y="807" on="0"/>
        <pt x="975" y="719" on="1"/>
        <pt x="975" y="644" on="0"/>
        <pt x="943" y="500" on="0"/>
        <pt x="882" y="371" on="0"/>
        <pt x="792" y="260" on="0"/>
        <pt x="735" y="219" on="1"/>
        <pt x="671" y="330" on="1"/>
        <pt x="741" y="388" on="0"/>
        <pt x="817" y="581" on="0"/>
        <pt x="817" y="702" on="1"/>
        <pt x="817" y="837" on="0"/>
        <pt x="758" y="987" on="0"/>
        <pt x="701" y="987" on="1"/>
        <pt x="650" y="987" on="0"/>
        <pt x="589" y="880" on="0"/>
        <pt x="580" y="780" on="1"/>
        <pt x="458" y="780" on="1"/>
        <pt x="450" y="880" on="0"/>
        <pt x="389" y="987" on="0"/>
        <pt x="338" y="987" on="1"/>
        <pt x="280" y="987" on="0"/>
        <pt x="222" y="838" on="0"/>
        <pt x="222" y="702" on="1"/>
        <pt x="222" y="581" on="0"/>
        <pt x="298" y="389" on="0"/>
        <pt x="367" y="330" on="1"/>
      </contour>
    </TTGlyph>
    <TTGlyph name="glyph00164" xMin="63" yMin="219" xMax="975" yMax="1590">
      <contour>
        <pt x="63" y="898" on="1"/>
        <pt x="63" y="1056" on="0"/>
        <pt x="126" y="1312" on="0"/>
        <pt x="243" y="1492" on="0"/>
        <pt x="410" y="1590" on="0"/>
        <pt x="513" y="1590" on="1"/>
        <pt x="692" y="1590" on="0"/>
        <pt x="809" y="1441" on="1"/>
        <pt x="687" y="1347" on="1"/>
        <pt x="673" y="1372" on="0"/>
        <pt x="630" y="1414" on="0"/>
        <pt x="578" y="1445" on="0"/>
        <pt x="520" y="1462" on="0"/>
        <pt x="493" y="1462" on="1"/>
        <pt x="435" y="1462" on="0"/>
        <pt x="347" y="1421" on="0"/>
        <pt x="284" y="1332" on="0"/>
        <pt x="244" y="1191" on="0"/>
        <pt x="234" y="1090" on="1"/>
        <pt x="279" y="1116" on="0"/>
        <pt x="335" y="1116" on="1"/>
        <pt x="462" y="1116" on="0"/>
        <pt x="519" y="1012" on="1"/>
        <pt x="548" y="1067" on="0"/>
        <pt x="642" y="1116" on="0"/>
        <pt x="708" y="1116" on="1"/>
        <pt x="764" y="1116" on="0"/>
        <pt x="862" y="1058" on="0"/>
        <pt x="934" y="954" on="0"/>
        <pt x="975" y="807" on="0"/>
        <pt x="975" y="719" on="1"/>
        <pt x="975" y="644" on="0"/>
        <pt x="943" y="500" on="0"/>
        <pt x="882" y="371" on="0"/>
        <pt x="792" y="260" on="0"/>
        <pt x="735" y="219" on="1"/>
        <pt x="671" y="330" on="1"/>
        <pt x="741" y="388" on="0"/>
        <pt x="817" y="581" on="0"/>
        <pt x="817" y="702" on="1"/>
        <pt x="817" y="837" on="0"/>
        <pt x="758" y="987" on="0"/>
        <pt x="701" y="987" on="1"/>
        <pt x="650" y="987" on="0"/>
        <pt x="589" y="880" on="0"/>
        <pt x="580" y="780" on="1"/>
        <pt x="458" y="780" on="1"/>
        <pt x="450" y="880" on="0"/>
        <pt x="389" y="987" on="0"/>
        <pt x="338" y="987" on="1"/>
        <pt x="280" y="987" on="0"/>
        <pt x="222" y="838" on="0"/>
        <pt x="222" y="702" on="1"/>
        <pt x="222" y="581" on="0"/>
        <pt x="298" y="389" on="0"/>
        <pt x="367" y="330" on="1"/>
        <pt x="302" y="219" on="1"/>
        <pt x="245" y="261" on="0"/>
        <pt x="156" y="371" on="0"/>
        <pt x="95" y="501" on="0"/>
        <pt x="63" y="644" on="0"/>
        <pt x="63" y="719" on="1"/>
      </contour>
    </TTGlyph>
    <TTGlyph name="glyph00165" xMin="37" yMin="225" xMax="1322" yMax="1116">
      <contour>
        <pt x="59" y="947" on="1"/>
        <pt x="119" y="1028" on="0"/>
        <pt x="290" y="1116" on="0"/>
        <pt x="381" y="1116" on="1"/>
        <pt x="478" y="1116" on="0"/>
        <pt x="631" y="1041" on="0"/>
        <pt x="680" y="969" on="1"/>
        <pt x="704" y="1000" on="0"/>
        <pt x="767" y="1054" on="0"/>
        <pt x="840" y="1094" on="0"/>
        <pt x="918" y="1116" on="0"/>
        <pt x="956" y="1116" on="1"/>
        <pt x="1038" y="1116" on="0"/>
        <pt x="1173" y="1057" on="0"/>
        <pt x="1269" y="946" on="0"/>
        <pt x="1322" y="789" on="0"/>
        <pt x="1322" y="690" on="1"/>
        <pt x="1322" y="582" on="0"/>
        <pt x="1269" y="410" on="0"/>
        <pt x="1173" y="290" on="0"/>
        <pt x="1037" y="225" on="0"/>
        <pt x="954" y="225" on="1"/>
        <pt x="852" y="225" on="0"/>
        <pt x="755" y="280" on="1"/>
        <pt x="830" y="388" on="1"/>
        <pt x="861" y="370" on="0"/>
        <pt x="919" y="354" on="0"/>
        <pt x="948" y="354" on="1"/>
        <pt x="998" y="354" on="0"/>
        <pt x="1078" y="400" on="0"/>
        <pt x="1133" y="486" on="0"/>
        <pt x="1163" y="607" on="0"/>
        <pt x="1163" y="681" on="1"/>
        <pt x="1163" y="827" on="0"/>
        <pt x="1051" y="987" on="0"/>
        <pt x="950" y="987" on="1"/>
        <pt x="912" y="987" on="0"/>
        <pt x="848" y="953" on="0"/>
        <pt x="800" y="894" on="0"/>
        <pt x="769" y="813" on="0"/>
        <pt x="764" y="766" on="1"/>
        <pt x="770" y="721" on="0"/>
        <pt x="770" y="662" on="1"/>
        <pt x="770" y="563" on="0"/>
        <pt x="708" y="401" on="0"/>
        <pt x="600" y="287" on="0"/>
        <pt x="457" y="225" on="0"/>
        <pt x="376" y="225" on="1"/>
        <pt x="257" y="225" on="0"/>
        <pt x="85" y="342" on="0"/>
        <pt x="37" y="448" on="1"/>
        <pt x="185" y="495" on="1"/>
        <pt x="205" y="426" on="0"/>
        <pt x="308" y="354" on="0"/>
        <pt x="383" y="354" on="1"/>
        <pt x="434" y="354" on="0"/>
        <pt x="518" y="401" on="0"/>
        <pt x="578" y="487" on="0"/>
        <pt x="611" y="604" on="0"/>
        <pt x="611" y="675" on="1"/>
        <pt x="611" y="825" on="0"/>
        <pt x="486" y="987" on="0"/>
        <pt x="374" y="987" on="1"/>
        <pt x="318" y="987" on="0"/>
        <pt x="212" y="927" on="0"/>
        <pt x="180" y="875" on="1"/>
      </contour>
    </TTGlyph>
    <TTGlyph name="glyph00166" xMin="62" yMin="174" xMax="875" yMax="1113">
      <contour>
        <pt x="730" y="174" on="1"/>
        <pt x="727" y="206" on="0"/>
        <pt x="711" y="271" on="0"/>
        <pt x="699" y="301" on="1"/>
        <pt x="646" y="260" on="0"/>
        <pt x="529" y="225" on="0"/>
        <pt x="461" y="225" on="1"/>
        <pt x="375" y="225" on="0"/>
        <pt x="228" y="296" on="0"/>
        <pt x="122" y="419" on="0"/>
        <pt x="62" y="584" on="0"/>
        <pt x="62" y="679" on="1"/>
        <pt x="62" y="818" on="0"/>
        <pt x="197" y="1044" on="0"/>
        <pt x="326" y="1113" on="1"/>
        <pt x="380" y="989" on="1"/>
        <pt x="307" y="958" on="0"/>
        <pt x="221" y="797" on="0"/>
        <pt x="221" y="662" on="1"/>
        <pt x="221" y="513" on="0"/>
        <pt x="348" y="354" on="0"/>
        <pt x="469" y="354" on="1"/>
        <pt x="571" y="354" on="0"/>
        <pt x="631" y="410" on="1"/>
        <pt x="570" y="477" on="0"/>
        <pt x="481" y="492" on="1"/>
        <pt x="500" y="619" on="1"/>
        <pt x="557" y="612" on="0"/>
        <pt x="658" y="569" on="0"/>
        <pt x="701" y="534" on="1"/>
        <pt x="709" y="563" on="0"/>
        <pt x="716" y="628" on="0"/>
        <pt x="716" y="662" on="1"/>
        <pt x="716" y="797" on="0"/>
        <pt x="630" y="958" on="0"/>
        <pt x="557" y="989" on="1"/>
        <pt x="611" y="1113" on="1"/>
        <pt x="739" y="1044" on="0"/>
        <pt x="875" y="822" on="0"/>
        <pt x="875" y="679" on="1"/>
        <pt x="875" y="604" on="0"/>
        <pt x="841" y="475" on="0"/>
        <pt x="804" y="415" on="1"/>
        <pt x="832" y="367" on="0"/>
        <pt x="863" y="265" on="0"/>
        <pt x="871" y="209" on="1"/>
      </contour>
    </TTGlyph>
    <TTGlyph name="glyph00167" xMin="66" yMin="225" xMax="1475" yMax="1116">
      <contour>
        <pt x="841" y="982" on="1"/>
        <pt x="894" y="1057" on="0"/>
        <pt x="1031" y="1116" on="0"/>
        <pt x="1112" y="1116" on="1"/>
        <pt x="1190" y="1116" on="0"/>
        <pt x="1323" y="1054" on="0"/>
        <pt x="1420" y="938" on="0"/>
        <pt x="1475" y="773" on="0"/>
        <pt x="1475" y="671" on="1"/>
        <pt x="1475" y="569" on="0"/>
        <pt x="1415" y="405" on="0"/>
        <pt x="1310" y="288" on="0"/>
        <pt x="1166" y="225" on="0"/>
        <pt x="1081" y="225" on="1"/>
        <pt x="978" y="225" on="0"/>
        <pt x="811" y="288" on="0"/>
        <pt x="755" y="347" on="1"/>
        <pt x="699" y="289" on="0"/>
        <pt x="552" y="225" on="0"/>
        <pt x="464" y="225" on="1"/>
        <pt x="378" y="225" on="0"/>
        <pt x="232" y="296" on="0"/>
        <pt x="126" y="419" on="0"/>
        <pt x="66" y="584" on="0"/>
        <pt x="66" y="679" on="1"/>
        <pt x="66" y="818" on="0"/>
        <pt x="200" y="1044" on="0"/>
        <pt x="329" y="1113" on="1"/>
        <pt x="383" y="989" on="1"/>
        <pt x="310" y="958" on="0"/>
        <pt x="225" y="797" on="0"/>
        <pt x="225" y="662" on="1"/>
        <pt x="225" y="513" on="0"/>
        <pt x="351" y="354" on="0"/>
        <pt x="472" y="354" on="1"/>
        <pt x="593" y="354" on="0"/>
        <pt x="719" y="514" on="0"/>
        <pt x="719" y="662" on="1"/>
        <pt x="719" y="797" on="0"/>
        <pt x="634" y="958" on="0"/>
        <pt x="561" y="989" on="1"/>
        <pt x="615" y="1113" on="1"/>
        <pt x="743" y="1044" on="0"/>
        <pt x="879" y="822" on="0"/>
        <pt x="879" y="679" on="1"/>
        <pt x="879" y="656" on="0"/>
        <pt x="876" y="615" on="0"/>
        <pt x="868" y="571" on="0"/>
        <pt x="853" y="518" on="0"/>
        <pt x="841" y="484" on="1"/>
        <pt x="855" y="458" on="0"/>
        <pt x="907" y="411" on="0"/>
        <pt x="972" y="375" on="0"/>
        <pt x="1046" y="354" on="0"/>
        <pt x="1081" y="354" on="1"/>
        <pt x="1136" y="354" on="0"/>
        <pt x="1223" y="401" on="0"/>
        <pt x="1283" y="486" on="0"/>
        <pt x="1315" y="608" on="0"/>
        <pt x="1315" y="683" on="1"/>
        <pt x="1315" y="755" on="0"/>
        <pt x="1283" y="868" on="0"/>
        <pt x="1225" y="946" on="0"/>
        <pt x="1143" y="987" on="0"/>
        <pt x="1094" y="987" on="1"/>
        <pt x="1054" y="987" on="0"/>
        <pt x="984" y="944" on="0"/>
        <pt x="961" y="908" on="1"/>
      </contour>
    </TTGlyph>
    <TTGlyph name="glyph00168" xMin="64" yMin="225" xMax="1133" yMax="1590">
      <contour>
        <pt x="1070" y="1447" on="1"/>
        <pt x="1029" y="1462" on="0"/>
        <pt x="994" y="1462" on="1"/>
        <pt x="955" y="1462" on="0"/>
        <pt x="904" y="1405" on="0"/>
        <pt x="876" y="1269" on="0"/>
        <pt x="865" y="1044" on="0"/>
        <pt x="865" y="877" on="1"/>
        <pt x="865" y="710" on="0"/>
        <pt x="806" y="464" on="0"/>
        <pt x="687" y="303" on="0"/>
        <pt x="508" y="225" on="0"/>
        <pt x="389" y="225" on="1"/>
        <pt x="317" y="225" on="0"/>
        <pt x="197" y="265" on="0"/>
        <pt x="112" y="338" on="0"/>
        <pt x="64" y="439" on="0"/>
        <pt x="64" y="501" on="1"/>
        <pt x="64" y="566" on="0"/>
        <pt x="129" y="673" on="0"/>
        <pt x="188" y="706" on="1"/>
        <pt x="64" y="770" on="0"/>
        <pt x="64" y="888" on="1"/>
        <pt x="64" y="936" on="0"/>
        <pt x="107" y="1020" on="0"/>
        <pt x="187" y="1081" on="0"/>
        <pt x="298" y="1116" on="0"/>
        <pt x="366" y="1116" on="1"/>
        <pt x="398" y="1116" on="0"/>
        <pt x="466" y="1106" on="0"/>
        <pt x="532" y="1087" on="0"/>
        <pt x="592" y="1060" on="0"/>
        <pt x="616" y="1044" on="1"/>
        <pt x="551" y="936" on="1"/>
        <pt x="534" y="948" on="0"/>
        <pt x="491" y="966" on="0"/>
        <pt x="445" y="980" on="0"/>
        <pt x="399" y="987" on="0"/>
        <pt x="379" y="987" on="1"/>
        <pt x="301" y="987" on="0"/>
        <pt x="221" y="934" on="0"/>
        <pt x="221" y="889" on="1"/>
        <pt x="223" y="854" on="0"/>
        <pt x="248" y="804" on="0"/>
        <pt x="305" y="772" on="0"/>
        <pt x="397" y="756" on="0"/>
        <pt x="466" y="756" on="1"/>
        <pt x="466" y="640" on="1"/>
        <pt x="409" y="642" on="1"/>
        <pt x="320" y="642" on="0"/>
        <pt x="221" y="572" on="0"/>
        <pt x="221" y="508" on="1"/>
        <pt x="221" y="435" on="0"/>
        <pt x="314" y="354" on="0"/>
        <pt x="405" y="354" on="1"/>
        <pt x="561" y="354" on="0"/>
        <pt x="706" y="586" on="0"/>
        <pt x="706" y="820" on="1"/>
        <pt x="706" y="977" on="1"/>
        <pt x="706" y="1118" on="0"/>
        <pt x="754" y="1344" on="0"/>
        <pt x="837" y="1504" on="0"/>
        <pt x="951" y="1590" on="0"/>
        <pt x="1017" y="1590" on="1"/>
        <pt x="1058" y="1590" on="0"/>
        <pt x="1133" y="1564" on="1"/>
      </contour>
    </TTGlyph>
    <TTGlyph name="glyph00169" xMin="63" yMin="221" xMax="957" yMax="1116">
      <contour>
        <pt x="797" y="606" on="1"/>
        <pt x="797" y="792" on="0"/>
        <pt x="615" y="987" on="0"/>
        <pt x="441" y="987" on="1"/>
        <pt x="402" y="987" on="0"/>
        <pt x="336" y="977" on="0"/>
        <pt x="289" y="958" on="0"/>
        <pt x="262" y="931" on="0"/>
        <pt x="262" y="913" on="1"/>
        <pt x="262" y="904" on="0"/>
        <pt x="275" y="888" on="0"/>
        <pt x="307" y="869" on="0"/>
        <pt x="358" y="847" on="0"/>
        <pt x="397" y="833" on="1"/>
        <pt x="490" y="800" on="0"/>
        <pt x="612" y="734" on="0"/>
        <pt x="683" y="662" on="0"/>
        <pt x="712" y="581" on="0"/>
        <pt x="712" y="533" on="1"/>
        <pt x="712" y="470" on="0"/>
        <pt x="661" y="358" on="0"/>
        <pt x="574" y="274" on="0"/>
        <pt x="457" y="225" on="0"/>
        <pt x="391" y="225" on="1"/>
        <pt x="320" y="225" on="0"/>
        <pt x="199" y="270" on="0"/>
        <pt x="112" y="351" on="0"/>
        <pt x="63" y="464" on="0"/>
        <pt x="63" y="532" on="1"/>
        <pt x="63" y="609" on="0"/>
        <pt x="111" y="678" on="1"/>
        <pt x="236" y="603" on="1"/>
        <pt x="214" y="563" on="0"/>
        <pt x="214" y="529" on="1"/>
        <pt x="214" y="449" on="0"/>
        <pt x="308" y="354" on="0"/>
        <pt x="389" y="354" on="1"/>
        <pt x="426" y="354" on="0"/>
        <pt x="486" y="380" on="0"/>
        <pt x="530" y="427" on="0"/>
        <pt x="554" y="492" on="0"/>
        <pt x="554" y="531" on="1"/>
        <pt x="554" y="564" on="0"/>
        <pt x="529" y="615" on="0"/>
        <pt x="476" y="658" on="0"/>
        <pt x="393" y="699" on="0"/>
        <pt x="336" y="721" on="1"/>
        <pt x="280" y="741" on="0"/>
        <pt x="204" y="775" on="0"/>
        <pt x="186" y="786" on="1"/>
        <pt x="146" y="812" on="0"/>
        <pt x="104" y="870" on="0"/>
        <pt x="104" y="913" on="1"/>
        <pt x="104" y="955" on="0"/>
        <pt x="158" y="1028" on="0"/>
        <pt x="253" y="1084" on="0"/>
        <pt x="384" y="1116" on="0"/>
        <pt x="461" y="1116" on="1"/>
        <pt x="575" y="1116" on="0"/>
        <pt x="758" y="1048" on="0"/>
        <pt x="887" y="920" on="0"/>
        <pt x="957" y="735" on="0"/>
        <pt x="957" y="619" on="1"/>
        <pt x="957" y="516" on="0"/>
        <pt x="917" y="311" on="0"/>
        <pt x="879" y="221" on="1"/>
        <pt x="752" y="278" on="1"/>
        <pt x="766" y="332" on="0"/>
        <pt x="783" y="419" on="0"/>
        <pt x="793" y="496" on="0"/>
        <pt x="797" y="568" on="0"/>
      </contour>
    </TTGlyph>
    <TTGlyph name="glyph00170" xMin="62" yMin="-209" xMax="963" yMax="1116">
      <contour>
        <pt x="790" y="-209" on="1"/>
        <pt x="778" y="-178" on="0"/>
        <pt x="769" y="-158" on="1"/>
        <pt x="735" y="-175" on="0"/>
        <pt x="656" y="-194" on="0"/>
        <pt x="616" y="-194" on="1"/>
        <pt x="363" y="-194" on="1"/>
        <pt x="304" y="-194" on="0"/>
        <pt x="207" y="-166" on="0"/>
        <pt x="138" y="-115" on="0"/>
        <pt x="100" y="-41" on="0"/>
        <pt x="100" y="4" on="1"/>
        <pt x="100" y="44" on="0"/>
        <pt x="127" y="112" on="0"/>
        <pt x="176" y="161" on="0"/>
        <pt x="245" y="188" on="0"/>
        <pt x="287" y="188" on="1"/>
        <pt x="329" y="188" on="0"/>
        <pt x="407" y="145" on="0"/>
        <pt x="432" y="109" on="1"/>
        <pt x="329" y="40" on="1"/>
        <pt x="313" y="66" on="0"/>
        <pt x="287" y="66" on="1"/>
        <pt x="262" y="66" on="0"/>
        <pt x="234" y="33" on="0"/>
        <pt x="234" y="4" on="1"/>
        <pt x="234" y="-14" on="0"/>
        <pt x="252" y="-40" on="0"/>
        <pt x="294" y="-57" on="0"/>
        <pt x="363" y="-65" on="0"/>
        <pt x="413" y="-65" on="1"/>
        <pt x="600" y="-65" on="1"/>
        <pt x="629" y="-65" on="0"/>
        <pt x="675" y="-59" on="0"/>
        <pt x="696" y="-51" on="1"/>
        <pt x="637" y="2" on="0"/>
        <pt x="565" y="15" on="1"/>
        <pt x="583" y="141" on="1"/>
        <pt x="643" y="133" on="0"/>
        <pt x="745" y="88" on="0"/>
        <pt x="790" y="47" on="1"/>
        <pt x="810" y="107" on="0"/>
        <pt x="810" y="216" on="1"/>
        <pt x="810" y="702" on="1"/>
        <pt x="810" y="839" on="0"/>
        <pt x="751" y="987" on="0"/>
        <pt x="693" y="987" on="1"/>
        <pt x="642" y="987" on="0"/>
        <pt x="581" y="880" on="0"/>
        <pt x="573" y="780" on="1"/>
        <pt x="451" y="780" on="1"/>
        <pt x="442" y="880" on="0"/>
        <pt x="381" y="987" on="0"/>
        <pt x="330" y="987" on="1"/>
        <pt x="277" y="987" on="0"/>
        <pt x="218" y="851" on="0"/>
        <pt x="214" y="718" on="1"/>
        <pt x="62" y="741" on="1"/>
        <pt x="66" y="826" on="0"/>
        <pt x="109" y="964" on="0"/>
        <pt x="180" y="1062" on="0"/>
        <pt x="273" y="1116" on="0"/>
        <pt x="327" y="1116" on="1"/>
        <pt x="455" y="1116" on="0"/>
        <pt x="511" y="1013" on="1"/>
        <pt x="567" y="1116" on="0"/>
        <pt x="697" y="1116" on="1"/>
        <pt x="753" y="1116" on="0"/>
        <pt x="850" y="1059" on="0"/>
        <pt x="922" y="954" on="0"/>
        <pt x="963" y="808" on="0"/>
        <pt x="963" y="719" on="1"/>
        <pt x="963" y="230" on="1"/>
        <pt x="963" y="47" on="0"/>
        <pt x="879" y="-65" on="1"/>
        <pt x="892" y="-88" on="0"/>
        <pt x="914" y="-140" on="0"/>
        <pt x="923" y="-169" on="1"/>
      </contour>
    </TTGlyph>
    <TTGlyph name="glyph00171" xMin="65" yMin="225" xMax="1353" yMax="1116">
      <contour>
        <pt x="641" y="349" on="1"/>
        <pt x="599" y="293" on="0"/>
        <pt x="479" y="225" on="0"/>
        <pt x="401" y="225" on="1"/>
        <pt x="333" y="225" on="0"/>
        <pt x="211" y="296" on="0"/>
        <pt x="119" y="421" on="0"/>
        <pt x="65" y="593" on="0"/>
        <pt x="65" y="695" on="1"/>
        <pt x="65" y="789" on="0"/>
        <pt x="114" y="945" on="0"/>
        <pt x="199" y="1055" on="0"/>
        <pt x="315" y="1116" on="0"/>
        <pt x="383" y="1116" on="1"/>
        <pt x="432" y="1116" on="0"/>
        <pt x="519" y="1076" on="0"/>
        <pt x="600" y="998" on="0"/>
        <pt x="677" y="886" on="0"/>
        <pt x="717" y="814" on="1"/>
        <pt x="869" y="532" on="1"/>
        <pt x="897" y="480" on="0"/>
        <pt x="942" y="412" on="0"/>
        <pt x="980" y="371" on="0"/>
        <pt x="1015" y="354" on="0"/>
        <pt x="1034" y="354" on="1"/>
        <pt x="1105" y="354" on="0"/>
        <pt x="1193" y="510" on="0"/>
        <pt x="1193" y="656" on="1"/>
        <pt x="1193" y="734" on="0"/>
        <pt x="1169" y="856" on="0"/>
        <pt x="1123" y="942" on="0"/>
        <pt x="1057" y="987" on="0"/>
        <pt x="1015" y="987" on="1"/>
        <pt x="928" y="987" on="0"/>
        <pt x="872" y="908" on="1"/>
        <pt x="777" y="993" on="1"/>
        <pt x="819" y="1051" on="0"/>
        <pt x="943" y="1116" on="0"/>
        <pt x="1024" y="1116" on="1"/>
        <pt x="1093" y="1116" on="0"/>
        <pt x="1213" y="1040" on="0"/>
        <pt x="1302" y="910" on="0"/>
        <pt x="1353" y="738" on="0"/>
        <pt x="1353" y="643" on="1"/>
        <pt x="1353" y="550" on="0"/>
        <pt x="1304" y="396" on="0"/>
        <pt x="1218" y="286" on="0"/>
        <pt x="1102" y="225" on="0"/>
        <pt x="1035" y="225" on="1"/>
        <pt x="984" y="225" on="0"/>
        <pt x="898" y="263" on="0"/>
        <pt x="819" y="338" on="0"/>
        <pt x="743" y="451" on="0"/>
        <pt x="702" y="527" on="1"/>
        <pt x="550" y="809" on="1"/>
        <pt x="521" y="861" on="0"/>
        <pt x="475" y="930" on="0"/>
        <pt x="437" y="971" on="0"/>
        <pt x="402" y="987" on="0"/>
        <pt x="384" y="987" on="1"/>
        <pt x="347" y="987" on="0"/>
        <pt x="288" y="945" on="0"/>
        <pt x="246" y="867" on="0"/>
        <pt x="224" y="756" on="0"/>
        <pt x="224" y="686" on="1"/>
        <pt x="224" y="608" on="0"/>
        <pt x="249" y="485" on="0"/>
        <pt x="295" y="399" on="0"/>
        <pt x="361" y="354" on="0"/>
        <pt x="403" y="354" on="1"/>
        <pt x="490" y="354" on="0"/>
        <pt x="546" y="434" on="1"/>
      </contour>
    </TTGlyph>
    <TTGlyph name="glyph00172" xMin="15" yMin="-209" xMax="777" yMax="1116">
      <contour>
        <pt x="644" y="-209" on="1"/>
        <pt x="639" y="-195" on="0"/>
        <pt x="628" y="-168" on="0"/>
        <pt x="621" y="-154" on="1"/>
        <pt x="583" y="-175" on="0"/>
        <pt x="500" y="-194" on="0"/>
        <pt x="452" y="-194" on="1"/>
        <pt x="278" y="-194" on="1"/>
        <pt x="219" y="-194" on="0"/>
        <pt x="123" y="-166" on="0"/>
        <pt x="53" y="-115" on="0"/>
        <pt x="15" y="-41" on="0"/>
        <pt x="15" y="4" on="1"/>
        <pt x="15" y="44" on="0"/>
        <pt x="42" y="112" on="0"/>
        <pt x="92" y="161" on="0"/>
        <pt x="161" y="188" on="0"/>
        <pt x="203" y="188" on="1"/>
        <pt x="245" y="188" on="0"/>
        <pt x="322" y="145" on="0"/>
        <pt x="348" y="109" on="1"/>
        <pt x="245" y="40" on="1"/>
        <pt x="228" y="66" on="0"/>
        <pt x="203" y="66" on="1"/>
        <pt x="178" y="66" on="0"/>
        <pt x="149" y="33" on="0"/>
        <pt x="149" y="4" on="1"/>
        <pt x="149" y="-14" on="0"/>
        <pt x="168" y="-40" on="0"/>
        <pt x="210" y="-57" on="0"/>
        <pt x="278" y="-65" on="0"/>
        <pt x="328" y="-65" on="1"/>
        <pt x="425" y="-65" on="1"/>
        <pt x="462" y="-65" on="0"/>
        <pt x="520" y="-56" on="0"/>
        <pt x="543" y="-45" on="1"/>
        <pt x="518" y="-22" on="0"/>
        <pt x="457" y="8" on="0"/>
        <pt x="420" y="15" on="1"/>
        <pt x="435" y="142" on="1"/>
        <pt x="541" y="128" on="0"/>
        <pt x="622" y="67" on="1"/>
        <pt x="623" y="73" on="0"/>
        <pt x="623" y="87" on="0"/>
        <pt x="623" y="93" on="1"/>
        <pt x="623" y="133" on="0"/>
        <pt x="586" y="196" on="0"/>
        <pt x="517" y="240" on="0"/>
        <pt x="418" y="263" on="0"/>
        <pt x="356" y="263" on="1"/>
        <pt x="287" y="263" on="0"/>
        <pt x="162" y="232" on="0"/>
        <pt x="120" y="203" on="1"/>
        <pt x="42" y="297" on="1"/>
        <pt x="165" y="392" on="0"/>
        <pt x="337" y="392" on="1"/>
        <pt x="400" y="392" on="0"/>
        <pt x="501" y="434" on="0"/>
        <pt x="570" y="512" on="0"/>
        <pt x="607" y="622" on="0"/>
        <pt x="607" y="690" on="1"/>
        <pt x="607" y="759" on="0"/>
        <pt x="575" y="870" on="0"/>
        <pt x="514" y="946" on="0"/>
        <pt x="426" y="987" on="0"/>
        <pt x="371" y="987" on="1"/>
        <pt x="315" y="987" on="0"/>
        <pt x="209" y="927" on="0"/>
        <pt x="177" y="875" on="1"/>
        <pt x="55" y="947" on="1"/>
        <pt x="116" y="1028" on="0"/>
        <pt x="287" y="1116" on="0"/>
        <pt x="378" y="1116" on="1"/>
        <pt x="464" y="1116" on="0"/>
        <pt x="607" y="1058" on="0"/>
        <pt x="710" y="949" on="0"/>
        <pt x="767" y="790" on="0"/>
        <pt x="767" y="689" on="1"/>
        <pt x="767" y="579" on="0"/>
        <pt x="669" y="399" on="0"/>
        <pt x="588" y="340" on="1"/>
        <pt x="676" y="300" on="0"/>
        <pt x="769" y="170" on="0"/>
        <pt x="769" y="88" on="1"/>
        <pt x="769" y="4" on="0"/>
        <pt x="728" y="-58" on="1"/>
        <pt x="756" y="-106" on="0"/>
        <pt x="777" y="-169" on="1"/>
      </contour>
    </TTGlyph>
    <TTGlyph name="glyph00173" xMin="62" yMin="225" xMax="789" yMax="1116">
      <contour>
        <pt x="789" y="672" on="1"/>
        <pt x="789" y="568" on="0"/>
        <pt x="736" y="403" on="0"/>
        <pt x="639" y="287" on="0"/>
        <pt x="500" y="225" on="0"/>
        <pt x="414" y="225" on="1"/>
        <pt x="336" y="225" on="0"/>
        <pt x="206" y="297" on="0"/>
        <pt x="113" y="420" on="0"/>
        <pt x="62" y="586" on="0"/>
        <pt x="62" y="680" on="1"/>
        <pt x="62" y="779" on="0"/>
        <pt x="116" y="940" on="0"/>
        <pt x="214" y="1054" on="0"/>
        <pt x="350" y="1116" on="0"/>
        <pt x="432" y="1116" on="1"/>
        <pt x="513" y="1116" on="0"/>
        <pt x="645" y="1050" on="0"/>
        <pt x="738" y="933" on="0"/>
        <pt x="789" y="769" on="0"/>
      </contour>
      <contour>
        <pt x="221" y="672" on="1"/>
        <pt x="221" y="599" on="0"/>
        <pt x="248" y="481" on="0"/>
        <pt x="300" y="399" on="0"/>
        <pt x="376" y="354" on="0"/>
        <pt x="426" y="354" on="1"/>
        <pt x="524" y="354" on="0"/>
        <pt x="629" y="522" on="0"/>
        <pt x="629" y="672" on="1"/>
        <pt x="629" y="824" on="0"/>
        <pt x="523" y="987" on="0"/>
        <pt x="423" y="987" on="1"/>
        <pt x="326" y="987" on="0"/>
        <pt x="221" y="822" on="0"/>
      </contour>
    </TTGlyph>
    <TTGlyph name="glyph00174" xMin="62" yMin="228" xMax="875" yMax="1167">
      <contour>
        <pt x="872" y="1133" on="1"/>
        <pt x="857" y="1022" on="0"/>
        <pt x="804" y="926" on="1"/>
        <pt x="841" y="866" on="0"/>
        <pt x="875" y="736" on="0"/>
        <pt x="875" y="662" on="1"/>
        <pt x="875" y="519" on="0"/>
        <pt x="740" y="297" on="0"/>
        <pt x="611" y="228" on="1"/>
        <pt x="557" y="353" on="1"/>
        <pt x="630" y="384" on="0"/>
        <pt x="716" y="544" on="0"/>
        <pt x="716" y="679" on="1"/>
        <pt x="716" y="714" on="0"/>
        <pt x="708" y="781" on="0"/>
        <pt x="701" y="807" on="1"/>
        <pt x="614" y="734" on="0"/>
        <pt x="500" y="723" on="1"/>
        <pt x="481" y="849" on="1"/>
        <pt x="527" y="857" on="0"/>
        <pt x="600" y="895" on="0"/>
        <pt x="631" y="930" on="1"/>
        <pt x="600" y="959" on="0"/>
        <pt x="521" y="987" on="0"/>
        <pt x="469" y="987" on="1"/>
        <pt x="348" y="987" on="0"/>
        <pt x="221" y="827" on="0"/>
        <pt x="221" y="679" on="1"/>
        <pt x="221" y="544" on="0"/>
        <pt x="307" y="384" on="0"/>
        <pt x="380" y="353" on="1"/>
        <pt x="326" y="228" on="1"/>
        <pt x="193" y="299" on="0"/>
        <pt x="62" y="529" on="0"/>
        <pt x="62" y="672" on="1"/>
        <pt x="62" y="768" on="0"/>
        <pt x="125" y="931" on="0"/>
        <pt x="235" y="1049" on="0"/>
        <pt x="384" y="1116" on="0"/>
        <pt x="469" y="1116" on="1"/>
        <pt x="594" y="1116" on="0"/>
        <pt x="699" y="1040" on="1"/>
        <pt x="710" y="1069" on="0"/>
        <pt x="727" y="1133" on="0"/>
        <pt x="729" y="1167" on="1"/>
      </contour>
    </TTGlyph>
    <TTGlyph name="glyph00175" xMin="37" yMin="174" xMax="1372" yMax="1116">
      <contour>
        <pt x="1226" y="174" on="1"/>
        <pt x="1220" y="242" on="0"/>
        <pt x="1200" y="291" on="1"/>
        <pt x="1105" y="225" on="0"/>
        <pt x="978" y="225" on="1"/>
        <pt x="878" y="225" on="0"/>
        <pt x="713" y="285" on="0"/>
        <pt x="654" y="344" on="1"/>
        <pt x="596" y="283" on="0"/>
        <pt x="459" y="225" on="0"/>
        <pt x="377" y="225" on="1"/>
        <pt x="257" y="225" on="0"/>
        <pt x="85" y="342" on="0"/>
        <pt x="37" y="448" on="1"/>
        <pt x="185" y="495" on="1"/>
        <pt x="205" y="426" on="0"/>
        <pt x="308" y="354" on="0"/>
        <pt x="383" y="354" on="1"/>
        <pt x="434" y="354" on="0"/>
        <pt x="518" y="401" on="0"/>
        <pt x="578" y="487" on="0"/>
        <pt x="611" y="604" on="0"/>
        <pt x="611" y="675" on="1"/>
        <pt x="611" y="825" on="0"/>
        <pt x="486" y="987" on="0"/>
        <pt x="375" y="987" on="1"/>
        <pt x="318" y="987" on="0"/>
        <pt x="212" y="927" on="0"/>
        <pt x="180" y="875" on="1"/>
        <pt x="59" y="947" on="1"/>
        <pt x="119" y="1028" on="0"/>
        <pt x="290" y="1116" on="0"/>
        <pt x="381" y="1116" on="1"/>
        <pt x="470" y="1116" on="0"/>
        <pt x="614" y="1058" on="0"/>
        <pt x="715" y="946" on="0"/>
        <pt x="770" y="781" on="0"/>
        <pt x="770" y="673" on="1"/>
        <pt x="770" y="621" on="0"/>
        <pt x="754" y="523" on="0"/>
        <pt x="739" y="484" on="1"/>
        <pt x="751" y="458" on="0"/>
        <pt x="803" y="411" on="0"/>
        <pt x="869" y="375" on="0"/>
        <pt x="943" y="354" on="0"/>
        <pt x="977" y="354" on="1"/>
        <pt x="1068" y="354" on="0"/>
        <pt x="1126" y="412" on="1"/>
        <pt x="1064" y="477" on="0"/>
        <pt x="977" y="492" on="1"/>
        <pt x="996" y="619" on="1"/>
        <pt x="1055" y="612" on="0"/>
        <pt x="1153" y="572" on="0"/>
        <pt x="1195" y="537" on="1"/>
        <pt x="1205" y="569" on="0"/>
        <pt x="1213" y="642" on="0"/>
        <pt x="1213" y="683" on="1"/>
        <pt x="1213" y="755" on="0"/>
        <pt x="1181" y="868" on="0"/>
        <pt x="1123" y="946" on="0"/>
        <pt x="1041" y="987" on="0"/>
        <pt x="992" y="987" on="1"/>
        <pt x="951" y="987" on="0"/>
        <pt x="881" y="944" on="0"/>
        <pt x="858" y="908" on="1"/>
        <pt x="738" y="982" on="1"/>
        <pt x="790" y="1057" on="0"/>
        <pt x="928" y="1116" on="0"/>
        <pt x="1010" y="1116" on="1"/>
        <pt x="1086" y="1116" on="0"/>
        <pt x="1218" y="1055" on="0"/>
        <pt x="1316" y="942" on="0"/>
        <pt x="1372" y="781" on="0"/>
        <pt x="1372" y="681" on="1"/>
        <pt x="1372" y="600" on="0"/>
        <pt x="1340" y="465" on="0"/>
        <pt x="1305" y="406" on="1"/>
        <pt x="1329" y="363" on="0"/>
        <pt x="1361" y="263" on="0"/>
        <pt x="1367" y="209" on="1"/>
      </contour>
    </TTGlyph>
    <TTGlyph name="glyph00176" xMin="37" yMin="225" xMax="1372" yMax="1116">
      <contour>
        <pt x="59" y="947" on="1"/>
        <pt x="119" y="1028" on="0"/>
        <pt x="290" y="1116" on="0"/>
        <pt x="381" y="1116" on="1"/>
        <pt x="470" y="1116" on="0"/>
        <pt x="614" y="1058" on="0"/>
        <pt x="715" y="946" on="0"/>
        <pt x="770" y="781" on="0"/>
        <pt x="770" y="673" on="1"/>
        <pt x="770" y="621" on="0"/>
        <pt x="754" y="523" on="0"/>
        <pt x="739" y="484" on="1"/>
        <pt x="751" y="458" on="0"/>
        <pt x="803" y="411" on="0"/>
        <pt x="869" y="375" on="0"/>
        <pt x="943" y="354" on="0"/>
        <pt x="977" y="354" on="1"/>
        <pt x="1032" y="354" on="0"/>
        <pt x="1120" y="401" on="0"/>
        <pt x="1181" y="486" on="0"/>
        <pt x="1213" y="608" on="0"/>
        <pt x="1213" y="683" on="1"/>
        <pt x="1213" y="755" on="0"/>
        <pt x="1181" y="868" on="0"/>
        <pt x="1123" y="946" on="0"/>
        <pt x="1041" y="987" on="0"/>
        <pt x="992" y="987" on="1"/>
        <pt x="951" y="987" on="0"/>
        <pt x="881" y="944" on="0"/>
        <pt x="858" y="908" on="1"/>
        <pt x="738" y="982" on="1"/>
        <pt x="790" y="1057" on="0"/>
        <pt x="928" y="1116" on="0"/>
        <pt x="1010" y="1116" on="1"/>
        <pt x="1087" y="1116" on="0"/>
        <pt x="1220" y="1054" on="0"/>
        <pt x="1317" y="939" on="0"/>
        <pt x="1372" y="776" on="0"/>
        <pt x="1372" y="674" on="1"/>
        <pt x="1372" y="572" on="0"/>
        <pt x="1313" y="406" on="0"/>
        <pt x="1208" y="289" on="0"/>
        <pt x="1063" y="225" on="0"/>
        <pt x="978" y="225" on="1"/>
        <pt x="878" y="225" on="0"/>
        <pt x="713" y="285" on="0"/>
        <pt x="654" y="344" on="1"/>
        <pt x="596" y="283" on="0"/>
        <pt x="459" y="225" on="0"/>
        <pt x="377" y="225" on="1"/>
        <pt x="257" y="225" on="0"/>
        <pt x="85" y="342" on="0"/>
        <pt x="37" y="448" on="1"/>
        <pt x="185" y="495" on="1"/>
        <pt x="205" y="426" on="0"/>
        <pt x="308" y="354" on="0"/>
        <pt x="383" y="354" on="1"/>
        <pt x="434" y="354" on="0"/>
        <pt x="518" y="401" on="0"/>
        <pt x="578" y="487" on="0"/>
        <pt x="611" y="604" on="0"/>
        <pt x="611" y="675" on="1"/>
        <pt x="611" y="825" on="0"/>
        <pt x="486" y="987" on="0"/>
        <pt x="375" y="987" on="1"/>
        <pt x="318" y="987" on="0"/>
        <pt x="212" y="927" on="0"/>
        <pt x="180" y="875" on="1"/>
      </contour>
    </TTGlyph>
    <TTGlyph name="glyph00177" xMin="65" yMin="225" xMax="1353" yMax="1116">
      <contour>
        <pt x="546" y="908" on="1"/>
        <pt x="488" y="987" on="0"/>
        <pt x="403" y="987" on="1"/>
        <pt x="361" y="987" on="0"/>
        <pt x="295" y="941" on="0"/>
        <pt x="249" y="855" on="0"/>
        <pt x="224" y="732" on="0"/>
        <pt x="224" y="656" on="1"/>
        <pt x="224" y="587" on="0"/>
        <pt x="246" y="475" on="0"/>
        <pt x="287" y="396" on="0"/>
        <pt x="346" y="354" on="0"/>
        <pt x="384" y="354" on="1"/>
        <pt x="403" y="354" on="0"/>
        <pt x="438" y="369" on="0"/>
        <pt x="475" y="408" on="0"/>
        <pt x="520" y="478" on="0"/>
        <pt x="550" y="532" on="1"/>
        <pt x="702" y="814" on="1"/>
        <pt x="743" y="890" on="0"/>
        <pt x="820" y="1003" on="0"/>
        <pt x="901" y="1078" on="0"/>
        <pt x="990" y="1116" on="0"/>
        <pt x="1041" y="1116" on="1"/>
        <pt x="1109" y="1116" on="0"/>
        <pt x="1223" y="1052" on="0"/>
        <pt x="1306" y="938" on="0"/>
        <pt x="1353" y="781" on="0"/>
        <pt x="1353" y="687" on="1"/>
        <pt x="1353" y="585" on="0"/>
        <pt x="1297" y="416" on="0"/>
        <pt x="1203" y="293" on="0"/>
        <pt x="1082" y="225" on="0"/>
        <pt x="1018" y="225" on="1"/>
        <pt x="940" y="225" on="0"/>
        <pt x="818" y="292" on="0"/>
        <pt x="777" y="349" on="1"/>
        <pt x="872" y="434" on="1"/>
        <pt x="927" y="354" on="0"/>
        <pt x="1015" y="354" on="1"/>
        <pt x="1057" y="354" on="0"/>
        <pt x="1123" y="401" on="0"/>
        <pt x="1169" y="487" on="0"/>
        <pt x="1193" y="610" on="0"/>
        <pt x="1193" y="686" on="1"/>
        <pt x="1193" y="829" on="0"/>
        <pt x="1106" y="987" on="0"/>
        <pt x="1034" y="987" on="1"/>
        <pt x="1015" y="987" on="0"/>
        <pt x="981" y="973" on="0"/>
        <pt x="944" y="934" on="0"/>
        <pt x="899" y="864" on="0"/>
        <pt x="869" y="809" on="1"/>
        <pt x="717" y="527" on="1"/>
        <pt x="676" y="453" on="0"/>
        <pt x="597" y="340" on="0"/>
        <pt x="516" y="264" on="0"/>
        <pt x="428" y="225" on="0"/>
        <pt x="377" y="225" on="1"/>
        <pt x="308" y="225" on="0"/>
        <pt x="193" y="290" on="0"/>
        <pt x="111" y="404" on="0"/>
        <pt x="65" y="561" on="0"/>
        <pt x="65" y="654" on="1"/>
        <pt x="65" y="755" on="0"/>
        <pt x="121" y="925" on="0"/>
        <pt x="215" y="1048" on="0"/>
        <pt x="336" y="1116" on="0"/>
        <pt x="401" y="1116" on="1"/>
        <pt x="479" y="1116" on="0"/>
        <pt x="599" y="1049" on="0"/>
        <pt x="641" y="994" on="1"/>
      </contour>
    </TTGlyph>
    <TTGlyph name="glyph00178" xMin="62" yMin="-194" xMax="934" yMax="1116">
      <contour>
        <pt x="605" y="285" on="1"/>
        <pt x="587" y="273" on="0"/>
        <pt x="524" y="251" on="0"/>
        <pt x="453" y="235" on="0"/>
        <pt x="382" y="225" on="0"/>
        <pt x="354" y="225" on="1"/>
        <pt x="316" y="225" on="0"/>
        <pt x="248" y="236" on="0"/>
        <pt x="216" y="249" on="1"/>
        <pt x="216" y="216" on="1"/>
        <pt x="216" y="139" on="0"/>
        <pt x="236" y="33" on="0"/>
        <pt x="285" y="-35" on="0"/>
        <pt x="366" y="-65" on="0"/>
        <pt x="426" y="-65" on="1"/>
        <pt x="567" y="-65" on="1"/>
        <pt x="666" y="-65" on="0"/>
        <pt x="746" y="-31" on="0"/>
        <pt x="746" y="4" on="1"/>
        <pt x="746" y="33" on="0"/>
        <pt x="717" y="66" on="0"/>
        <pt x="693" y="66" on="1"/>
        <pt x="667" y="66" on="0"/>
        <pt x="651" y="40" on="1"/>
        <pt x="548" y="109" on="1"/>
        <pt x="572" y="145" on="0"/>
        <pt x="649" y="188" on="0"/>
        <pt x="693" y="188" on="1"/>
        <pt x="735" y="188" on="0"/>
        <pt x="804" y="161" on="0"/>
        <pt x="852" y="112" on="0"/>
        <pt x="879" y="44" on="0"/>
        <pt x="879" y="4" on="1"/>
        <pt x="879" y="-41" on="0"/>
        <pt x="841" y="-114" on="0"/>
        <pt x="772" y="-166" on="0"/>
        <pt x="675" y="-194" on="0"/>
        <pt x="617" y="-194" on="1"/>
        <pt x="409" y="-194" on="1"/>
        <pt x="330" y="-194" on="0"/>
        <pt x="202" y="-135" on="0"/>
        <pt x="111" y="-25" on="0"/>
        <pt x="62" y="132" on="0"/>
        <pt x="62" y="230" on="1"/>
        <pt x="62" y="486" on="1"/>
        <pt x="62" y="512" on="0"/>
        <pt x="83" y="565" on="0"/>
        <pt x="120" y="615" on="0"/>
        <pt x="171" y="659" on="0"/>
        <pt x="201" y="677" on="1"/>
        <pt x="137" y="706" on="0"/>
        <pt x="62" y="804" on="0"/>
        <pt x="62" y="861" on="1"/>
        <pt x="62" y="919" on="0"/>
        <pt x="123" y="1013" on="0"/>
        <pt x="230" y="1080" on="0"/>
        <pt x="373" y="1116" on="0"/>
        <pt x="456" y="1116" on="1"/>
        <pt x="565" y="1116" on="0"/>
        <pt x="742" y="1045" on="0"/>
        <pt x="867" y="917" on="0"/>
        <pt x="934" y="739" on="0"/>
        <pt x="934" y="632" on="1"/>
        <pt x="934" y="579" on="0"/>
        <pt x="922" y="464" on="0"/>
        <pt x="900" y="355" on="0"/>
        <pt x="871" y="257" on="0"/>
        <pt x="855" y="221" on="1"/>
        <pt x="728" y="278" on="1"/>
        <pt x="742" y="329" on="0"/>
        <pt x="760" y="410" on="0"/>
        <pt x="771" y="489" on="0"/>
        <pt x="775" y="574" on="0"/>
        <pt x="775" y="629" on="1"/>
        <pt x="775" y="713" on="0"/>
        <pt x="731" y="846" on="0"/>
        <pt x="648" y="938" on="0"/>
        <pt x="528" y="987" on="0"/>
        <pt x="451" y="987" on="1"/>
        <pt x="397" y="987" on="0"/>
        <pt x="311" y="967" on="0"/>
        <pt x="253" y="932" on="0"/>
        <pt x="222" y="885" on="0"/>
        <pt x="222" y="859" on="1"/>
        <pt x="222" y="806" on="0"/>
        <pt x="334" y="736" on="0"/>
        <pt x="437" y="725" on="1"/>
        <pt x="437" y="630" on="1"/>
        <pt x="334" y="621" on="0"/>
        <pt x="222" y="546" on="0"/>
        <pt x="222" y="486" on="1"/>
        <pt x="222" y="422" on="0"/>
        <pt x="301" y="354" on="0"/>
        <pt x="367" y="354" on="1"/>
        <pt x="386" y="354" on="0"/>
        <pt x="436" y="361" on="0"/>
        <pt x="487" y="373" on="0"/>
        <pt x="534" y="390" on="0"/>
        <pt x="549" y="401" on="1"/>
      </contour>
    </TTGlyph>
    <TTGlyph name="glyph00179" xMin="65" yMin="200" xMax="1332" yMax="1116">
      <contour>
        <pt x="1190" y="200" on="1"/>
        <pt x="1187" y="234" on="0"/>
        <pt x="1180" y="294" on="0"/>
        <pt x="1174" y="318" on="1"/>
        <pt x="1069" y="225" on="0"/>
        <pt x="934" y="225" on="1"/>
        <pt x="846" y="225" on="0"/>
        <pt x="718" y="275" on="0"/>
        <pt x="681" y="323" on="1"/>
        <pt x="621" y="278" on="0"/>
        <pt x="465" y="225" on="0"/>
        <pt x="381" y="225" on="1"/>
        <pt x="310" y="225" on="0"/>
        <pt x="193" y="260" on="0"/>
        <pt x="110" y="326" on="0"/>
        <pt x="65" y="423" on="0"/>
        <pt x="65" y="486" on="1"/>
        <pt x="65" y="512" on="0"/>
        <pt x="86" y="565" on="0"/>
        <pt x="123" y="615" on="0"/>
        <pt x="174" y="659" on="0"/>
        <pt x="204" y="677" on="1"/>
        <pt x="139" y="706" on="0"/>
        <pt x="65" y="804" on="0"/>
        <pt x="65" y="861" on="1"/>
        <pt x="65" y="919" on="0"/>
        <pt x="120" y="1013" on="0"/>
        <pt x="219" y="1080" on="0"/>
        <pt x="355" y="1116" on="0"/>
        <pt x="435" y="1116" on="1"/>
        <pt x="520" y="1116" on="0"/>
        <pt x="657" y="1081" on="0"/>
        <pt x="712" y="1046" on="1"/>
        <pt x="760" y="1078" on="0"/>
        <pt x="878" y="1116" on="0"/>
        <pt x="940" y="1116" on="1"/>
        <pt x="1030" y="1116" on="0"/>
        <pt x="1175" y="1056" on="0"/>
        <pt x="1277" y="948" on="0"/>
        <pt x="1332" y="796" on="0"/>
        <pt x="1332" y="703" on="1"/>
        <pt x="1332" y="633" on="0"/>
        <pt x="1303" y="507" on="0"/>
        <pt x="1272" y="447" on="1"/>
        <pt x="1294" y="401" on="0"/>
        <pt x="1323" y="292" on="0"/>
        <pt x="1332" y="227" on="1"/>
      </contour>
      <contour>
        <pt x="708" y="887" on="1"/>
        <pt x="669" y="918" on="0"/>
        <pt x="598" y="957" on="0"/>
        <pt x="531" y="979" on="0"/>
        <pt x="468" y="987" on="0"/>
        <pt x="439" y="987" on="1"/>
        <pt x="339" y="987" on="0"/>
        <pt x="224" y="921" on="0"/>
        <pt x="224" y="859" on="1"/>
        <pt x="224" y="806" on="0"/>
        <pt x="336" y="736" on="0"/>
        <pt x="439" y="725" on="1"/>
        <pt x="439" y="630" on="1"/>
        <pt x="336" y="621" on="0"/>
        <pt x="224" y="546" on="0"/>
        <pt x="224" y="486" on="1"/>
        <pt x="224" y="416" on="0"/>
        <pt x="315" y="354" on="0"/>
        <pt x="407" y="354" on="1"/>
        <pt x="470" y="354" on="0"/>
        <pt x="595" y="407" on="0"/>
        <pt x="643" y="452" on="1"/>
        <pt x="648" y="498" on="0"/>
        <pt x="691" y="576" on="0"/>
        <pt x="761" y="633" on="0"/>
        <pt x="857" y="664" on="0"/>
        <pt x="915" y="664" on="1"/>
        <pt x="1065" y="664" on="0"/>
        <pt x="1165" y="583" on="1"/>
        <pt x="1169" y="609" on="0"/>
        <pt x="1173" y="664" on="0"/>
        <pt x="1173" y="695" on="1"/>
        <pt x="1173" y="836" on="0"/>
        <pt x="1051" y="987" on="0"/>
        <pt x="927" y="987" on="1"/>
        <pt x="866" y="987" on="0"/>
        <pt x="754" y="947" on="0"/>
      </contour>
      <contour>
        <pt x="934" y="536" on="1"/>
        <pt x="864" y="536" on="0"/>
        <pt x="795" y="484" on="0"/>
        <pt x="795" y="442" on="1"/>
        <pt x="795" y="400" on="0"/>
        <pt x="866" y="354" on="0"/>
        <pt x="941" y="354" on="1"/>
        <pt x="998" y="354" on="0"/>
        <pt x="1089" y="403" on="0"/>
        <pt x="1115" y="447" on="1"/>
        <pt x="1081" y="492" on="0"/>
        <pt x="990" y="536" on="0"/>
      </contour>
    </TTGlyph>
    <TTGlyph name="glyph00180" xMin="65" yMin="-194" xMax="1353" yMax="1116">
      <contour>
        <pt x="764" y="40" on="1"/>
        <pt x="748" y="66" on="0"/>
        <pt x="722" y="66" on="1"/>
        <pt x="697" y="66" on="0"/>
        <pt x="669" y="33" on="0"/>
        <pt x="669" y="4" on="1"/>
        <pt x="669" y="-14" on="0"/>
        <pt x="687" y="-40" on="0"/>
        <pt x="729" y="-57" on="0"/>
        <pt x="798" y="-65" on="0"/>
        <pt x="849" y="-65" on="1"/>
        <pt x="989" y="-65" on="1"/>
        <pt x="1047" y="-65" on="0"/>
        <pt x="1128" y="-35" on="0"/>
        <pt x="1177" y="31" on="0"/>
        <pt x="1199" y="138" on="0"/>
        <pt x="1199" y="216" on="1"/>
        <pt x="1199" y="299" on="1"/>
        <pt x="1116" y="225" on="0"/>
        <pt x="1018" y="225" on="1"/>
        <pt x="940" y="225" on="0"/>
        <pt x="818" y="292" on="0"/>
        <pt x="777" y="349" on="1"/>
        <pt x="872" y="434" on="1"/>
        <pt x="927" y="354" on="0"/>
        <pt x="1015" y="354" on="1"/>
        <pt x="1057" y="354" on="0"/>
        <pt x="1123" y="401" on="0"/>
        <pt x="1169" y="487" on="0"/>
        <pt x="1193" y="610" on="0"/>
        <pt x="1193" y="686" on="1"/>
        <pt x="1193" y="829" on="0"/>
        <pt x="1106" y="987" on="0"/>
        <pt x="1034" y="987" on="1"/>
        <pt x="1015" y="987" on="0"/>
        <pt x="981" y="973" on="0"/>
        <pt x="944" y="934" on="0"/>
        <pt x="899" y="864" on="0"/>
        <pt x="869" y="809" on="1"/>
        <pt x="717" y="527" on="1"/>
        <pt x="676" y="453" on="0"/>
        <pt x="597" y="340" on="0"/>
        <pt x="516" y="264" on="0"/>
        <pt x="428" y="225" on="0"/>
        <pt x="377" y="225" on="1"/>
        <pt x="308" y="225" on="0"/>
        <pt x="193" y="290" on="0"/>
        <pt x="111" y="404" on="0"/>
        <pt x="65" y="561" on="0"/>
        <pt x="65" y="654" on="1"/>
        <pt x="65" y="755" on="0"/>
        <pt x="121" y="925" on="0"/>
        <pt x="215" y="1048" on="0"/>
        <pt x="336" y="1116" on="0"/>
        <pt x="401" y="1116" on="1"/>
        <pt x="478" y="1116" on="0"/>
        <pt x="599" y="1048" on="0"/>
        <pt x="641" y="993" on="1"/>
        <pt x="546" y="908" on="1"/>
        <pt x="488" y="987" on="0"/>
        <pt x="403" y="987" on="1"/>
        <pt x="361" y="987" on="0"/>
        <pt x="295" y="941" on="0"/>
        <pt x="249" y="855" on="0"/>
        <pt x="224" y="732" on="0"/>
        <pt x="224" y="656" on="1"/>
        <pt x="224" y="587" on="0"/>
        <pt x="246" y="475" on="0"/>
        <pt x="287" y="396" on="0"/>
        <pt x="346" y="354" on="0"/>
        <pt x="384" y="354" on="1"/>
        <pt x="403" y="354" on="0"/>
        <pt x="438" y="369" on="0"/>
        <pt x="475" y="408" on="0"/>
        <pt x="520" y="478" on="0"/>
        <pt x="550" y="532" on="1"/>
        <pt x="702" y="814" on="1"/>
        <pt x="743" y="890" on="0"/>
        <pt x="820" y="1003" on="0"/>
        <pt x="901" y="1078" on="0"/>
        <pt x="990" y="1116" on="0"/>
        <pt x="1041" y="1116" on="1"/>
        <pt x="1108" y="1116" on="0"/>
        <pt x="1223" y="1052" on="0"/>
        <pt x="1306" y="938" on="0"/>
        <pt x="1353" y="781" on="0"/>
        <pt x="1353" y="687" on="1"/>
        <pt x="1352" y="230" on="1"/>
        <pt x="1352" y="133" on="0"/>
        <pt x="1303" y="-24" on="0"/>
        <pt x="1213" y="-134" on="0"/>
        <pt x="1084" y="-194" on="0"/>
        <pt x="1005" y="-194" on="1"/>
        <pt x="798" y="-194" on="1"/>
        <pt x="739" y="-194" on="0"/>
        <pt x="642" y="-166" on="0"/>
        <pt x="573" y="-115" on="0"/>
        <pt x="535" y="-41" on="0"/>
        <pt x="535" y="4" on="1"/>
        <pt x="535" y="44" on="0"/>
        <pt x="562" y="112" on="0"/>
        <pt x="611" y="161" on="0"/>
        <pt x="680" y="188" on="0"/>
        <pt x="722" y="188" on="1"/>
        <pt x="764" y="188" on="0"/>
        <pt x="842" y="145" on="0"/>
        <pt x="867" y="109" on="1"/>
      </contour>
    </TTGlyph>
    <TTGlyph name="glyph00181" xMin="-1188" yMin="-580" xMax="-150" yMax="122">
      <contour>
        <pt x="-503" y="-452" on="1"/>
        <pt x="-472" y="-464" on="0"/>
        <pt x="-444" y="-464" on="1"/>
        <pt x="-408" y="-464" on="0"/>
        <pt x="-349" y="-429" on="0"/>
        <pt x="-309" y="-365" on="0"/>
        <pt x="-287" y="-275" on="0"/>
        <pt x="-287" y="-220" on="1"/>
        <pt x="-287" y="-113" on="0"/>
        <pt x="-369" y="6" on="0"/>
        <pt x="-444" y="6" on="1"/>
        <pt x="-501" y="6" on="0"/>
        <pt x="-572" y="-83" on="0"/>
        <pt x="-579" y="-158" on="1"/>
        <pt x="-575" y="-175" on="0"/>
        <pt x="-572" y="-215" on="0"/>
        <pt x="-572" y="-235" on="1"/>
        <pt x="-572" y="-347" on="0"/>
        <pt x="-661" y="-523" on="0"/>
        <pt x="-765" y="-580" on="1"/>
        <pt x="-814" y="-468" on="1"/>
        <pt x="-757" y="-444" on="0"/>
        <pt x="-710" y="-324" on="0"/>
        <pt x="-710" y="-222" on="1"/>
        <pt x="-710" y="6" on="0"/>
        <pt x="-880" y="6" on="1"/>
        <pt x="-1050" y="6" on="0"/>
        <pt x="-1050" y="-222" on="1"/>
        <pt x="-1050" y="-324" on="0"/>
        <pt x="-1003" y="-444" on="0"/>
        <pt x="-946" y="-468" on="1"/>
        <pt x="-995" y="-580" on="1"/>
        <pt x="-1049" y="-551" on="0"/>
        <pt x="-1122" y="-476" on="0"/>
        <pt x="-1168" y="-386" on="0"/>
        <pt x="-1188" y="-283" on="0"/>
        <pt x="-1188" y="-227" on="1"/>
        <pt x="-1188" y="-150" on="0"/>
        <pt x="-1141" y="-21" on="0"/>
        <pt x="-1058" y="71" on="0"/>
        <pt x="-946" y="122" on="0"/>
        <pt x="-880" y="122" on="1"/>
        <pt x="-808" y="122" on="0"/>
        <pt x="-700" y="73" on="0"/>
        <pt x="-654" y="13" on="1"/>
        <pt x="-638" y="36" on="0"/>
        <pt x="-589" y="76" on="0"/>
        <pt x="-533" y="105" on="0"/>
        <pt x="-474" y="122" on="0"/>
        <pt x="-446" y="122" on="1"/>
        <pt x="-380" y="122" on="0"/>
        <pt x="-271" y="76" on="0"/>
        <pt x="-193" y="-11" on="0"/>
        <pt x="-150" y="-137" on="0"/>
        <pt x="-150" y="-218" on="1"/>
        <pt x="-150" y="-303" on="0"/>
        <pt x="-193" y="-437" on="0"/>
        <pt x="-269" y="-530" on="0"/>
        <pt x="-376" y="-579" on="0"/>
        <pt x="-440" y="-579" on="1"/>
        <pt x="-502" y="-579" on="0"/>
        <pt x="-565" y="-551" on="1"/>
      </contour>
    </TTGlyph>
    <TTGlyph name="glyph00182" xMin="-718" yMin="-600" xMax="-150" yMax="110">
      <contour>
        <pt x="-277" y="-600" on="1"/>
        <pt x="-279" y="-573" on="0"/>
        <pt x="-281" y="-544" on="0"/>
        <pt x="-285" y="-526" on="1"/>
        <pt x="-363" y="-591" on="0"/>
        <pt x="-464" y="-591" on="1"/>
        <pt x="-517" y="-591" on="0"/>
        <pt x="-602" y="-566" on="0"/>
        <pt x="-662" y="-521" on="0"/>
        <pt x="-694" y="-460" on="0"/>
        <pt x="-694" y="-424" on="1"/>
        <pt x="-694" y="-384" on="0"/>
        <pt x="-663" y="-316" on="0"/>
        <pt x="-606" y="-266" on="0"/>
        <pt x="-527" y="-238" on="0"/>
        <pt x="-478" y="-238" on="1"/>
        <pt x="-421" y="-238" on="0"/>
        <pt x="-332" y="-265" on="0"/>
        <pt x="-293" y="-294" on="1"/>
        <pt x="-291" y="-277" on="0"/>
        <pt x="-288" y="-241" on="0"/>
        <pt x="-288" y="-222" on="1"/>
        <pt x="-288" y="-118" on="0"/>
        <pt x="-380" y="-6" on="0"/>
        <pt x="-471" y="-6" on="1"/>
        <pt x="-511" y="-6" on="0"/>
        <pt x="-590" y="-53" on="0"/>
        <pt x="-616" y="-95" on="1"/>
        <pt x="-718" y="-34" on="1"/>
        <pt x="-698" y="-2" on="0"/>
        <pt x="-641" y="51" on="0"/>
        <pt x="-574" y="89" on="0"/>
        <pt x="-498" y="110" on="0"/>
        <pt x="-459" y="110" on="1"/>
        <pt x="-388" y="110" on="0"/>
        <pt x="-274" y="62" on="0"/>
        <pt x="-193" y="-24" on="0"/>
        <pt x="-150" y="-144" on="0"/>
        <pt x="-150" y="-216" on="1"/>
        <pt x="-150" y="-270" on="0"/>
        <pt x="-172" y="-367" on="0"/>
        <pt x="-195" y="-413" on="1"/>
        <pt x="-179" y="-447" on="0"/>
        <pt x="-159" y="-528" on="0"/>
        <pt x="-152" y="-582" on="1"/>
      </contour>
      <contour>
        <pt x="-464" y="-352" on="1"/>
        <pt x="-515" y="-352" on="0"/>
        <pt x="-563" y="-387" on="0"/>
        <pt x="-563" y="-416" on="1"/>
        <pt x="-563" y="-445" on="0"/>
        <pt x="-513" y="-476" on="0"/>
        <pt x="-458" y="-476" on="1"/>
        <pt x="-376" y="-476" on="0"/>
        <pt x="-334" y="-414" on="1"/>
        <pt x="-360" y="-384" on="0"/>
        <pt x="-426" y="-352" on="0"/>
      </contour>
    </TTGlyph>
    <TTGlyph name="glyph00183" xMin="-708" yMin="-600" xMax="-150" yMax="211">
      <contour>
        <pt x="-531" y="159" on="1"/>
        <pt x="-546" y="150" on="0"/>
        <pt x="-568" y="111" on="0"/>
        <pt x="-584" y="58" on="0"/>
        <pt x="-594" y="-2" on="0"/>
        <pt x="-597" y="-30" on="1"/>
        <pt x="-582" y="-12" on="0"/>
        <pt x="-540" y="12" on="0"/>
        <pt x="-494" y="27" on="0"/>
        <pt x="-449" y="33" on="0"/>
        <pt x="-431" y="33" on="1"/>
        <pt x="-378" y="33" on="0"/>
        <pt x="-277" y="2" on="0"/>
        <pt x="-198" y="-63" on="0"/>
        <pt x="-150" y="-165" on="0"/>
        <pt x="-150" y="-236" on="1"/>
        <pt x="-150" y="-263" on="0"/>
        <pt x="-155" y="-308" on="0"/>
        <pt x="-166" y="-349" on="0"/>
        <pt x="-182" y="-390" on="0"/>
        <pt x="-194" y="-413" on="1"/>
        <pt x="-178" y="-447" on="0"/>
        <pt x="-157" y="-528" on="0"/>
        <pt x="-150" y="-582" on="1"/>
        <pt x="-276" y="-600" on="1"/>
        <pt x="-278" y="-573" on="0"/>
        <pt x="-280" y="-544" on="0"/>
        <pt x="-284" y="-526" on="1"/>
        <pt x="-362" y="-591" on="0"/>
        <pt x="-463" y="-591" on="1"/>
        <pt x="-516" y="-591" on="0"/>
        <pt x="-601" y="-566" on="0"/>
        <pt x="-661" y="-521" on="0"/>
        <pt x="-693" y="-460" on="0"/>
        <pt x="-693" y="-424" on="1"/>
        <pt x="-693" y="-384" on="0"/>
        <pt x="-662" y="-316" on="0"/>
        <pt x="-605" y="-266" on="0"/>
        <pt x="-526" y="-238" on="0"/>
        <pt x="-477" y="-238" on="1"/>
        <pt x="-420" y="-238" on="0"/>
        <pt x="-331" y="-265" on="0"/>
        <pt x="-292" y="-294" on="1"/>
        <pt x="-290" y="-277" on="0"/>
        <pt x="-287" y="-241" on="0"/>
        <pt x="-287" y="-222" on="1"/>
        <pt x="-287" y="-195" on="0"/>
        <pt x="-303" y="-145" on="0"/>
        <pt x="-341" y="-106" on="0"/>
        <pt x="-402" y="-82" on="0"/>
        <pt x="-448" y="-82" on="1"/>
        <pt x="-509" y="-82" on="0"/>
        <pt x="-576" y="-130" on="0"/>
        <pt x="-587" y="-168" on="1"/>
        <pt x="-708" y="-157" on="1"/>
        <pt x="-707" y="-81" on="0"/>
        <pt x="-690" y="36" on="0"/>
        <pt x="-658" y="124" on="0"/>
        <pt x="-613" y="188" on="0"/>
        <pt x="-583" y="211" on="1"/>
      </contour>
      <contour>
        <pt x="-463" y="-352" on="1"/>
        <pt x="-514" y="-352" on="0"/>
        <pt x="-562" y="-387" on="0"/>
        <pt x="-562" y="-416" on="1"/>
        <pt x="-562" y="-445" on="0"/>
        <pt x="-512" y="-476" on="0"/>
        <pt x="-457" y="-476" on="1"/>
        <pt x="-375" y="-476" on="0"/>
        <pt x="-333" y="-414" on="1"/>
        <pt x="-359" y="-384" on="0"/>
        <pt x="-425" y="-352" on="0"/>
      </contour>
    </TTGlyph>
    <TTGlyph name="glyph00184" xMin="-790" yMin="-592" xMax="-150" yMax="110">
      <contour>
        <pt x="-576" y="-592" on="1"/>
        <pt x="-683" y="-534" on="0"/>
        <pt x="-790" y="-351" on="0"/>
        <pt x="-790" y="-239" on="1"/>
        <pt x="-790" y="-164" on="0"/>
        <pt x="-740" y="-36" on="0"/>
        <pt x="-653" y="57" on="0"/>
        <pt x="-536" y="110" on="0"/>
        <pt x="-469" y="110" on="1"/>
        <pt x="-404" y="110" on="0"/>
        <pt x="-288" y="57" on="0"/>
        <pt x="-201" y="-38" on="0"/>
        <pt x="-150" y="-169" on="0"/>
        <pt x="-150" y="-247" on="1"/>
        <pt x="-150" y="-359" on="0"/>
        <pt x="-259" y="-535" on="0"/>
        <pt x="-362" y="-592" on="1"/>
        <pt x="-412" y="-480" on="1"/>
        <pt x="-355" y="-456" on="0"/>
        <pt x="-288" y="-336" on="0"/>
        <pt x="-288" y="-234" on="1"/>
        <pt x="-288" y="-125" on="0"/>
        <pt x="-380" y="-6" on="0"/>
        <pt x="-469" y="-6" on="1"/>
        <pt x="-559" y="-6" on="0"/>
        <pt x="-652" y="-125" on="0"/>
        <pt x="-652" y="-234" on="1"/>
        <pt x="-652" y="-336" on="0"/>
        <pt x="-585" y="-456" on="0"/>
        <pt x="-528" y="-480" on="1"/>
      </contour>
    </TTGlyph>
    <TTGlyph name="glyph00185" xMin="-769" yMin="-600" xMax="-150" yMax="110">
      <contour>
        <pt x="-302" y="-48" on="1"/>
        <pt x="-331" y="-27" on="0"/>
        <pt x="-401" y="-5" on="0"/>
        <pt x="-430" y="-5" on="1"/>
        <pt x="-517" y="-5" on="0"/>
        <pt x="-613" y="-87" on="0"/>
        <pt x="-631" y="-155" on="1"/>
        <pt x="-616" y="-138" on="0"/>
        <pt x="-572" y="-114" on="0"/>
        <pt x="-523" y="-98" on="0"/>
        <pt x="-472" y="-90" on="0"/>
        <pt x="-449" y="-90" on="1"/>
        <pt x="-371" y="-90" on="0"/>
        <pt x="-259" y="-130" on="0"/>
        <pt x="-185" y="-198" on="0"/>
        <pt x="-150" y="-290" on="0"/>
        <pt x="-150" y="-341" on="1"/>
        <pt x="-150" y="-372" on="0"/>
        <pt x="-168" y="-440" on="0"/>
        <pt x="-210" y="-508" on="0"/>
        <pt x="-279" y="-573" on="0"/>
        <pt x="-330" y="-600" on="1"/>
        <pt x="-378" y="-485" on="1"/>
        <pt x="-350" y="-473" on="0"/>
        <pt x="-314" y="-438" on="0"/>
        <pt x="-295" y="-398" on="0"/>
        <pt x="-288" y="-357" on="0"/>
        <pt x="-288" y="-339" on="1"/>
        <pt x="-288" y="-316" on="0"/>
        <pt x="-304" y="-269" on="0"/>
        <pt x="-344" y="-230" on="0"/>
        <pt x="-413" y="-205" on="0"/>
        <pt x="-466" y="-205" on="1"/>
        <pt x="-512" y="-205" on="0"/>
        <pt x="-574" y="-232" on="0"/>
        <pt x="-611" y="-271" on="0"/>
        <pt x="-627" y="-313" on="0"/>
        <pt x="-627" y="-328" on="1"/>
        <pt x="-627" y="-348" on="0"/>
        <pt x="-621" y="-393" on="0"/>
        <pt x="-602" y="-439" on="0"/>
        <pt x="-567" y="-483" on="0"/>
        <pt x="-539" y="-502" on="1"/>
        <pt x="-595" y="-600" on="1"/>
        <pt x="-651" y="-573" on="0"/>
        <pt x="-720" y="-491" on="0"/>
        <pt x="-757" y="-402" on="0"/>
        <pt x="-769" y="-318" on="0"/>
        <pt x="-769" y="-288" on="1"/>
        <pt x="-769" y="-177" on="0"/>
        <pt x="-716" y="-25" on="0"/>
        <pt x="-626" y="69" on="0"/>
        <pt x="-508" y="110" on="0"/>
        <pt x="-443" y="110" on="1"/>
        <pt x="-389" y="110" on="0"/>
        <pt x="-266" y="80" on="0"/>
        <pt x="-215" y="47" on="1"/>
      </contour>
    </TTGlyph>
    <TTGlyph name="glyph00186" xMin="-1346" yMin="-591" xMax="-150" yMax="115">
      <contour>
        <pt x="-905" y="-337" on="1"/>
        <pt x="-898" y="-409" on="0"/>
        <pt x="-863" y="-476" on="0"/>
        <pt x="-834" y="-476" on="1"/>
        <pt x="-796" y="-476" on="0"/>
        <pt x="-753" y="-356" on="0"/>
        <pt x="-753" y="-249" on="1"/>
        <pt x="-753" y="-159" on="0"/>
        <pt x="-817" y="-31" on="0"/>
        <pt x="-888" y="14" on="1"/>
        <pt x="-823" y="115" on="1"/>
        <pt x="-721" y="61" on="0"/>
        <pt x="-615" y="-124" on="0"/>
        <pt x="-615" y="-249" on="1"/>
        <pt x="-615" y="-330" on="0"/>
        <pt x="-631" y="-385" on="1"/>
        <pt x="-619" y="-404" on="0"/>
        <pt x="-579" y="-437" on="0"/>
        <pt x="-531" y="-462" on="0"/>
        <pt x="-479" y="-476" on="0"/>
        <pt x="-455" y="-476" on="1"/>
        <pt x="-375" y="-476" on="0"/>
        <pt x="-288" y="-346" on="0"/>
        <pt x="-288" y="-231" on="1"/>
        <pt x="-288" y="-124" on="0"/>
        <pt x="-373" y="-6" on="0"/>
        <pt x="-445" y="-6" on="1"/>
        <pt x="-465" y="-6" on="0"/>
        <pt x="-504" y="-24" on="0"/>
        <pt x="-521" y="-40" on="1"/>
        <pt x="-615" y="40" on="1"/>
        <pt x="-576" y="78" on="0"/>
        <pt x="-484" y="110" on="0"/>
        <pt x="-431" y="110" on="1"/>
        <pt x="-370" y="110" on="0"/>
        <pt x="-267" y="61" on="0"/>
        <pt x="-192" y="-30" on="0"/>
        <pt x="-150" y="-159" on="0"/>
        <pt x="-150" y="-240" on="1"/>
        <pt x="-150" y="-321" on="0"/>
        <pt x="-196" y="-451" on="0"/>
        <pt x="-277" y="-542" on="0"/>
        <pt x="-388" y="-591" on="0"/>
        <pt x="-454" y="-591" on="1"/>
        <pt x="-599" y="-591" on="0"/>
        <pt x="-687" y="-510" on="1"/>
        <pt x="-713" y="-545" on="0"/>
        <pt x="-790" y="-591" on="0"/>
        <pt x="-832" y="-591" on="1"/>
        <pt x="-877" y="-591" on="0"/>
        <pt x="-941" y="-563" on="0"/>
        <pt x="-961" y="-531" on="1"/>
        <pt x="-982" y="-563" on="0"/>
        <pt x="-1043" y="-591" on="0"/>
        <pt x="-1091" y="-591" on="1"/>
        <pt x="-1136" y="-591" on="0"/>
        <pt x="-1213" y="-560" on="0"/>
        <pt x="-1268" y="-505" on="0"/>
        <pt x="-1300" y="-428" on="0"/>
        <pt x="-1300" y="-382" on="1"/>
        <pt x="-1300" y="-342" on="0"/>
        <pt x="-1252" y="-264" on="0"/>
        <pt x="-1209" y="-223" on="1"/>
        <pt x="-1130" y="-147" on="0"/>
        <pt x="-1130" y="-79" on="1"/>
        <pt x="-1130" y="0" on="0"/>
        <pt x="-1195" y="0" on="1"/>
        <pt x="-1224" y="0" on="0"/>
        <pt x="-1224" y="-19" on="1"/>
        <pt x="-1224" y="-25" on="0"/>
        <pt x="-1218" y="-37" on="0"/>
        <pt x="-1213" y="-39" on="1"/>
        <pt x="-1239" y="-148" on="1"/>
        <pt x="-1261" y="-145" on="0"/>
        <pt x="-1300" y="-124" on="0"/>
        <pt x="-1329" y="-91" on="0"/>
        <pt x="-1346" y="-49" on="0"/>
        <pt x="-1346" y="-27" on="1"/>
        <pt x="-1346" y="3" on="0"/>
        <pt x="-1322" y="53" on="0"/>
        <pt x="-1281" y="89" on="0"/>
        <pt x="-1226" y="110" on="0"/>
        <pt x="-1194" y="110" on="1"/>
        <pt x="-1148" y="110" on="0"/>
        <pt x="-1075" y="82" on="0"/>
        <pt x="-1025" y="34" on="0"/>
        <pt x="-998" y="-32" on="0"/>
        <pt x="-998" y="-70" on="1"/>
        <pt x="-998" y="-118" on="0"/>
        <pt x="-1042" y="-203" on="0"/>
        <pt x="-1084" y="-246" on="1"/>
        <pt x="-1126" y="-289" on="0"/>
        <pt x="-1162" y="-347" on="0"/>
        <pt x="-1162" y="-376" on="1"/>
        <pt x="-1162" y="-400" on="0"/>
        <pt x="-1149" y="-437" on="0"/>
        <pt x="-1128" y="-463" on="0"/>
        <pt x="-1102" y="-476" on="0"/>
        <pt x="-1089" y="-476" on="1"/>
        <pt x="-1032" y="-476" on="0"/>
        <pt x="-1016" y="-337" on="1"/>
      </contour>
    </TTGlyph>
    <TTGlyph name="glyph00187" xMin="-837" yMin="-596" xMax="-150" yMax="110">
      <contour>
        <pt x="-401" y="-540" on="1"/>
        <pt x="-417" y="-550" on="0"/>
        <pt x="-468" y="-569" on="0"/>
        <pt x="-525" y="-583" on="0"/>
        <pt x="-582" y="-591" on="0"/>
        <pt x="-604" y="-591" on="1"/>
        <pt x="-656" y="-591" on="0"/>
        <pt x="-742" y="-562" on="0"/>
        <pt x="-803" y="-507" on="0"/>
        <pt x="-837" y="-430" on="0"/>
        <pt x="-837" y="-382" on="1"/>
        <pt x="-837" y="-342" on="0"/>
        <pt x="-782" y="-265" on="0"/>
        <pt x="-738" y="-236" on="1"/>
        <pt x="-786" y="-213" on="0"/>
        <pt x="-837" y="-139" on="0"/>
        <pt x="-837" y="-95" on="1"/>
        <pt x="-837" y="-48" on="0"/>
        <pt x="-788" y="28" on="0"/>
        <pt x="-704" y="81" on="0"/>
        <pt x="-590" y="110" on="0"/>
        <pt x="-525" y="110" on="1"/>
        <pt x="-440" y="110" on="0"/>
        <pt x="-301" y="54" on="0"/>
        <pt x="-203" y="-46" on="0"/>
        <pt x="-150" y="-187" on="0"/>
        <pt x="-150" y="-271" on="1"/>
        <pt x="-150" y="-312" on="0"/>
        <pt x="-160" y="-401" on="0"/>
        <pt x="-178" y="-488" on="0"/>
        <pt x="-202" y="-566" on="0"/>
        <pt x="-215" y="-596" on="1"/>
        <pt x="-327" y="-546" on="1"/>
        <pt x="-315" y="-505" on="0"/>
        <pt x="-301" y="-440" on="0"/>
        <pt x="-292" y="-379" on="0"/>
        <pt x="-289" y="-315" on="0"/>
        <pt x="-289" y="-273" on="1"/>
        <pt x="-289" y="-146" on="0"/>
        <pt x="-414" y="-6" on="0"/>
        <pt x="-529" y="-6" on="1"/>
        <pt x="-610" y="-6" on="0"/>
        <pt x="-698" y="-58" on="0"/>
        <pt x="-698" y="-96" on="1"/>
        <pt x="-698" y="-134" on="0"/>
        <pt x="-611" y="-183" on="0"/>
        <pt x="-532" y="-192" on="1"/>
        <pt x="-532" y="-279" on="1"/>
        <pt x="-612" y="-286" on="0"/>
        <pt x="-698" y="-340" on="0"/>
        <pt x="-698" y="-382" on="1"/>
        <pt x="-698" y="-428" on="0"/>
        <pt x="-641" y="-476" on="0"/>
        <pt x="-594" y="-476" on="1"/>
        <pt x="-581" y="-476" on="0"/>
        <pt x="-542" y="-470" on="0"/>
        <pt x="-502" y="-460" on="0"/>
        <pt x="-465" y="-444" on="0"/>
        <pt x="-452" y="-435" on="1"/>
      </contour>
    </TTGlyph>
    <TTGlyph name="glyph00188" xMin="-793" yMin="-591" xMax="-150" yMax="110">
      <contour>
        <pt x="-150" y="-234" on="1"/>
        <pt x="-150" y="-311" on="0"/>
        <pt x="-197" y="-442" on="0"/>
        <pt x="-285" y="-537" on="0"/>
        <pt x="-409" y="-591" on="0"/>
        <pt x="-486" y="-591" on="1"/>
        <pt x="-633" y="-591" on="0"/>
        <pt x="-793" y="-482" on="0"/>
        <pt x="-793" y="-382" on="1"/>
        <pt x="-793" y="-342" on="0"/>
        <pt x="-738" y="-265" on="0"/>
        <pt x="-694" y="-236" on="1"/>
        <pt x="-742" y="-213" on="0"/>
        <pt x="-793" y="-139" on="0"/>
        <pt x="-793" y="-95" on="1"/>
        <pt x="-793" y="-47" on="0"/>
        <pt x="-748" y="30" on="0"/>
        <pt x="-668" y="82" on="0"/>
        <pt x="-558" y="110" on="0"/>
        <pt x="-493" y="110" on="1"/>
        <pt x="-412" y="110" on="0"/>
        <pt x="-285" y="59" on="0"/>
        <pt x="-197" y="-33" on="0"/>
        <pt x="-150" y="-159" on="0"/>
      </contour>
      <contour>
        <pt x="-490" y="-279" on="1"/>
        <pt x="-568" y="-286" on="0"/>
        <pt x="-655" y="-340" on="0"/>
        <pt x="-655" y="-382" on="1"/>
        <pt x="-655" y="-433" on="0"/>
        <pt x="-569" y="-476" on="0"/>
        <pt x="-484" y="-476" on="1"/>
        <pt x="-439" y="-476" on="0"/>
        <pt x="-366" y="-440" on="0"/>
        <pt x="-315" y="-376" on="0"/>
        <pt x="-287" y="-287" on="0"/>
        <pt x="-287" y="-234" on="1"/>
        <pt x="-287" y="-125" on="0"/>
        <pt x="-398" y="-6" on="0"/>
        <pt x="-497" y="-6" on="1"/>
        <pt x="-571" y="-6" on="0"/>
        <pt x="-655" y="-52" on="0"/>
        <pt x="-655" y="-96" on="1"/>
        <pt x="-655" y="-134" on="0"/>
        <pt x="-568" y="-183" on="0"/>
        <pt x="-490" y="-192" on="1"/>
      </contour>
    </TTGlyph>
    <TTGlyph name="glyph00189" xMin="-1174" yMin="-591" xMax="-150" yMax="110">
      <contour>
        <pt x="-590" y="65" on="1"/>
        <pt x="-556" y="90" on="0"/>
        <pt x="-480" y="110" on="0"/>
        <pt x="-437" y="110" on="1"/>
        <pt x="-375" y="110" on="0"/>
        <pt x="-270" y="61" on="0"/>
        <pt x="-193" y="-30" on="0"/>
        <pt x="-150" y="-160" on="0"/>
        <pt x="-150" y="-240" on="1"/>
        <pt x="-150" y="-320" on="0"/>
        <pt x="-197" y="-450" on="0"/>
        <pt x="-280" y="-542" on="0"/>
        <pt x="-393" y="-591" on="0"/>
        <pt x="-460" y="-591" on="1"/>
        <pt x="-612" y="-591" on="0"/>
        <pt x="-711" y="-495" on="1"/>
        <pt x="-755" y="-545" on="0"/>
        <pt x="-856" y="-591" on="0"/>
        <pt x="-919" y="-591" on="1"/>
        <pt x="-972" y="-591" on="0"/>
        <pt x="-1058" y="-566" on="0"/>
        <pt x="-1119" y="-521" on="0"/>
        <pt x="-1152" y="-460" on="0"/>
        <pt x="-1152" y="-424" on="1"/>
        <pt x="-1152" y="-384" on="0"/>
        <pt x="-1120" y="-316" on="0"/>
        <pt x="-1063" y="-266" on="0"/>
        <pt x="-983" y="-238" on="0"/>
        <pt x="-935" y="-238" on="1"/>
        <pt x="-878" y="-238" on="0"/>
        <pt x="-788" y="-263" on="0"/>
        <pt x="-749" y="-292" on="1"/>
        <pt x="-747" y="-275" on="0"/>
        <pt x="-745" y="-240" on="0"/>
        <pt x="-745" y="-222" on="1"/>
        <pt x="-745" y="-118" on="0"/>
        <pt x="-835" y="-6" on="0"/>
        <pt x="-926" y="-6" on="1"/>
        <pt x="-967" y="-6" on="0"/>
        <pt x="-1047" y="-53" on="0"/>
        <pt x="-1073" y="-95" on="1"/>
        <pt x="-1174" y="-34" on="1"/>
        <pt x="-1154" y="-2" on="0"/>
        <pt x="-1097" y="51" on="0"/>
        <pt x="-1030" y="89" on="0"/>
        <pt x="-954" y="110" on="0"/>
        <pt x="-915" y="110" on="1"/>
        <pt x="-844" y="110" on="0"/>
        <pt x="-730" y="62" on="0"/>
        <pt x="-650" y="-24" on="0"/>
        <pt x="-607" y="-144" on="0"/>
        <pt x="-607" y="-216" on="1"/>
        <pt x="-607" y="-311" on="0"/>
        <pt x="-644" y="-393" on="1"/>
        <pt x="-629" y="-410" on="0"/>
        <pt x="-587" y="-440" on="0"/>
        <pt x="-539" y="-463" on="0"/>
        <pt x="-486" y="-476" on="0"/>
        <pt x="-460" y="-476" on="1"/>
        <pt x="-420" y="-476" on="0"/>
        <pt x="-356" y="-441" on="0"/>
        <pt x="-312" y="-377" on="0"/>
        <pt x="-288" y="-287" on="0"/>
        <pt x="-288" y="-231" on="1"/>
        <pt x="-288" y="-124" on="0"/>
        <pt x="-378" y="-6" on="0"/>
        <pt x="-451" y="-6" on="1"/>
        <pt x="-476" y="-6" on="0"/>
        <pt x="-503" y="-22" on="1"/>
      </contour>
      <contour>
        <pt x="-920" y="-352" on="1"/>
        <pt x="-971" y="-352" on="0"/>
        <pt x="-1020" y="-387" on="0"/>
        <pt x="-1020" y="-416" on="1"/>
        <pt x="-1020" y="-445" on="0"/>
        <pt x="-969" y="-476" on="0"/>
        <pt x="-915" y="-476" on="1"/>
        <pt x="-833" y="-476" on="0"/>
        <pt x="-791" y="-414" on="1"/>
        <pt x="-816" y="-385" on="0"/>
        <pt x="-882" y="-352" on="0"/>
      </contour>
    </TTGlyph>
    <TTGlyph name="glyph00190" xMin="-745" yMin="-596" xMax="-150" yMax="110">
      <contour>
        <pt x="-405" y="-480" on="1"/>
        <pt x="-342" y="-475" on="0"/>
        <pt x="-288" y="-420" on="0"/>
        <pt x="-288" y="-378" on="1"/>
        <pt x="-288" y="-293" on="0"/>
        <pt x="-453" y="-279" on="1"/>
        <pt x="-453" y="-192" on="1"/>
        <pt x="-375" y="-183" on="0"/>
        <pt x="-288" y="-134" on="0"/>
        <pt x="-288" y="-96" on="1"/>
        <pt x="-288" y="-59" on="0"/>
        <pt x="-363" y="-6" on="0"/>
        <pt x="-429" y="-6" on="1"/>
        <pt x="-521" y="-6" on="0"/>
        <pt x="-607" y="-121" on="0"/>
        <pt x="-607" y="-249" on="1"/>
        <pt x="-607" y="-290" on="0"/>
        <pt x="-597" y="-365" on="0"/>
        <pt x="-573" y="-427" on="0"/>
        <pt x="-534" y="-474" on="0"/>
        <pt x="-505" y="-486" on="1"/>
        <pt x="-552" y="-596" on="1"/>
        <pt x="-605" y="-572" on="0"/>
        <pt x="-678" y="-499" on="0"/>
        <pt x="-724" y="-408" on="0"/>
        <pt x="-745" y="-303" on="0"/>
        <pt x="-745" y="-246" on="1"/>
        <pt x="-745" y="-168" on="0"/>
        <pt x="-702" y="-37" on="0"/>
        <pt x="-619" y="57" on="0"/>
        <pt x="-501" y="110" on="0"/>
        <pt x="-426" y="110" on="1"/>
        <pt x="-366" y="110" on="0"/>
        <pt x="-265" y="78" on="0"/>
        <pt x="-191" y="22" on="0"/>
        <pt x="-150" y="-52" on="0"/>
        <pt x="-150" y="-95" on="1"/>
        <pt x="-150" y="-138" on="0"/>
        <pt x="-202" y="-211" on="0"/>
        <pt x="-248" y="-235" on="1"/>
        <pt x="-201" y="-264" on="0"/>
        <pt x="-150" y="-340" on="0"/>
        <pt x="-150" y="-377" on="1"/>
        <pt x="-150" y="-419" on="0"/>
        <pt x="-182" y="-495" on="0"/>
        <pt x="-240" y="-553" on="0"/>
        <pt x="-321" y="-590" on="0"/>
        <pt x="-370" y="-593" on="1"/>
      </contour>
    </TTGlyph>
    <TTGlyph name="glyph00191" xMin="-744" yMin="-600" xMax="-150" yMax="110">
      <contour>
        <pt x="-285" y="-42" on="1"/>
        <pt x="-342" y="-5" on="0"/>
        <pt x="-428" y="-5" on="1"/>
        <pt x="-458" y="-5" on="0"/>
        <pt x="-514" y="-23" on="0"/>
        <pt x="-560" y="-60" on="0"/>
        <pt x="-593" y="-117" on="0"/>
        <pt x="-599" y="-156" on="1"/>
        <pt x="-588" y="-147" on="0"/>
        <pt x="-551" y="-125" on="0"/>
        <pt x="-502" y="-106" on="0"/>
        <pt x="-443" y="-94" on="0"/>
        <pt x="-409" y="-94" on="1"/>
        <pt x="-366" y="-94" on="0"/>
        <pt x="-275" y="-107" on="0"/>
        <pt x="-199" y="-140" on="0"/>
        <pt x="-150" y="-198" on="0"/>
        <pt x="-150" y="-244" on="1"/>
        <pt x="-150" y="-274" on="0"/>
        <pt x="-192" y="-327" on="0"/>
        <pt x="-229" y="-344" on="1"/>
        <pt x="-191" y="-364" on="0"/>
        <pt x="-150" y="-419" on="0"/>
        <pt x="-150" y="-445" on="1"/>
        <pt x="-150" y="-475" on="0"/>
        <pt x="-183" y="-529" on="0"/>
        <pt x="-238" y="-570" on="0"/>
        <pt x="-310" y="-596" on="0"/>
        <pt x="-349" y="-599" on="1"/>
        <pt x="-388" y="-498" on="1"/>
        <pt x="-337" y="-494" on="0"/>
        <pt x="-282" y="-455" on="0"/>
        <pt x="-282" y="-426" on="1"/>
        <pt x="-282" y="-404" on="0"/>
        <pt x="-338" y="-382" on="0"/>
        <pt x="-396" y="-376" on="1"/>
        <pt x="-396" y="-311" on="1"/>
        <pt x="-342" y="-303" on="0"/>
        <pt x="-282" y="-277" on="0"/>
        <pt x="-282" y="-253" on="1"/>
        <pt x="-282" y="-236" on="0"/>
        <pt x="-311" y="-214" on="0"/>
        <pt x="-353" y="-202" on="0"/>
        <pt x="-400" y="-197" on="0"/>
        <pt x="-418" y="-197" on="1"/>
        <pt x="-476" y="-197" on="0"/>
        <pt x="-548" y="-224" on="0"/>
        <pt x="-588" y="-264" on="0"/>
        <pt x="-602" y="-310" on="0"/>
        <pt x="-602" y="-328" on="1"/>
        <pt x="-602" y="-376" on="0"/>
        <pt x="-567" y="-464" on="0"/>
        <pt x="-516" y="-495" on="1"/>
        <pt x="-578" y="-600" on="1"/>
        <pt x="-632" y="-568" on="0"/>
        <pt x="-698" y="-482" on="0"/>
        <pt x="-733" y="-395" on="0"/>
        <pt x="-744" y="-315" on="0"/>
        <pt x="-744" y="-288" on="1"/>
        <pt x="-744" y="-177" on="0"/>
        <pt x="-691" y="-25" on="0"/>
        <pt x="-601" y="69" on="0"/>
        <pt x="-483" y="110" on="0"/>
        <pt x="-418" y="110" on="1"/>
        <pt x="-361" y="110" on="0"/>
        <pt x="-254" y="83" on="0"/>
        <pt x="-203" y="47" on="1"/>
      </contour>
    </TTGlyph>
    <TTGlyph name="glyph00192" xMin="-1253" yMin="-591" xMax="-150" yMax="110">
      <contour>
        <pt x="-436" y="110" on="1"/>
        <pt x="-289" y="87" on="0"/>
        <pt x="-150" y="-93" on="0"/>
        <pt x="-150" y="-242" on="1"/>
        <pt x="-150" y="-323" on="0"/>
        <pt x="-196" y="-452" on="0"/>
        <pt x="-278" y="-542" on="0"/>
        <pt x="-389" y="-591" on="0"/>
        <pt x="-455" y="-591" on="1"/>
        <pt x="-618" y="-591" on="0"/>
        <pt x="-711" y="-498" on="1"/>
        <pt x="-800" y="-591" on="0"/>
        <pt x="-946" y="-591" on="1"/>
        <pt x="-1094" y="-591" on="0"/>
        <pt x="-1253" y="-482" on="0"/>
        <pt x="-1253" y="-382" on="1"/>
        <pt x="-1253" y="-344" on="0"/>
        <pt x="-1197" y="-265" on="0"/>
        <pt x="-1155" y="-236" on="1"/>
        <pt x="-1200" y="-213" on="0"/>
        <pt x="-1253" y="-138" on="0"/>
        <pt x="-1253" y="-95" on="1"/>
        <pt x="-1253" y="-47" on="0"/>
        <pt x="-1208" y="30" on="0"/>
        <pt x="-1129" y="82" on="0"/>
        <pt x="-1019" y="110" on="0"/>
        <pt x="-954" y="110" on="1"/>
        <pt x="-873" y="110" on="0"/>
        <pt x="-745" y="59" on="0"/>
        <pt x="-657" y="-33" on="0"/>
        <pt x="-610" y="-159" on="0"/>
        <pt x="-610" y="-234" on="1"/>
        <pt x="-610" y="-270" on="0"/>
        <pt x="-623" y="-342" on="0"/>
        <pt x="-635" y="-378" on="1"/>
        <pt x="-622" y="-396" on="0"/>
        <pt x="-580" y="-432" on="0"/>
        <pt x="-531" y="-459" on="0"/>
        <pt x="-480" y="-476" on="0"/>
        <pt x="-456" y="-476" on="1"/>
        <pt x="-375" y="-476" on="0"/>
        <pt x="-288" y="-343" on="0"/>
        <pt x="-288" y="-231" on="1"/>
        <pt x="-288" y="-127" on="0"/>
        <pt x="-381" y="-16" on="0"/>
        <pt x="-475" y="-1" on="1"/>
      </contour>
      <contour>
        <pt x="-950" y="-279" on="1"/>
        <pt x="-1029" y="-286" on="0"/>
        <pt x="-1115" y="-340" on="0"/>
        <pt x="-1115" y="-382" on="1"/>
        <pt x="-1115" y="-433" on="0"/>
        <pt x="-1029" y="-476" on="0"/>
        <pt x="-945" y="-476" on="1"/>
        <pt x="-899" y="-476" on="0"/>
        <pt x="-826" y="-440" on="0"/>
        <pt x="-775" y="-376" on="0"/>
        <pt x="-748" y="-287" on="0"/>
        <pt x="-748" y="-234" on="1"/>
        <pt x="-748" y="-125" on="0"/>
        <pt x="-859" y="-6" on="0"/>
        <pt x="-958" y="-6" on="1"/>
        <pt x="-1031" y="-6" on="0"/>
        <pt x="-1115" y="-52" on="0"/>
        <pt x="-1115" y="-96" on="1"/>
        <pt x="-1115" y="-134" on="0"/>
        <pt x="-1028" y="-183" on="0"/>
        <pt x="-950" y="-192" on="1"/>
      </contour>
    </TTGlyph>
    <TTGlyph name="glyph00193" xMin="-1165" yMin="-600" xMax="-150" yMax="110">
      <contour>
        <pt x="-603" y="55" on="1"/>
        <pt x="-565" y="85" on="0"/>
        <pt x="-472" y="110" on="0"/>
        <pt x="-425" y="110" on="1"/>
        <pt x="-364" y="110" on="0"/>
        <pt x="-263" y="72" on="0"/>
        <pt x="-190" y="3" on="0"/>
        <pt x="-150" y="-91" on="0"/>
        <pt x="-150" y="-146" on="1"/>
        <pt x="-150" y="-221" on="0"/>
        <pt x="-203" y="-330" on="0"/>
        <pt x="-289" y="-401" on="0"/>
        <pt x="-401" y="-434" on="0"/>
        <pt x="-459" y="-434" on="1"/>
        <pt x="-534" y="-434" on="0"/>
        <pt x="-657" y="-391" on="0"/>
        <pt x="-702" y="-350" on="1"/>
        <pt x="-746" y="-396" on="0"/>
        <pt x="-841" y="-434" on="0"/>
        <pt x="-904" y="-434" on="1"/>
        <pt x="-936" y="-434" on="0"/>
        <pt x="-979" y="-423" on="0"/>
        <pt x="-1005" y="-408" on="1"/>
        <pt x="-989" y="-436" on="0"/>
        <pt x="-939" y="-467" on="0"/>
        <pt x="-871" y="-482" on="0"/>
        <pt x="-785" y="-485" on="0"/>
        <pt x="-733" y="-485" on="1"/>
        <pt x="-212" y="-485" on="1"/>
        <pt x="-212" y="-600" on="1"/>
        <pt x="-765" y="-600" on="1"/>
        <pt x="-873" y="-600" on="0"/>
        <pt x="-1019" y="-560" on="0"/>
        <pt x="-1112" y="-473" on="0"/>
        <pt x="-1158" y="-337" on="0"/>
        <pt x="-1165" y="-240" on="1"/>
        <pt x="-1035" y="-262" on="1"/>
        <pt x="-1028" y="-279" on="0"/>
        <pt x="-1002" y="-301" on="0"/>
        <pt x="-969" y="-314" on="0"/>
        <pt x="-931" y="-319" on="0"/>
        <pt x="-912" y="-319" on="1"/>
        <pt x="-837" y="-319" on="0"/>
        <pt x="-760" y="-230" on="0"/>
        <pt x="-760" y="-156" on="1"/>
        <pt x="-760" y="-113" on="0"/>
        <pt x="-786" y="-55" on="0"/>
        <pt x="-827" y="-20" on="0"/>
        <pt x="-876" y="-5" on="0"/>
        <pt x="-899" y="-5" on="1"/>
        <pt x="-931" y="-5" on="0"/>
        <pt x="-1005" y="-32" on="0"/>
        <pt x="-1034" y="-58" on="1"/>
        <pt x="-1126" y="18" on="1"/>
        <pt x="-1074" y="63" on="0"/>
        <pt x="-946" y="110" on="0"/>
        <pt x="-889" y="110" on="1"/>
        <pt x="-837" y="110" on="0"/>
        <pt x="-740" y="74" on="0"/>
        <pt x="-666" y="9" on="0"/>
        <pt x="-622" y="-80" on="0"/>
        <pt x="-622" y="-134" on="1"/>
        <pt x="-622" y="-172" on="0"/>
        <pt x="-632" y="-227" on="0"/>
        <pt x="-642" y="-247" on="1"/>
        <pt x="-632" y="-265" on="0"/>
        <pt x="-592" y="-292" on="0"/>
        <pt x="-541" y="-310" on="0"/>
        <pt x="-485" y="-319" on="0"/>
        <pt x="-460" y="-319" on="1"/>
        <pt x="-425" y="-319" on="0"/>
        <pt x="-363" y="-304" on="0"/>
        <pt x="-316" y="-265" on="0"/>
        <pt x="-288" y="-198" on="0"/>
        <pt x="-288" y="-147" on="1"/>
        <pt x="-288" y="-114" on="0"/>
        <pt x="-309" y="-62" on="0"/>
        <pt x="-346" y="-25" on="0"/>
        <pt x="-396" y="-5" on="0"/>
        <pt x="-426" y="-5" on="1"/>
        <pt x="-443" y="-5" on="0"/>
        <pt x="-495" y="-19" on="0"/>
        <pt x="-515" y="-31" on="1"/>
      </contour>
    </TTGlyph>
    <TTGlyph name="glyph00194" xMin="-889" yMin="-591" xMax="-150" yMax="110">
      <contour>
        <pt x="-452" y="-361" on="1"/>
        <pt x="-443" y="-426" on="0"/>
        <pt x="-406" y="-476" on="0"/>
        <pt x="-376" y="-476" on="1"/>
        <pt x="-338" y="-476" on="0"/>
        <pt x="-288" y="-358" on="0"/>
        <pt x="-288" y="-249" on="1"/>
        <pt x="-288" y="-163" on="0"/>
        <pt x="-347" y="-39" on="0"/>
        <pt x="-411" y="6" on="1"/>
        <pt x="-346" y="108" on="1"/>
        <pt x="-246" y="51" on="0"/>
        <pt x="-150" y="-133" on="0"/>
        <pt x="-150" y="-260" on="1"/>
        <pt x="-150" y="-334" on="0"/>
        <pt x="-187" y="-456" on="0"/>
        <pt x="-249" y="-543" on="0"/>
        <pt x="-330" y="-591" on="0"/>
        <pt x="-373" y="-591" on="1"/>
        <pt x="-415" y="-591" on="0"/>
        <pt x="-486" y="-561" on="0"/>
        <pt x="-509" y="-529" on="1"/>
        <pt x="-532" y="-564" on="0"/>
        <pt x="-604" y="-591" on="0"/>
        <pt x="-658" y="-591" on="1"/>
        <pt x="-712" y="-591" on="0"/>
        <pt x="-797" y="-559" on="0"/>
        <pt x="-857" y="-501" on="0"/>
        <pt x="-889" y="-420" on="0"/>
        <pt x="-889" y="-371" on="1"/>
        <pt x="-889" y="-323" on="0"/>
        <pt x="-845" y="-242" on="0"/>
        <pt x="-802" y="-215" on="1"/>
        <pt x="-853" y="-189" on="0"/>
        <pt x="-889" y="-122" on="0"/>
        <pt x="-889" y="-74" on="1"/>
        <pt x="-889" y="-35" on="0"/>
        <pt x="-855" y="33" on="0"/>
        <pt x="-792" y="82" on="0"/>
        <pt x="-703" y="110" on="0"/>
        <pt x="-649" y="110" on="1"/>
        <pt x="-618" y="110" on="0"/>
        <pt x="-548" y="95" on="0"/>
        <pt x="-506" y="82" on="1"/>
        <pt x="-550" y="-22" on="1"/>
        <pt x="-575" y="-14" on="0"/>
        <pt x="-619" y="-6" on="0"/>
        <pt x="-639" y="-6" on="1"/>
        <pt x="-696" y="-6" on="0"/>
        <pt x="-752" y="-42" on="0"/>
        <pt x="-752" y="-74" on="1"/>
        <pt x="-752" y="-120" on="0"/>
        <pt x="-670" y="-167" on="0"/>
        <pt x="-577" y="-167" on="1"/>
        <pt x="-577" y="-269" on="1"/>
        <pt x="-672" y="-270" on="0"/>
        <pt x="-752" y="-323" on="0"/>
        <pt x="-752" y="-370" on="1"/>
        <pt x="-752" y="-476" on="0"/>
        <pt x="-657" y="-476" on="1"/>
        <pt x="-619" y="-476" on="0"/>
        <pt x="-574" y="-427" on="0"/>
        <pt x="-565" y="-362" on="1"/>
      </contour>
    </TTGlyph>
    <TTGlyph name="glyph00195" xMin="-797" yMin="-600" xMax="-150" yMax="115">
      <contour>
        <pt x="-506" y="10" on="1"/>
        <pt x="-524" y="12" on="0"/>
        <pt x="-561" y="17" on="0"/>
        <pt x="-569" y="17" on="1"/>
        <pt x="-606" y="17" on="0"/>
        <pt x="-656" y="-5" on="0"/>
        <pt x="-656" y="-39" on="1"/>
        <pt x="-656" y="-63" on="0"/>
        <pt x="-596" y="-89" on="0"/>
        <pt x="-542" y="-97" on="1"/>
        <pt x="-542" y="-162" on="1"/>
        <pt x="-593" y="-162" on="0"/>
        <pt x="-656" y="-195" on="0"/>
        <pt x="-656" y="-232" on="1"/>
        <pt x="-656" y="-255" on="0"/>
        <pt x="-624" y="-282" on="0"/>
        <pt x="-582" y="-282" on="1"/>
        <pt x="-554" y="-282" on="0"/>
        <pt x="-501" y="-247" on="0"/>
        <pt x="-489" y="-209" on="1"/>
        <pt x="-411" y="-209" on="1"/>
        <pt x="-400" y="-247" on="0"/>
        <pt x="-363" y="-282" on="0"/>
        <pt x="-336" y="-282" on="1"/>
        <pt x="-320" y="-282" on="0"/>
        <pt x="-286" y="-268" on="0"/>
        <pt x="-273" y="-251" on="1"/>
        <pt x="-273" y="-160" on="1"/>
        <pt x="-273" y="-82" on="0"/>
        <pt x="-296" y="19" on="0"/>
        <pt x="-320" y="39" on="1"/>
        <pt x="-232" y="115" on="1"/>
        <pt x="-190" y="75" on="0"/>
        <pt x="-150" y="-59" on="0"/>
        <pt x="-150" y="-147" on="1"/>
        <pt x="-150" y="-275" on="1"/>
        <pt x="-150" y="-356" on="0"/>
        <pt x="-181" y="-477" on="0"/>
        <pt x="-250" y="-559" on="0"/>
        <pt x="-358" y="-600" on="0"/>
        <pt x="-435" y="-600" on="1"/>
        <pt x="-587" y="-600" on="1"/>
        <pt x="-634" y="-600" on="0"/>
        <pt x="-711" y="-584" on="0"/>
        <pt x="-767" y="-549" on="0"/>
        <pt x="-797" y="-496" on="0"/>
        <pt x="-797" y="-459" on="1"/>
        <pt x="-797" y="-412" on="0"/>
        <pt x="-773" y="-377" on="1"/>
        <pt x="-676" y="-433" on="1"/>
        <pt x="-679" y="-439" on="0"/>
        <pt x="-679" y="-450" on="1"/>
        <pt x="-679" y="-467" on="0"/>
        <pt x="-638" y="-485" on="0"/>
        <pt x="-585" y="-485" on="1"/>
        <pt x="-403" y="-485" on="1"/>
        <pt x="-370" y="-485" on="0"/>
        <pt x="-325" y="-474" on="0"/>
        <pt x="-296" y="-450" on="0"/>
        <pt x="-280" y="-411" on="0"/>
        <pt x="-277" y="-383" on="1"/>
        <pt x="-303" y="-392" on="0"/>
        <pt x="-335" y="-392" on="1"/>
        <pt x="-376" y="-392" on="0"/>
        <pt x="-427" y="-363" on="0"/>
        <pt x="-450" y="-331" on="1"/>
        <pt x="-475" y="-364" on="0"/>
        <pt x="-558" y="-392" on="0"/>
        <pt x="-603" y="-392" on="1"/>
        <pt x="-644" y="-392" on="0"/>
        <pt x="-712" y="-368" on="0"/>
        <pt x="-761" y="-324" on="0"/>
        <pt x="-788" y="-266" on="0"/>
        <pt x="-788" y="-231" on="1"/>
        <pt x="-788" y="-205" on="0"/>
        <pt x="-758" y="-143" on="0"/>
        <pt x="-720" y="-123" on="1"/>
        <pt x="-757" y="-106" on="0"/>
        <pt x="-788" y="-60" on="0"/>
        <pt x="-788" y="-30" on="1"/>
        <pt x="-788" y="3" on="0"/>
        <pt x="-757" y="55" on="0"/>
        <pt x="-703" y="91" on="0"/>
        <pt x="-630" y="110" on="0"/>
        <pt x="-587" y="110" on="1"/>
        <pt x="-567" y="110" on="0"/>
        <pt x="-494" y="106" on="0"/>
        <pt x="-465" y="102" on="1"/>
      </contour>
    </TTGlyph>
    <TTGlyph name="glyph00196" xMin="-715" yMin="-600" xMax="-150" yMax="110">
      <contour>
        <pt x="-704" y="-425" on="1"/>
        <pt x="-656" y="-393" on="0"/>
        <pt x="-549" y="-362" on="0"/>
        <pt x="-490" y="-362" on="1"/>
        <pt x="-443" y="-362" on="0"/>
        <pt x="-368" y="-341" on="0"/>
        <pt x="-316" y="-296" on="0"/>
        <pt x="-288" y="-225" on="0"/>
        <pt x="-288" y="-175" on="1"/>
        <pt x="-288" y="-147" on="0"/>
        <pt x="-308" y="-87" on="0"/>
        <pt x="-347" y="-37" on="0"/>
        <pt x="-404" y="-6" on="0"/>
        <pt x="-441" y="-6" on="1"/>
        <pt x="-498" y="-6" on="0"/>
        <pt x="-582" y="-53" on="0"/>
        <pt x="-608" y="-95" on="1"/>
        <pt x="-715" y="-32" on="1"/>
        <pt x="-664" y="36" on="0"/>
        <pt x="-526" y="110" on="0"/>
        <pt x="-441" y="110" on="1"/>
        <pt x="-369" y="110" on="0"/>
        <pt x="-260" y="62" on="0"/>
        <pt x="-187" y="-18" on="0"/>
        <pt x="-150" y="-121" on="0"/>
        <pt x="-150" y="-176" on="1"/>
        <pt x="-150" y="-220" on="0"/>
        <pt x="-174" y="-295" on="0"/>
        <pt x="-213" y="-357" on="0"/>
        <pt x="-266" y="-403" on="0"/>
        <pt x="-294" y="-417" on="1"/>
        <pt x="-257" y="-434" on="0"/>
        <pt x="-191" y="-490" on="0"/>
        <pt x="-168" y="-528" on="1"/>
        <pt x="-266" y="-600" on="1"/>
        <pt x="-284" y="-573" on="0"/>
        <pt x="-335" y="-528" on="0"/>
        <pt x="-394" y="-495" on="0"/>
        <pt x="-459" y="-476" on="0"/>
        <pt x="-492" y="-476" on="1"/>
        <pt x="-569" y="-476" on="0"/>
        <pt x="-635" y="-512" on="1"/>
      </contour>
    </TTGlyph>
    <TTGlyph name="glyph00197" xMin="-881" yMin="-591" xMax="-150" yMax="115">
      <contour>
        <pt x="-441" y="-368" on="1"/>
        <pt x="-438" y="-403" on="0"/>
        <pt x="-425" y="-445" on="0"/>
        <pt x="-407" y="-468" on="0"/>
        <pt x="-383" y="-476" on="0"/>
        <pt x="-369" y="-476" on="1"/>
        <pt x="-331" y="-476" on="0"/>
        <pt x="-288" y="-356" on="0"/>
        <pt x="-288" y="-249" on="1"/>
        <pt x="-288" y="-159" on="0"/>
        <pt x="-352" y="-31" on="0"/>
        <pt x="-423" y="14" on="1"/>
        <pt x="-358" y="115" on="1"/>
        <pt x="-256" y="61" on="0"/>
        <pt x="-150" y="-124" on="0"/>
        <pt x="-150" y="-249" on="1"/>
        <pt x="-150" y="-302" on="0"/>
        <pt x="-170" y="-422" on="0"/>
        <pt x="-219" y="-524" on="0"/>
        <pt x="-303" y="-591" on="0"/>
        <pt x="-367" y="-591" on="1"/>
        <pt x="-412" y="-591" on="0"/>
        <pt x="-476" y="-563" on="0"/>
        <pt x="-496" y="-531" on="1"/>
        <pt x="-517" y="-563" on="0"/>
        <pt x="-578" y="-591" on="0"/>
        <pt x="-626" y="-591" on="1"/>
        <pt x="-671" y="-591" on="0"/>
        <pt x="-748" y="-560" on="0"/>
        <pt x="-803" y="-505" on="0"/>
        <pt x="-835" y="-428" on="0"/>
        <pt x="-835" y="-382" on="1"/>
        <pt x="-835" y="-342" on="0"/>
        <pt x="-787" y="-264" on="0"/>
        <pt x="-744" y="-223" on="1"/>
        <pt x="-665" y="-147" on="0"/>
        <pt x="-665" y="-79" on="1"/>
        <pt x="-665" y="0" on="0"/>
        <pt x="-730" y="0" on="1"/>
        <pt x="-759" y="0" on="0"/>
        <pt x="-759" y="-19" on="1"/>
        <pt x="-759" y="-25" on="0"/>
        <pt x="-753" y="-37" on="0"/>
        <pt x="-748" y="-39" on="1"/>
        <pt x="-774" y="-148" on="1"/>
        <pt x="-796" y="-145" on="0"/>
        <pt x="-835" y="-124" on="0"/>
        <pt x="-864" y="-91" on="0"/>
        <pt x="-881" y="-49" on="0"/>
        <pt x="-881" y="-27" on="1"/>
        <pt x="-881" y="3" on="0"/>
        <pt x="-857" y="53" on="0"/>
        <pt x="-816" y="89" on="0"/>
        <pt x="-761" y="110" on="0"/>
        <pt x="-729" y="110" on="1"/>
        <pt x="-683" y="110" on="0"/>
        <pt x="-610" y="82" on="0"/>
        <pt x="-560" y="34" on="0"/>
        <pt x="-533" y="-32" on="0"/>
        <pt x="-533" y="-70" on="1"/>
        <pt x="-533" y="-118" on="0"/>
        <pt x="-577" y="-203" on="0"/>
        <pt x="-619" y="-246" on="1"/>
        <pt x="-661" y="-289" on="0"/>
        <pt x="-697" y="-347" on="0"/>
        <pt x="-697" y="-376" on="1"/>
        <pt x="-697" y="-400" on="0"/>
        <pt x="-684" y="-437" on="0"/>
        <pt x="-663" y="-463" on="0"/>
        <pt x="-637" y="-476" on="0"/>
        <pt x="-624" y="-476" on="1"/>
        <pt x="-610" y="-476" on="0"/>
        <pt x="-586" y="-468" on="0"/>
        <pt x="-568" y="-444" on="0"/>
        <pt x="-555" y="-402" on="0"/>
        <pt x="-551" y="-368" on="1"/>
      </contour>
    </TTGlyph>
    <TTGlyph name="glyph00198" xMin="-1386" yMin="-600" xMax="-150" yMax="109">
      <contour>
        <pt x="-1062" y="-595" on="1"/>
        <pt x="-1080" y="-600" on="0"/>
        <pt x="-1099" y="-600" on="1"/>
        <pt x="-1161" y="-600" on="0"/>
        <pt x="-1266" y="-548" on="0"/>
        <pt x="-1343" y="-453" on="0"/>
        <pt x="-1386" y="-318" on="0"/>
        <pt x="-1386" y="-235" on="1"/>
        <pt x="-1386" y="-156" on="0"/>
        <pt x="-1340" y="-29" on="0"/>
        <pt x="-1258" y="61" on="0"/>
        <pt x="-1145" y="109" on="0"/>
        <pt x="-1078" y="109" on="1"/>
        <pt x="-1015" y="109" on="0"/>
        <pt x="-914" y="58" on="0"/>
        <pt x="-843" y="-32" on="0"/>
        <pt x="-805" y="-154" on="0"/>
        <pt x="-805" y="-225" on="1"/>
        <pt x="-805" y="-246" on="0"/>
        <pt x="-816" y="-303" on="0"/>
        <pt x="-828" y="-361" on="0"/>
        <pt x="-839" y="-412" on="0"/>
        <pt x="-839" y="-427" on="1"/>
        <pt x="-839" y="-453" on="0"/>
        <pt x="-796" y="-476" on="0"/>
        <pt x="-767" y="-476" on="1"/>
        <pt x="-754" y="-476" on="0"/>
        <pt x="-728" y="-469" on="0"/>
        <pt x="-708" y="-456" on="0"/>
        <pt x="-695" y="-438" on="0"/>
        <pt x="-695" y="-427" on="1"/>
        <pt x="-695" y="-418" on="0"/>
        <pt x="-706" y="-374" on="0"/>
        <pt x="-719" y="-315" on="0"/>
        <pt x="-730" y="-249" on="0"/>
        <pt x="-730" y="-217" on="1"/>
        <pt x="-730" y="-146" on="0"/>
        <pt x="-690" y="-26" on="0"/>
        <pt x="-617" y="61" on="0"/>
        <pt x="-514" y="109" on="0"/>
        <pt x="-452" y="109" on="1"/>
        <pt x="-384" y="109" on="0"/>
        <pt x="-272" y="58" on="0"/>
        <pt x="-193" y="-34" on="0"/>
        <pt x="-150" y="-163" on="0"/>
        <pt x="-150" y="-242" on="1"/>
        <pt x="-150" y="-323" on="0"/>
        <pt x="-194" y="-455" on="0"/>
        <pt x="-270" y="-549" on="0"/>
        <pt x="-375" y="-600" on="0"/>
        <pt x="-435" y="-600" on="1"/>
        <pt x="-450" y="-600" on="0"/>
        <pt x="-465" y="-597" on="0"/>
        <pt x="-474" y="-595" on="1"/>
        <pt x="-460" y="-485" on="1"/>
        <pt x="-366" y="-484" on="0"/>
        <pt x="-288" y="-353" on="0"/>
        <pt x="-288" y="-234" on="1"/>
        <pt x="-288" y="-116" on="0"/>
        <pt x="-369" y="-6" on="0"/>
        <pt x="-452" y="-6" on="1"/>
        <pt x="-530" y="-6" on="0"/>
        <pt x="-598" y="-117" on="0"/>
        <pt x="-598" y="-223" on="1"/>
        <pt x="-598" y="-259" on="0"/>
        <pt x="-588" y="-313" on="0"/>
        <pt x="-575" y="-360" on="0"/>
        <pt x="-565" y="-406" on="0"/>
        <pt x="-565" y="-435" on="1"/>
        <pt x="-565" y="-469" on="0"/>
        <pt x="-595" y="-526" on="0"/>
        <pt x="-649" y="-568" on="0"/>
        <pt x="-723" y="-591" on="0"/>
        <pt x="-768" y="-591" on="1"/>
        <pt x="-811" y="-591" on="0"/>
        <pt x="-885" y="-568" on="0"/>
        <pt x="-939" y="-527" on="0"/>
        <pt x="-970" y="-470" on="0"/>
        <pt x="-970" y="-435" on="1"/>
        <pt x="-970" y="-406" on="0"/>
        <pt x="-960" y="-360" on="0"/>
        <pt x="-947" y="-313" on="0"/>
        <pt x="-937" y="-260" on="0"/>
        <pt x="-937" y="-223" on="1"/>
        <pt x="-937" y="-116" on="0"/>
        <pt x="-1004" y="-6" on="0"/>
        <pt x="-1082" y="-6" on="1"/>
        <pt x="-1167" y="-6" on="0"/>
        <pt x="-1248" y="-114" on="0"/>
        <pt x="-1248" y="-234" on="1"/>
        <pt x="-1248" y="-354" on="0"/>
        <pt x="-1170" y="-485" on="0"/>
        <pt x="-1076" y="-485" on="1"/>
      </contour>
    </TTGlyph>
    <TTGlyph name="glyph00199" xMin="-1148" yMin="-591" xMax="-150" yMax="110">
      <contour>
        <pt x="-524" y="-455" on="1"/>
        <pt x="-501" y="-466" on="0"/>
        <pt x="-463" y="-476" on="0"/>
        <pt x="-445" y="-476" on="1"/>
        <pt x="-409" y="-476" on="0"/>
        <pt x="-351" y="-441" on="0"/>
        <pt x="-310" y="-377" on="0"/>
        <pt x="-288" y="-287" on="0"/>
        <pt x="-288" y="-232" on="1"/>
        <pt x="-288" y="-125" on="0"/>
        <pt x="-370" y="-6" on="0"/>
        <pt x="-443" y="-6" on="1"/>
        <pt x="-497" y="-6" on="0"/>
        <pt x="-571" y="-90" on="0"/>
        <pt x="-581" y="-158" on="1"/>
        <pt x="-578" y="-176" on="0"/>
        <pt x="-574" y="-219" on="0"/>
        <pt x="-574" y="-239" on="1"/>
        <pt x="-574" y="-321" on="0"/>
        <pt x="-616" y="-451" on="0"/>
        <pt x="-693" y="-542" on="0"/>
        <pt x="-802" y="-591" on="0"/>
        <pt x="-870" y="-591" on="1"/>
        <pt x="-932" y="-591" on="0"/>
        <pt x="-1035" y="-535" on="0"/>
        <pt x="-1108" y="-437" on="0"/>
        <pt x="-1148" y="-307" on="0"/>
        <pt x="-1148" y="-233" on="1"/>
        <pt x="-1148" y="-157" on="0"/>
        <pt x="-1106" y="-31" on="0"/>
        <pt x="-1030" y="60" on="0"/>
        <pt x="-925" y="110" on="0"/>
        <pt x="-861" y="110" on="1"/>
        <pt x="-793" y="110" on="0"/>
        <pt x="-687" y="62" on="0"/>
        <pt x="-648" y="10" on="1"/>
        <pt x="-613" y="59" on="0"/>
        <pt x="-503" y="110" on="0"/>
        <pt x="-440" y="110" on="1"/>
        <pt x="-376" y="110" on="0"/>
        <pt x="-269" y="63" on="0"/>
        <pt x="-193" y="-24" on="0"/>
        <pt x="-150" y="-148" on="0"/>
        <pt x="-150" y="-225" on="1"/>
        <pt x="-150" y="-310" on="0"/>
        <pt x="-192" y="-445" on="0"/>
        <pt x="-268" y="-540" on="0"/>
        <pt x="-375" y="-591" on="0"/>
        <pt x="-441" y="-591" on="1"/>
        <pt x="-509" y="-591" on="0"/>
        <pt x="-582" y="-556" on="1"/>
      </contour>
      <contour>
        <pt x="-1011" y="-239" on="1"/>
        <pt x="-1011" y="-348" on="0"/>
        <pt x="-933" y="-476" on="0"/>
        <pt x="-861" y="-476" on="1"/>
        <pt x="-789" y="-476" on="0"/>
        <pt x="-712" y="-351" on="0"/>
        <pt x="-712" y="-239" on="1"/>
        <pt x="-712" y="-127" on="0"/>
        <pt x="-790" y="-6" on="0"/>
        <pt x="-864" y="-6" on="1"/>
        <pt x="-934" y="-6" on="0"/>
        <pt x="-1011" y="-128" on="0"/>
      </contour>
    </TTGlyph>
    <TTGlyph name="glyph00200" xMin="-972" yMin="-594" xMax="-150" yMax="110">
      <contour>
        <pt x="-593" y="-391" on="1"/>
        <pt x="-589" y="-418" on="0"/>
        <pt x="-575" y="-452" on="0"/>
        <pt x="-556" y="-470" on="0"/>
        <pt x="-531" y="-476" on="0"/>
        <pt x="-515" y="-476" on="1"/>
        <pt x="-493" y="-476" on="0"/>
        <pt x="-460" y="-426" on="0"/>
        <pt x="-455" y="-372" on="1"/>
        <pt x="-338" y="-402" on="1"/>
        <pt x="-370" y="-591" on="0"/>
        <pt x="-514" y="-591" on="1"/>
        <pt x="-556" y="-591" on="0"/>
        <pt x="-616" y="-562" on="0"/>
        <pt x="-639" y="-530" on="1"/>
        <pt x="-664" y="-563" on="0"/>
        <pt x="-730" y="-591" on="0"/>
        <pt x="-775" y="-591" on="1"/>
        <pt x="-818" y="-591" on="0"/>
        <pt x="-890" y="-556" on="0"/>
        <pt x="-943" y="-498" on="0"/>
        <pt x="-972" y="-423" on="0"/>
        <pt x="-972" y="-382" on="1"/>
        <pt x="-972" y="-334" on="0"/>
        <pt x="-928" y="-253" on="0"/>
        <pt x="-885" y="-225" on="1"/>
        <pt x="-933" y="-202" on="0"/>
        <pt x="-972" y="-137" on="0"/>
        <pt x="-972" y="-91" on="1"/>
        <pt x="-972" y="-62" on="0"/>
        <pt x="-934" y="8" on="0"/>
        <pt x="-847" y="69" on="0"/>
        <pt x="-706" y="110" on="0"/>
        <pt x="-604" y="110" on="1"/>
        <pt x="-498" y="110" on="0"/>
        <pt x="-329" y="33" on="0"/>
        <pt x="-212" y="-111" on="0"/>
        <pt x="-150" y="-318" on="0"/>
        <pt x="-150" y="-448" on="1"/>
        <pt x="-150" y="-480" on="0"/>
        <pt x="-155" y="-545" on="0"/>
        <pt x="-162" y="-575" on="1"/>
        <pt x="-291" y="-594" on="1"/>
        <pt x="-283" y="-562" on="0"/>
        <pt x="-273" y="-489" on="0"/>
        <pt x="-273" y="-449" on="1"/>
        <pt x="-273" y="-333" on="0"/>
        <pt x="-322" y="-166" on="0"/>
        <pt x="-411" y="-58" on="0"/>
        <pt x="-537" y="-6" on="0"/>
        <pt x="-614" y="-6" on="1"/>
        <pt x="-662" y="-6" on="0"/>
        <pt x="-743" y="-19" on="0"/>
        <pt x="-802" y="-43" on="0"/>
        <pt x="-835" y="-78" on="0"/>
        <pt x="-835" y="-99" on="1"/>
        <pt x="-835" y="-137" on="0"/>
        <pt x="-753" y="-177" on="0"/>
        <pt x="-681" y="-179" on="1"/>
        <pt x="-681" y="-283" on="1"/>
        <pt x="-759" y="-283" on="0"/>
        <pt x="-835" y="-334" on="0"/>
        <pt x="-835" y="-382" on="1"/>
        <pt x="-835" y="-476" on="0"/>
        <pt x="-769" y="-476" on="1"/>
        <pt x="-752" y="-476" on="0"/>
        <pt x="-725" y="-470" on="0"/>
        <pt x="-705" y="-451" on="0"/>
        <pt x="-691" y="-418" on="0"/>
        <pt x="-686" y="-391" on="1"/>
      </contour>
    </TTGlyph>
    <TTGlyph name="glyph00201" xMin="-854" yMin="-591" xMax="-150" yMax="110">
      <contour>
        <pt x="-450" y="-167" on="1"/>
        <pt x="-423" y="-166" on="0"/>
        <pt x="-365" y="-160" on="0"/>
        <pt x="-317" y="-140" on="0"/>
        <pt x="-286" y="-104" on="0"/>
        <pt x="-286" y="-74" on="1"/>
        <pt x="-286" y="-42" on="0"/>
        <pt x="-343" y="-6" on="0"/>
        <pt x="-400" y="-6" on="1"/>
        <pt x="-420" y="-6" on="0"/>
        <pt x="-470" y="-14" on="0"/>
        <pt x="-500" y="-25" on="1"/>
        <pt x="-541" y="79" on="1"/>
        <pt x="-499" y="96" on="0"/>
        <pt x="-424" y="110" on="0"/>
        <pt x="-389" y="110" on="1"/>
        <pt x="-335" y="110" on="0"/>
        <pt x="-247" y="81" on="0"/>
        <pt x="-184" y="32" on="0"/>
        <pt x="-150" y="-35" on="0"/>
        <pt x="-150" y="-74" on="1"/>
        <pt x="-150" y="-122" on="0"/>
        <pt x="-189" y="-187" on="0"/>
        <pt x="-235" y="-213" on="1"/>
        <pt x="-150" y="-261" on="0"/>
        <pt x="-150" y="-357" on="1"/>
        <pt x="-150" y="-410" on="0"/>
        <pt x="-199" y="-496" on="0"/>
        <pt x="-288" y="-558" on="0"/>
        <pt x="-413" y="-591" on="0"/>
        <pt x="-489" y="-591" on="1"/>
        <pt x="-571" y="-591" on="0"/>
        <pt x="-706" y="-536" on="0"/>
        <pt x="-802" y="-439" on="0"/>
        <pt x="-854" y="-304" on="0"/>
        <pt x="-854" y="-224" on="1"/>
        <pt x="-854" y="-176" on="0"/>
        <pt x="-835" y="-78" on="0"/>
        <pt x="-793" y="11" on="0"/>
        <pt x="-728" y="84" on="0"/>
        <pt x="-682" y="108" on="1"/>
        <pt x="-623" y="18" on="1"/>
        <pt x="-679" y="-31" on="0"/>
        <pt x="-716" y="-153" on="0"/>
        <pt x="-716" y="-232" on="1"/>
        <pt x="-716" y="-286" on="0"/>
        <pt x="-681" y="-376" on="0"/>
        <pt x="-619" y="-440" on="0"/>
        <pt x="-537" y="-476" on="0"/>
        <pt x="-489" y="-476" on="1"/>
        <pt x="-389" y="-476" on="0"/>
        <pt x="-286" y="-415" on="0"/>
        <pt x="-286" y="-359" on="1"/>
        <pt x="-286" y="-342" on="0"/>
        <pt x="-301" y="-310" on="0"/>
        <pt x="-334" y="-284" on="0"/>
        <pt x="-385" y="-269" on="0"/>
        <pt x="-421" y="-269" on="1"/>
        <pt x="-428" y="-269" on="0"/>
        <pt x="-442" y="-269" on="0"/>
        <pt x="-450" y="-270" on="1"/>
      </contour>
    </TTGlyph>
    <TTGlyph name="glyph00202" xMin="-844" yMin="-591" xMax="-150" yMax="110">
      <contour>
        <pt x="-361" y="-591" on="1"/>
        <pt x="-452" y="-591" on="0"/>
        <pt x="-495" y="-520" on="1"/>
        <pt x="-519" y="-552" on="0"/>
        <pt x="-590" y="-591" on="0"/>
        <pt x="-634" y="-591" on="1"/>
        <pt x="-679" y="-591" on="0"/>
        <pt x="-756" y="-543" on="0"/>
        <pt x="-812" y="-454" on="0"/>
        <pt x="-844" y="-328" on="0"/>
        <pt x="-844" y="-251" on="1"/>
        <pt x="-844" y="-176" on="0"/>
        <pt x="-794" y="-44" on="0"/>
        <pt x="-704" y="53" on="0"/>
        <pt x="-579" y="110" on="0"/>
        <pt x="-504" y="110" on="1"/>
        <pt x="-422" y="110" on="0"/>
        <pt x="-291" y="56" on="0"/>
        <pt x="-199" y="-45" on="0"/>
        <pt x="-150" y="-186" on="0"/>
        <pt x="-150" y="-273" on="1"/>
        <pt x="-150" y="-344" on="0"/>
        <pt x="-184" y="-461" on="0"/>
        <pt x="-243" y="-545" on="0"/>
        <pt x="-319" y="-591" on="0"/>
      </contour>
      <contour>
        <pt x="-445" y="-369" on="1"/>
        <pt x="-436" y="-432" on="0"/>
        <pt x="-394" y="-476" on="0"/>
        <pt x="-363" y="-476" on="1"/>
        <pt x="-326" y="-476" on="0"/>
        <pt x="-288" y="-362" on="0"/>
        <pt x="-288" y="-259" on="1"/>
        <pt x="-288" y="-136" on="0"/>
        <pt x="-392" y="-6" on="0"/>
        <pt x="-495" y="-6" on="1"/>
        <pt x="-600" y="-6" on="0"/>
        <pt x="-705" y="-134" on="0"/>
        <pt x="-705" y="-259" on="1"/>
        <pt x="-705" y="-364" on="0"/>
        <pt x="-666" y="-476" on="0"/>
        <pt x="-630" y="-476" on="1"/>
        <pt x="-614" y="-476" on="0"/>
        <pt x="-588" y="-468" on="0"/>
        <pt x="-566" y="-444" on="0"/>
        <pt x="-550" y="-402" on="0"/>
        <pt x="-545" y="-369" on="1"/>
      </contour>
    </TTGlyph>
    <TTGlyph name="glyph00203" xMin="-1094" yMin="-360" xMax="-150" yMax="110">
      <contour>
        <pt x="-1094" y="-222" on="1"/>
        <pt x="-545" y="-222" on="1"/>
        <pt x="-515" y="-222" on="0"/>
        <pt x="-429" y="-216" on="0"/>
        <pt x="-350" y="-192" on="0"/>
        <pt x="-294" y="-145" on="0"/>
        <pt x="-294" y="-104" on="1"/>
        <pt x="-294" y="-59" on="0"/>
        <pt x="-341" y="-18" on="0"/>
        <pt x="-380" y="-18" on="1"/>
        <pt x="-420" y="-18" on="0"/>
        <pt x="-439" y="-46" on="1"/>
        <pt x="-548" y="27" on="1"/>
        <pt x="-522" y="65" on="0"/>
        <pt x="-432" y="110" on="0"/>
        <pt x="-380" y="110" on="1"/>
        <pt x="-330" y="110" on="0"/>
        <pt x="-245" y="76" on="0"/>
        <pt x="-184" y="16" on="0"/>
        <pt x="-150" y="-67" on="0"/>
        <pt x="-150" y="-115" on="1"/>
        <pt x="-150" y="-183" on="0"/>
        <pt x="-205" y="-276" on="0"/>
        <pt x="-293" y="-334" on="0"/>
        <pt x="-402" y="-360" on="0"/>
        <pt x="-457" y="-360" on="1"/>
        <pt x="-1094" y="-360" on="1"/>
      </contour>
    </TTGlyph>
    <TTGlyph name="glyph00204" xMin="-790" yMin="-591" xMax="-150" yMax="110">
      <contour>
        <pt x="-528" y="0" on="1"/>
        <pt x="-585" y="-24" on="0"/>
        <pt x="-652" y="-146" on="0"/>
        <pt x="-652" y="-247" on="1"/>
        <pt x="-652" y="-359" on="0"/>
        <pt x="-559" y="-476" on="0"/>
        <pt x="-469" y="-476" on="1"/>
        <pt x="-380" y="-476" on="0"/>
        <pt x="-288" y="-357" on="0"/>
        <pt x="-288" y="-247" on="1"/>
        <pt x="-288" y="-146" on="0"/>
        <pt x="-355" y="-24" on="0"/>
        <pt x="-412" y="0" on="1"/>
        <pt x="-362" y="110" on="1"/>
        <pt x="-256" y="52" on="0"/>
        <pt x="-150" y="-128" on="0"/>
        <pt x="-150" y="-243" on="1"/>
        <pt x="-150" y="-314" on="0"/>
        <pt x="-200" y="-440" on="0"/>
        <pt x="-285" y="-535" on="0"/>
        <pt x="-399" y="-591" on="0"/>
        <pt x="-463" y="-591" on="1"/>
        <pt x="-533" y="-591" on="0"/>
        <pt x="-653" y="-539" on="0"/>
        <pt x="-740" y="-444" on="0"/>
        <pt x="-790" y="-313" on="0"/>
        <pt x="-790" y="-234" on="1"/>
        <pt x="-790" y="-125" on="0"/>
        <pt x="-681" y="53" on="0"/>
        <pt x="-575" y="110" on="1"/>
      </contour>
    </TTGlyph>
    <TTGlyph name="glyph00205" xMin="-628" yMin="-590" xMax="238" yMax="1440">
      <contour>
        <pt x="-209" y="1440" on="0"/>
        <pt x="-160" y="1440" on="1"/>
        <pt x="-109" y="1440" on="0"/>
        <pt x="-9" y="1423" on="0"/>
        <pt x="79" y="1381" on="0"/>
        <pt x="154" y="1309" on="0"/>
        <pt x="208" y="1198" on="0"/>
        <pt x="238" y="1046" on="0"/>
        <pt x="238" y="944" on="1"/>
        <pt x="238" y="-109" on="1"/>
        <pt x="238" y="-159" on="0"/>
        <pt x="230" y="-269" on="0"/>
        <pt x="208" y="-376" on="0"/>
        <pt x="169" y="-473" on="0"/>
        <pt x="107" y="-547" on="0"/>
        <pt x="19" y="-590" on="0"/>
        <pt x="-41" y="-590" on="1"/>
        <pt x="-62" y="-590" on="0"/>
        <pt x="-109" y="-582" on="0"/>
        <pt x="-155" y="-567" on="0"/>
        <pt x="-193" y="-544" on="0"/>
        <pt x="-205" y="-528" on="1"/>
        <pt x="-228" y="-563" on="0"/>
        <pt x="-310" y="-590" on="0"/>
        <pt x="-364" y="-590" on="1"/>
        <pt x="-442" y="-590" on="0"/>
        <pt x="-544" y="-532" on="0"/>
        <pt x="-604" y="-436" on="0"/>
        <pt x="-628" y="-315" on="0"/>
        <pt x="-628" y="-252" on="1"/>
        <pt x="-628" y="-195" on="0"/>
        <pt x="-599" y="-87" on="0"/>
        <pt x="-544" y="7" on="0"/>
        <pt x="-463" y="84" on="0"/>
        <pt x="-412" y="110" on="1"/>
        <pt x="-368" y="1" on="1"/>
        <pt x="-431" y="-31" on="0"/>
        <pt x="-490" y="-166" on="0"/>
        <pt x="-490" y="-260" on="1"/>
        <pt x="-490" y="-294" on="0"/>
        <pt x="-480" y="-369" on="0"/>
        <pt x="-451" y="-433" on="0"/>
        <pt x="-402" y="-475" on="0"/>
        <pt x="-363" y="-475" on="1"/>
        <pt x="-321" y="-475" on="0"/>
        <pt x="-266" y="-397" on="0"/>
        <pt x="-258" y="-316" on="1"/>
        <pt x="-151" y="-316" on="1"/>
        <pt x="-143" y="-396" on="0"/>
        <pt x="-94" y="-475" on="0"/>
        <pt x="-41" y="-475" on="1"/>
        <pt x="2" y="-475" on="0"/>
        <pt x="57" y="-425" on="0"/>
        <pt x="89" y="-333" on="0"/>
        <pt x="100" y="-201" on="0"/>
        <pt x="100" y="-120" on="1"/>
        <pt x="100" y="960" on="1"/>
        <pt x="100" y="1044" on="0"/>
        <pt x="71" y="1175" on="0"/>
        <pt x="5" y="1265" on="0"/>
        <pt x="-101" y="1313" on="0"/>
        <pt x="-179" y="1313" on="1"/>
        <pt x="-206" y="1313" on="0"/>
        <pt x="-236" y="1310" on="1"/>
        <pt x="-257" y="1434" on="1"/>
      </contour>
    </TTGlyph>
    <TTGlyph name="glyph00206" xMin="-930" yMin="-591" xMax="-121" yMax="109">
      <contour>
        <pt x="-493" y="-370" on="1"/>
        <pt x="-490" y="-405" on="0"/>
        <pt x="-473" y="-447" on="0"/>
        <pt x="-449" y="-469" on="0"/>
        <pt x="-421" y="-476" on="0"/>
        <pt x="-406" y="-476" on="1"/>
        <pt x="-399" y="-476" on="0"/>
        <pt x="-379" y="-471" on="0"/>
        <pt x="-358" y="-461" on="0"/>
        <pt x="-338" y="-449" on="0"/>
        <pt x="-332" y="-441" on="1"/>
        <pt x="-366" y="-417" on="0"/>
        <pt x="-424" y="-352" on="0"/>
        <pt x="-466" y="-275" on="0"/>
        <pt x="-490" y="-188" on="0"/>
        <pt x="-490" y="-142" on="1"/>
        <pt x="-490" y="-92" on="0"/>
        <pt x="-465" y="-1" on="0"/>
        <pt x="-424" y="68" on="0"/>
        <pt x="-371" y="109" on="0"/>
        <pt x="-343" y="109" on="1"/>
        <pt x="-310" y="109" on="0"/>
        <pt x="-241" y="64" on="0"/>
        <pt x="-185" y="-17" on="0"/>
        <pt x="-150" y="-132" on="0"/>
        <pt x="-150" y="-202" on="1"/>
        <pt x="-150" y="-297" on="0"/>
        <pt x="-176" y="-381" on="1"/>
        <pt x="-166" y="-383" on="0"/>
        <pt x="-137" y="-384" on="0"/>
        <pt x="-121" y="-387" on="1"/>
        <pt x="-146" y="-498" on="1"/>
        <pt x="-198" y="-498" on="0"/>
        <pt x="-226" y="-491" on="1"/>
        <pt x="-242" y="-514" on="0"/>
        <pt x="-285" y="-551" on="0"/>
        <pt x="-332" y="-577" on="0"/>
        <pt x="-381" y="-591" on="0"/>
        <pt x="-403" y="-591" on="1"/>
        <pt x="-445" y="-591" on="0"/>
        <pt x="-527" y="-561" on="0"/>
        <pt x="-550" y="-529" on="1"/>
        <pt x="-573" y="-564" on="0"/>
        <pt x="-645" y="-591" on="0"/>
        <pt x="-699" y="-591" on="1"/>
        <pt x="-753" y="-591" on="0"/>
        <pt x="-838" y="-559" on="0"/>
        <pt x="-898" y="-501" on="0"/>
        <pt x="-930" y="-420" on="0"/>
        <pt x="-930" y="-371" on="1"/>
        <pt x="-930" y="-323" on="0"/>
        <pt x="-886" y="-242" on="0"/>
        <pt x="-843" y="-215" on="1"/>
        <pt x="-894" y="-189" on="0"/>
        <pt x="-930" y="-122" on="0"/>
        <pt x="-930" y="-74" on="1"/>
        <pt x="-930" y="-35" on="0"/>
        <pt x="-897" y="32" on="0"/>
        <pt x="-837" y="81" on="0"/>
        <pt x="-750" y="109" on="0"/>
        <pt x="-696" y="109" on="1"/>
        <pt x="-665" y="109" on="0"/>
        <pt x="-595" y="95" on="0"/>
        <pt x="-553" y="82" on="1"/>
        <pt x="-597" y="-22" on="1"/>
        <pt x="-622" y="-14" on="0"/>
        <pt x="-666" y="-6" on="0"/>
        <pt x="-685" y="-6" on="1"/>
        <pt x="-742" y="-6" on="0"/>
        <pt x="-792" y="-42" on="0"/>
        <pt x="-792" y="-74" on="1"/>
        <pt x="-792" y="-118" on="0"/>
        <pt x="-721" y="-166" on="0"/>
        <pt x="-634" y="-167" on="1"/>
        <pt x="-634" y="-271" on="1"/>
        <pt x="-652" y="-271" on="1"/>
        <pt x="-730" y="-271" on="0"/>
        <pt x="-792" y="-327" on="0"/>
        <pt x="-792" y="-370" on="1"/>
        <pt x="-792" y="-476" on="0"/>
        <pt x="-698" y="-476" on="1"/>
        <pt x="-679" y="-476" on="0"/>
        <pt x="-649" y="-468" on="0"/>
        <pt x="-626" y="-445" on="0"/>
        <pt x="-610" y="-404" on="0"/>
        <pt x="-605" y="-370" on="1"/>
      </contour>
      <contour>
        <pt x="-281" y="-338" on="1"/>
        <pt x="-275" y="-308" on="0"/>
        <pt x="-268" y="-245" on="0"/>
        <pt x="-268" y="-216" on="1"/>
        <pt x="-268" y="-183" on="0"/>
        <pt x="-280" y="-117" on="0"/>
        <pt x="-301" y="-60" on="0"/>
        <pt x="-329" y="-17" on="0"/>
        <pt x="-345" y="-6" on="1"/>
        <pt x="-357" y="-31" on="0"/>
        <pt x="-374" y="-107" on="0"/>
        <pt x="-374" y="-154" on="1"/>
        <pt x="-374" y="-208" on="0"/>
        <pt x="-319" y="-303" on="0"/>
      </contour>
    </TTGlyph>
    <TTGlyph name="glyph00207" xMin="-830" yMin="-590" xMax="-150" yMax="110">
      <contour>
        <pt x="-325" y="-15" on="1"/>
        <pt x="-347" y="-1" on="0"/>
        <pt x="-403" y="11" on="0"/>
        <pt x="-424" y="11" on="1"/>
        <pt x="-461" y="11" on="0"/>
        <pt x="-500" y="-9" on="0"/>
        <pt x="-500" y="-23" on="1"/>
        <pt x="-500" y="-40" on="0"/>
        <pt x="-448" y="-69" on="0"/>
        <pt x="-370" y="-101" on="0"/>
        <pt x="-280" y="-143" on="0"/>
        <pt x="-202" y="-204" on="0"/>
        <pt x="-150" y="-289" on="0"/>
        <pt x="-150" y="-349" on="1"/>
        <pt x="-150" y="-394" on="0"/>
        <pt x="-177" y="-481" on="0"/>
        <pt x="-232" y="-548" on="0"/>
        <pt x="-314" y="-590" on="0"/>
        <pt x="-368" y="-590" on="1"/>
        <pt x="-448" y="-590" on="0"/>
        <pt x="-494" y="-528" on="1"/>
        <pt x="-517" y="-563" on="0"/>
        <pt x="-589" y="-590" on="0"/>
        <pt x="-643" y="-590" on="1"/>
        <pt x="-688" y="-590" on="0"/>
        <pt x="-758" y="-565" on="0"/>
        <pt x="-805" y="-522" on="0"/>
        <pt x="-830" y="-464" on="0"/>
        <pt x="-830" y="-432" on="1"/>
        <pt x="-830" y="-406" on="0"/>
        <pt x="-798" y="-358" on="0"/>
        <pt x="-764" y="-349" on="1"/>
        <pt x="-800" y="-339" on="0"/>
        <pt x="-830" y="-291" on="0"/>
        <pt x="-830" y="-261" on="1"/>
        <pt x="-830" y="-215" on="0"/>
        <pt x="-787" y="-160" on="0"/>
        <pt x="-725" y="-130" on="0"/>
        <pt x="-655" y="-120" on="0"/>
        <pt x="-629" y="-120" on="1"/>
        <pt x="-618" y="-120" on="0"/>
        <pt x="-596" y="-123" on="0"/>
        <pt x="-584" y="-124" on="1"/>
        <pt x="-603" y="-221" on="1"/>
        <pt x="-608" y="-220" on="0"/>
        <pt x="-619" y="-220" on="0"/>
        <pt x="-624" y="-220" on="1"/>
        <pt x="-659" y="-220" on="0"/>
        <pt x="-698" y="-241" on="0"/>
        <pt x="-698" y="-270" on="1"/>
        <pt x="-698" y="-294" on="0"/>
        <pt x="-654" y="-313" on="0"/>
        <pt x="-619" y="-318" on="1"/>
        <pt x="-619" y="-383" on="1"/>
        <pt x="-645" y="-384" on="0"/>
        <pt x="-676" y="-392" on="0"/>
        <pt x="-693" y="-406" on="0"/>
        <pt x="-698" y="-424" on="0"/>
        <pt x="-698" y="-435" on="1"/>
        <pt x="-698" y="-457" on="0"/>
        <pt x="-670" y="-482" on="0"/>
        <pt x="-635" y="-482" on="1"/>
        <pt x="-611" y="-482" on="0"/>
        <pt x="-580" y="-466" on="0"/>
        <pt x="-561" y="-440" on="0"/>
        <pt x="-552" y="-406" on="0"/>
        <pt x="-550" y="-389" on="1"/>
        <pt x="-446" y="-389" on="1"/>
        <pt x="-440" y="-434" on="0"/>
        <pt x="-399" y="-475" on="0"/>
        <pt x="-368" y="-475" on="1"/>
        <pt x="-345" y="-475" on="0"/>
        <pt x="-311" y="-449" on="0"/>
        <pt x="-288" y="-408" on="0"/>
        <pt x="-277" y="-359" on="0"/>
        <pt x="-277" y="-336" on="1"/>
        <pt x="-277" y="-293" on="0"/>
        <pt x="-329" y="-236" on="0"/>
        <pt x="-405" y="-194" on="0"/>
        <pt x="-495" y="-159" on="0"/>
        <pt x="-571" y="-118" on="0"/>
        <pt x="-622" y="-64" on="0"/>
        <pt x="-622" y="-23" on="1"/>
        <pt x="-622" y="1" on="0"/>
        <pt x="-604" y="49" on="0"/>
        <pt x="-562" y="86" on="0"/>
        <pt x="-494" y="110" on="0"/>
        <pt x="-444" y="110" on="1"/>
        <pt x="-410" y="110" on="0"/>
        <pt x="-360" y="102" on="0"/>
        <pt x="-321" y="90" on="0"/>
        <pt x="-292" y="75" on="0"/>
        <pt x="-278" y="69" on="1"/>
      </contour>
    </TTGlyph>
    <TTGlyph name="glyph00208" xMin="-866" yMin="-600" xMax="-150" yMax="110">
      <contour>
        <pt x="-671" y="-599" on="1"/>
        <pt x="-719" y="-564" on="0"/>
        <pt x="-792" y="-474" on="0"/>
        <pt x="-841" y="-369" on="0"/>
        <pt x="-866" y="-254" on="0"/>
        <pt x="-866" y="-195" on="1"/>
        <pt x="-866" y="-126" on="0"/>
        <pt x="-831" y="-13" on="0"/>
        <pt x="-771" y="66" on="0"/>
        <pt x="-693" y="110" on="0"/>
        <pt x="-649" y="110" on="1"/>
        <pt x="-604" y="110" on="0"/>
        <pt x="-531" y="71" on="0"/>
        <pt x="-507" y="37" on="1"/>
        <pt x="-484" y="76" on="0"/>
        <pt x="-412" y="110" on="0"/>
        <pt x="-362" y="110" on="1"/>
        <pt x="-317" y="110" on="0"/>
        <pt x="-240" y="64" on="0"/>
        <pt x="-183" y="-19" on="0"/>
        <pt x="-150" y="-134" on="0"/>
        <pt x="-150" y="-204" on="1"/>
        <pt x="-150" y="-263" on="0"/>
        <pt x="-176" y="-376" on="0"/>
        <pt x="-225" y="-478" on="0"/>
        <pt x="-298" y="-567" on="0"/>
        <pt x="-344" y="-600" on="1"/>
        <pt x="-401" y="-500" on="1"/>
        <pt x="-346" y="-455" on="0"/>
        <pt x="-287" y="-308" on="0"/>
        <pt x="-287" y="-217" on="1"/>
        <pt x="-287" y="-117" on="0"/>
        <pt x="-328" y="-6" on="0"/>
        <pt x="-367" y="-6" on="1"/>
        <pt x="-403" y="-6" on="0"/>
        <pt x="-446" y="-88" on="0"/>
        <pt x="-454" y="-164" on="1"/>
        <pt x="-561" y="-164" on="1"/>
        <pt x="-567" y="-87" on="0"/>
        <pt x="-611" y="-6" on="0"/>
        <pt x="-646" y="-6" on="1"/>
        <pt x="-687" y="-6" on="0"/>
        <pt x="-728" y="-117" on="0"/>
        <pt x="-728" y="-217" on="1"/>
        <pt x="-728" y="-309" on="0"/>
        <pt x="-668" y="-454" on="0"/>
        <pt x="-614" y="-500" on="1"/>
      </contour>
    </TTGlyph>
    <TTGlyph name="glyph00209" xMin="-876" yMin="-600" xMax="-150" yMax="110">
      <contour>
        <pt x="-719" y="-600" on="1"/>
        <pt x="-755" y="-577" on="0"/>
        <pt x="-814" y="-518" on="0"/>
        <pt x="-854" y="-439" on="0"/>
        <pt x="-876" y="-337" on="0"/>
        <pt x="-876" y="-270" on="1"/>
        <pt x="-876" y="-181" on="0"/>
        <pt x="-822" y="-40" on="0"/>
        <pt x="-725" y="58" on="0"/>
        <pt x="-590" y="110" on="0"/>
        <pt x="-509" y="110" on="1"/>
        <pt x="-474" y="110" on="0"/>
        <pt x="-399" y="102" on="0"/>
        <pt x="-328" y="85" on="0"/>
        <pt x="-262" y="59" on="0"/>
        <pt x="-236" y="42" on="1"/>
        <pt x="-287" y="-53" on="1"/>
        <pt x="-338" y="-27" on="0"/>
        <pt x="-442" y="-5" on="0"/>
        <pt x="-481" y="-5" on="1"/>
        <pt x="-519" y="-5" on="0"/>
        <pt x="-597" y="-17" on="0"/>
        <pt x="-664" y="-45" on="0"/>
        <pt x="-716" y="-92" on="0"/>
        <pt x="-727" y="-128" on="1"/>
        <pt x="-712" y="-123" on="0"/>
        <pt x="-676" y="-115" on="0"/>
        <pt x="-659" y="-115" on="1"/>
        <pt x="-614" y="-115" on="0"/>
        <pt x="-543" y="-158" on="0"/>
        <pt x="-519" y="-192" on="1"/>
        <pt x="-490" y="-155" on="0"/>
        <pt x="-417" y="-115" on="0"/>
        <pt x="-363" y="-115" on="1"/>
        <pt x="-313" y="-115" on="0"/>
        <pt x="-234" y="-153" on="0"/>
        <pt x="-179" y="-217" on="0"/>
        <pt x="-150" y="-301" on="0"/>
        <pt x="-150" y="-347" on="1"/>
        <pt x="-150" y="-394" on="0"/>
        <pt x="-181" y="-474" on="0"/>
        <pt x="-230" y="-538" on="0"/>
        <pt x="-290" y="-586" on="0"/>
        <pt x="-319" y="-600" on="1"/>
        <pt x="-375" y="-507" on="1"/>
        <pt x="-338" y="-484" on="0"/>
        <pt x="-287" y="-405" on="0"/>
        <pt x="-287" y="-354" on="1"/>
        <pt x="-287" y="-297" on="0"/>
        <pt x="-327" y="-230" on="0"/>
        <pt x="-377" y="-230" on="1"/>
        <pt x="-392" y="-230" on="0"/>
        <pt x="-423" y="-243" on="0"/>
        <pt x="-448" y="-271" on="0"/>
        <pt x="-465" y="-316" on="0"/>
        <pt x="-466" y="-349" on="1"/>
        <pt x="-570" y="-349" on="1"/>
        <pt x="-572" y="-313" on="0"/>
        <pt x="-587" y="-267" on="0"/>
        <pt x="-610" y="-240" on="0"/>
        <pt x="-639" y="-230" on="0"/>
        <pt x="-656" y="-230" on="1"/>
        <pt x="-738" y="-230" on="0"/>
        <pt x="-738" y="-345" on="1"/>
        <pt x="-738" y="-365" on="0"/>
        <pt x="-728" y="-411" on="0"/>
        <pt x="-706" y="-458" on="0"/>
        <pt x="-671" y="-502" on="0"/>
        <pt x="-645" y="-519" on="1"/>
      </contour>
    </TTGlyph>
    <TTGlyph name="glyph00210" xMin="-1155" yMin="-591" xMax="-150" yMax="109">
      <contour>
        <pt x="-521" y="-456" on="1"/>
        <pt x="-480" y="-476" on="0"/>
        <pt x="-445" y="-476" on="1"/>
        <pt x="-409" y="-476" on="0"/>
        <pt x="-350" y="-441" on="0"/>
        <pt x="-310" y="-378" on="0"/>
        <pt x="-288" y="-288" on="0"/>
        <pt x="-288" y="-232" on="1"/>
        <pt x="-288" y="-125" on="0"/>
        <pt x="-369" y="-6" on="0"/>
        <pt x="-443" y="-6" on="1"/>
        <pt x="-470" y="-6" on="0"/>
        <pt x="-515" y="-32" on="0"/>
        <pt x="-550" y="-76" on="0"/>
        <pt x="-573" y="-134" on="0"/>
        <pt x="-578" y="-167" on="1"/>
        <pt x="-576" y="-184" on="0"/>
        <pt x="-573" y="-226" on="0"/>
        <pt x="-573" y="-247" on="1"/>
        <pt x="-573" y="-325" on="0"/>
        <pt x="-622" y="-452" on="0"/>
        <pt x="-707" y="-542" on="0"/>
        <pt x="-820" y="-591" on="0"/>
        <pt x="-884" y="-591" on="1"/>
        <pt x="-978" y="-591" on="0"/>
        <pt x="-1115" y="-494" on="0"/>
        <pt x="-1155" y="-407" on="1"/>
        <pt x="-1025" y="-365" on="1"/>
        <pt x="-1009" y="-419" on="0"/>
        <pt x="-933" y="-476" on="0"/>
        <pt x="-879" y="-476" on="1"/>
        <pt x="-841" y="-476" on="0"/>
        <pt x="-779" y="-441" on="0"/>
        <pt x="-735" y="-377" on="0"/>
        <pt x="-711" y="-290" on="0"/>
        <pt x="-711" y="-237" on="1"/>
        <pt x="-711" y="-126" on="0"/>
        <pt x="-804" y="-6" on="0"/>
        <pt x="-885" y="-6" on="1"/>
        <pt x="-927" y="-6" on="0"/>
        <pt x="-1006" y="-53" on="0"/>
        <pt x="-1032" y="-95" on="1"/>
        <pt x="-1139" y="-32" on="1"/>
        <pt x="-1089" y="36" on="0"/>
        <pt x="-952" y="109" on="0"/>
        <pt x="-881" y="109" on="1"/>
        <pt x="-808" y="109" on="0"/>
        <pt x="-688" y="54" on="0"/>
        <pt x="-650" y="1" on="1"/>
        <pt x="-631" y="24" on="0"/>
        <pt x="-581" y="64" on="0"/>
        <pt x="-526" y="93" on="0"/>
        <pt x="-467" y="109" on="0"/>
        <pt x="-438" y="109" on="1"/>
        <pt x="-374" y="109" on="0"/>
        <pt x="-267" y="63" on="0"/>
        <pt x="-192" y="-24" on="0"/>
        <pt x="-150" y="-148" on="0"/>
        <pt x="-150" y="-225" on="1"/>
        <pt x="-150" y="-310" on="0"/>
        <pt x="-192" y="-445" on="0"/>
        <pt x="-268" y="-540" on="0"/>
        <pt x="-375" y="-591" on="0"/>
        <pt x="-440" y="-591" on="1"/>
        <pt x="-476" y="-591" on="0"/>
        <pt x="-545" y="-574" on="0"/>
        <pt x="-580" y="-557" on="1"/>
      </contour>
    </TTGlyph>
</ttFont>
